{
.appVersion = "1342";
DisplayStrings = (
"/JIMm8/TEmsd4",
"/tdb.yb"
);
customParameters = (
{
name = glyphOrder;
value = (

glyphs = (
{
color = 1;
glyphname = HAMZAu1;
lastChange = "2020-11-16 20:04:07 +0000";
layers = (
{
anchors = (
{
name = bottom;
position = "{192, -133}";
},
{
name = top;
position = "{201, 509}";
}
);
background = {
paths = (
{
closed = 1;
nodes = (
"99 92 LINE",
"86 62 OFFCURVE",
"68 11 OFFCURVE",
"68 -22 CURVE",
"68 -31 OFFCURVE",
"71 -36 OFFCURVE",
"78 -36 CURVE",
"81 -36 OFFCURVE",
"83 -35 OFFCURVE",
"84 -33 CURVE",
"86 -32 OFFCURVE",
"87 -30 OFFCURVE",
"88 -28 CURVE",
"88 -27 OFFCURVE",
"90 -23 OFFCURVE",
"94 -15 CURVE",
"117 40 OFFCURVE",
"161 82 OFFCURVE",
"214 106 CURVE",
"275 130 OFFCURVE",
"308 149 OFFCURVE",
"341 207 CURVE",
"352 225 LINE",
"366 246 OFFCURVE",
"371 256 OFFCURVE",
"371 261 CURVE",
"371 264 OFFCURVE",
"368 267 OFFCURVE",
"365 267 CURVE",
"362 267 OFFCURVE",
"360 266 OFFCURVE",
"354 262 CURVE",
"310 228 OFFCURVE",
"236 199 OFFCURVE",
"193 199 CURVE",
"151 199 OFFCURVE",
"112 224 OFFCURVE",
"112 252 CURVE",
"112 276 OFFCURVE",
"138 292 OFFCURVE",
"175 292 CURVE",
"187 292 OFFCURVE",
"194 291 OFFCURVE",
"207 289 CURVE",
"219 287 OFFCURVE",
"222 286 OFFCURVE",
"227 286 CURVE",
"245 286 OFFCURVE",
"256 295 OFFCURVE",
"256 310 CURVE",
"256 339 OFFCURVE",
"228 362 OFFCURVE",
"194 362 CURVE",
"125 362 OFFCURVE",
"35 237 OFFCURVE",
"35 173 CURVE",
"35 147 OFFCURVE",
"47 125 OFFCURVE",
"66 114 CURVE",
"75 108 OFFCURVE",
"84 104 OFFCURVE",
"102 98 CURVE"
);
}
);
};
layerId = "6E34CE51-C086-4FF0-804E-D019E96D60E0";
paths = (
{
closed = 1;
nodes = (
"133 87 OFFCURVE",
"159 79 OFFCURVE",
"182 92 CURVE SMOOTH",
"212 109 OFFCURVE",
"254 131 OFFCURVE",
"265 137 CURVE SMOOTH",
"334 174 LINE",
"369 259 LINE",
"354 272 LINE",
"318 246 OFFCURVE",
"249 212 OFFCURVE",
"211 212 CURVE SMOOTH",
"173 212 OFFCURVE",
"131 230 OFFCURVE",
"111 272 CURVE",
"111 240 LINE",
"164 304 OFFCURVE",
"193 333 OFFCURVE",
"224 333 CURVE SMOOTH",
"255 333 OFFCURVE",
"276 318 OFFCURVE",
"279 314 CURVE",
"299 344 LINE",
"283 373 OFFCURVE",
"254 401 OFFCURVE",
"215 401 CURVE SMOOTH",
"172 401 OFFCURVE",
"142 361 OFFCURVE",
"126 338 CURVE SMOOTH",
"114 321 OFFCURVE",
"80 270 OFFCURVE",
"63 244 CURVE SMOOTH",
"48 220 OFFCURVE",
"33 184 OFFCURVE",
"33 160 CURVE SMOOTH",
"33 127 OFFCURVE",
"69 98 OFFCURVE",
"111 91 CURVE SMOOTH"
);
},
{
closed = 1;
nodes = (
"80 18 OFFCURVE",
"136 64 OFFCURVE",
"182 92 CURVE",
"114 120 LINE",
"89 92 OFFCURVE",
"53 60 OFFCURVE",
"25 -10 CURVE",
"48 -21 LINE"
);
}
);
width = 380;
}
);
note = HAMZAu1;
unicode = 0621;
},
{
color = 1;
glyphname = ALIFu1;
lastChange = "2020-11-16 20:04:07 +0000";
layers = (
{
anchors = (
{
name = bottom;
position = "{100, -103}";
},
{
name = top;
position = "{131, 733}";
}
);
background = {
paths = (
{
closed = 1;
nodes = (
"55 25 LINE",
"55 22 LINE",
"55 18 OFFCURVE",
"55 17 OFFCURVE",
"58 16 CURVE",
"59 15 LINE",
"60 16 OFFCURVE",
"60 16 OFFCURVE",
"62 17 CURVE",
"65 18 OFFCURVE",
"68 21 OFFCURVE",
"69 25 CURVE",
"70 26 OFFCURVE",
"73 31 OFFCURVE",
"79 39 CURVE",
"105 78 OFFCURVE",
"121 138 OFFCURVE",
"123 185 CURVE",
"125 205 OFFCURVE",
"126 225 OFFCURVE",
"126 243 CURVE",
"128 334 LINE",
"127 382 LINE",
"127 533 LINE",
"127 576 OFFCURVE",
"129 630 OFFCURVE",
"131 653 CURVE",
"133 667 LINE",
"134 670 OFFCURVE",
"134 671 OFFCURVE",
"134 672 CURVE",
"134 676 LINE",
"134 679 OFFCURVE",
"133 681 OFFCURVE",
"130 681 CURVE",
"127 681 OFFCURVE",
"125 679 OFFCURVE",
"117 669 CURVE",
"92 633 OFFCURVE",
"69 602 OFFCURVE",
"63 557 CURVE",
"59 527 OFFCURVE",
"58 507 OFFCURVE",
"58 449 CURVE",
"58 399 LINE",
"60 324 LINE",
"61 303 OFFCURVE",
"61 278 OFFCURVE",
"62 249 CURVE",
"62 112 LINE",
"61 88 LINE",
"59 71 LINE",
"59 66 OFFCURVE",
"59 60 OFFCURVE",
"58 52 CURVE",
"58 43 OFFCURVE",
"57 36 OFFCURVE",
"56 32 CURVE"
);
}
);
};
backgroundImage = {
crop = "{{0, 0}, {35, 188.16}}";
imagePath = "../../../../_01_Calligraphic Models (Amir)/_03_03 Aug 2020/001.png";
transform = "{3.49947, 0.06108, -0.06108, 3.49947, 38, -33}";
};
layerId = "6E34CE51-C086-4FF0-804E-D019E96D60E0";
paths = (
{
closed = 1;
nodes = (
"98 21 LINE",
"113 68 OFFCURVE",
"118 143 OFFCURVE",
"121 208 CURVE SMOOTH",
"125 298 OFFCURVE",
"120 493 OFFCURVE",
"123 552 CURVE SMOOTH",
"125 598 OFFCURVE",
"127 634 OFFCURVE",
"132 669 CURVE",
"116 674 LINE",
"87 605 OFFCURVE",
"62 527 OFFCURVE",
"62 467 CURVE SMOOTH",
"62 399 OFFCURVE",
"76 154 OFFCURVE",
"76 21 CURVE"
);
}
);
width = 174;
}
);
note = ALIFu1;
unicode = 0627;
},
{
color = 1;
glyphname = BEu1;
lastChange = "2020-11-16 20:04:07 +0000";
layers = (
{
anchors = (
{
name = bottom;
position = "{440, -116}";
},
{
name = top;
position = "{451, 319}";
}
);
background = {
paths = (
{
closed = 1;
nodes = (
"387 2 OFFCURVE",
"613 15 OFFCURVE",
"743 88 CURVE SMOOTH",
"791 115 OFFCURVE",
"806 122 OFFCURVE",
"819 133 CURVE SMOOTH",
"864 173 OFFCURVE",
"894 229 OFFCURVE",
"916 337 CURVE",
"898 342 LINE",
"884 309 OFFCURVE",
"874 287 OFFCURVE",
"846 265 CURVE SMOOTH",
"810 236 OFFCURVE",
"623 154 OFFCURVE",
"304 154 CURVE SMOOTH",
"241 154 OFFCURVE",
"143 166 OFFCURVE",
"101 210 CURVE SMOOTH",
"77 236 OFFCURVE",
"69 277 OFFCURVE",
"74 325 CURVE",
"53 326 LINE",
"46 260 OFFCURVE",
"36 191 OFFCURVE",
"36 140 CURVE SMOOTH",
"36 37 OFFCURVE",
"159 2 OFFCURVE",
"290 2 CURVE SMOOTH"
);
}
);
};
layerId = "6E34CE51-C086-4FF0-804E-D019E96D60E0";
paths = (
{
closed = 1;
nodes = (
"387 2 OFFCURVE",
"613 15 OFFCURVE",
"743 88 CURVE SMOOTH",
"791 115 OFFCURVE",
"806 122 OFFCURVE",
"819 133 CURVE SMOOTH",
"864 173 OFFCURVE",
"894 229 OFFCURVE",
"916 337 CURVE",
"898 342 LINE",
"884 309 OFFCURVE",
"874 287 OFFCURVE",
"846 265 CURVE SMOOTH",
"810 236 OFFCURVE",
"623 154 OFFCURVE",
"304 154 CURVE SMOOTH",
"241 154 OFFCURVE",
"143 166 OFFCURVE",
"101 210 CURVE SMOOTH",
"77 236 OFFCURVE",
"69 277 OFFCURVE",
"74 325 CURVE",
"53 326 LINE",
"46 260 OFFCURVE",
"36 191 OFFCURVE",
"36 140 CURVE SMOOTH",
"36 37 OFFCURVE",
"159 2 OFFCURVE",
"290 2 CURVE SMOOTH"
);
}
);
width = 942;
}
);
note = BEu1;
unicode = 0628;
},
{
color = 1;
glyphname = DALu1;
lastChange = "2020-11-16 20:04:07 +0000";
layers = (
{
anchors = (
{
name = bottom;
position = "{72, -200}";
},
{
name = top;
position = "{48, 515}";
}
);
backgroundImage = {
crop = "{{0, 0}, {82.32, 129.6}}";
imagePath = "../../../../_01_Calligraphic Models (Amir)/_03_03 Aug 2020/005.png";
locked = "1";
transform = "{3.49947, 0.06108, -0.06108, 3.49947, -55, -16}";
};
layerId = "6E34CE51-C086-4FF0-804E-D019E96D60E0";
paths = (
{
closed = 1;
nodes = (
"-30 19 LINE",
"76 86 OFFCURVE",
"144 124 OFFCURVE",
"144 171 CURVE SMOOTH",
"144 218 OFFCURVE",
"86 260 OFFCURVE",
"16 257 CURVE",
"48 415 LINE",
"144 406 OFFCURVE",
"185 356 OFFCURVE",
"185 278 CURVE SMOOTH",
"185 226 OFFCURVE",
"173 185 OFFCURVE",
"167 163 CURVE SMOOTH",
"161 141 OFFCURVE",
"135 63 OFFCURVE",
"109 44 CURVE SMOOTH",
"80 22 OFFCURVE",
"3 5 OFFCURVE",
"-24 0 CURVE"
);
}
);
width = 213;
}
);
note = DALu1;
unicode = 062F;
},
{
color = 1;
glyphname = "dal-ar.fina";
lastChange = "2020-08-05 18:10:52 +0000";
layers = (
{
backgroundImage = {
crop = "{{0, 0}, {199, 149.76}}";
imagePath = "../../../../_01_Calligraphic Models (Amir)/_03_03 Aug 2020/030.png";
locked = "1";
transform = "{3.5, 0, 0, 3.5, -40, -62}";
};
layerId = "6E34CE51-C086-4FF0-804E-D019E96D60E0";
paths = (
{
closed = 1;
nodes = (
"23 -2 OFFCURVE",
"113 7 OFFCURVE",
"146 35 CURVE SMOOTH",
"178 62 OFFCURVE",
"198 113 OFFCURVE",
"205 135 CURVE",
"189 131 LINE",
"189 56 OFFCURVE",
"224 7 OFFCURVE",
"283 7 CURVE",
"321 7 OFFCURVE",
"342 87 OFFCURVE",
"323 142 CURVE",
"273 147 OFFCURVE",
"255 197 OFFCURVE",
"255 252 CURVE SMOOTH",
"255 287 OFFCURVE",
"264 326 OFFCURVE",
"279 374 CURVE",
"255 383 LINE",
"192 195 OFFCURVE",
"162 161 OFFCURVE",
"126 119 CURVE SMOOTH",
"98 86 OFFCURVE",
"43 51 OFFCURVE",
"0 26 CURVE",
"9 -6 LINE"
);
}
);
width = 380;
}
);
unicode = FEAA;
},
{
color = 1;
glyphname = REu1;
lastChange = "2020-11-16 20:04:07 +0000";
layers = (
{
anchors = (
{
name = bottom;
position = "{80, -192}";
},
{
name = top;
position = "{149, 473}";
}
);
layerId = "6E34CE51-C086-4FF0-804E-D019E96D60E0";
paths = (
{
closed = 1;
nodes = (
"-15 3 OFFCURVE",
"90 31 OFFCURVE",
"109 53 CURVE SMOOTH",
"150 100 OFFCURVE",
"168 181 OFFCURVE",
"173 202 CURVE SMOOTH",
"185 255 OFFCURVE",
"189 287 OFFCURVE",
"203 365 CURVE",
"178 369 LINE",
"139 212 OFFCURVE",
"128 183 OFFCURVE",
"118 165 CURVE SMOOTH",
"94 120 OFFCURVE",
"32 69 OFFCURVE",
"-40 15 CURVE",
"-31 -1 LINE"
);
}
);
width = 253;
}
);
note = REu1;
unicode = 0631;
},
{
color = 1;
glyphname = SINu1;
lastChange = "2020-11-16 20:04:07 +0000";
layers = (
{
anchors = (
{
name = bottom;
position = "{275, -577}";
},
{
name = top;
position = "{796, 555}";
}
);
background = {
paths = (
{
closed = 1;
nodes = (
"480 -441 OFFCURVE",
"587 -265 OFFCURVE",
"647 -134 CURVE SMOOTH",
"706 -3 OFFCURVE",
"719 143 OFFCURVE",
"719 303 CURVE",
"706 272 LINE",
"735 272 OFFCURVE",
"789 278 OFFCURVE",
"837 336 CURVE",
"915 308 OFFCURVE",
"973 374 OFFCURVE",
"976 495 CURVE",
"958 497 LINE",
"952 474 OFFCURVE",
"940 410 OFFCURVE",
"893 410 CURVE SMOOTH",
"865 410 OFFCURVE",
"854 437 OFFCURVE",
"851 455 CURVE",
"836 455 LINE",
"824 413 OFFCURVE",
"810 371 OFFCURVE",
"766 371 CURVE SMOOTH",
"740 371 OFFCURVE",
"710 374 OFFCURVE",
"680 411 CURVE",
"672 404 OFFCURVE",
"655 377 OFFCURVE",
"655 348 CURVE SMOOTH",
"655 313 OFFCURVE",
"676 294 OFFCURVE",
"676 164 CURVE SMOOTH",
"676 -37 OFFCURVE",
"567 -290 OFFCURVE",
"312 -290 CURVE SMOOTH",
"201 -290 OFFCURVE",
"101 -223 OFFCURVE",
"101 -89 CURVE SMOOTH",
"101 28 OFFCURVE",
"141 122 OFFCURVE",
"187 222 CURVE",
"160 232 LINE",
"86 79 OFFCURVE",
"50 -49 OFFCURVE",
"50 -200 CURVE SMOOTH",
"50 -338 OFFCURVE",
"129 -441 OFFCURVE",
"275 -441 CURVE SMOOTH"
);
}
);
};
layerId = "6E34CE51-C086-4FF0-804E-D019E96D60E0";
paths = (
{
closed = 1;
nodes = (
"480 -441 OFFCURVE",
"587 -265 OFFCURVE",
"647 -134 CURVE SMOOTH",
"706 -3 OFFCURVE",
"719 143 OFFCURVE",
"719 303 CURVE",
"706 272 LINE",
"735 272 OFFCURVE",
"789 278 OFFCURVE",
"837 336 CURVE",
"915 308 OFFCURVE",
"973 374 OFFCURVE",
"976 495 CURVE",
"958 497 LINE",
"952 474 OFFCURVE",
"940 410 OFFCURVE",
"893 410 CURVE SMOOTH",
"865 410 OFFCURVE",
"854 437 OFFCURVE",
"851 455 CURVE",
"836 455 LINE",
"821 413 OFFCURVE",
"803 371 OFFCURVE",
"746 371 CURVE SMOOTH",
"726 371 OFFCURVE",
"701 383 OFFCURVE",
"680 411 CURVE",
"672 404 OFFCURVE",
"655 377 OFFCURVE",
"655 348 CURVE SMOOTH",
"655 313 OFFCURVE",
"676 294 OFFCURVE",
"676 164 CURVE SMOOTH",
"676 -37 OFFCURVE",
"567 -290 OFFCURVE",
"312 -290 CURVE SMOOTH",
"201 -290 OFFCURVE",
"101 -223 OFFCURVE",
"101 -89 CURVE SMOOTH",
"101 28 OFFCURVE",
"141 122 OFFCURVE",
"187 222 CURVE",
"160 232 LINE",
"92 91 OFFCURVE",
"50 -58 OFFCURVE",
"50 -180 CURVE SMOOTH",
"50 -331 OFFCURVE",
"115 -441 OFFCURVE",
"275 -441 CURVE SMOOTH"
);
}
);
width = 1026;
}
);
note = SINu1;
unicode = 0633;
},
{
color = 1;
glyphname = SADu1;
lastChange = "2020-11-16 20:04:07 +0000";
layers = (
{
anchors = (
{
name = bottom;
position = "{231, -523}";
},
{
name = top;
position = "{871, 766}";
}
);
backgroundImage = {
crop = "{{0, 0}, {312.24, 350.16}}";
imagePath = "../../../../_01_Calligraphic Models (Amir)/_03_03 Aug 2020/018.png";
locked = "1";
transform = "{3.5, 0, 0, 3.5, -28, -473}";
};
layerId = "6E34CE51-C086-4FF0-804E-D019E96D60E0";
paths = (
{
closed = 1;
nodes = (
"441 -416 OFFCURVE",
"568 -245 OFFCURVE",
"625 -122 CURVE SMOOTH",
"682 1 OFFCURVE",
"709 130 OFFCURVE",
"706 329 CURVE",
"692 310 LINE",
"811 305 OFFCURVE",
"869 341 OFFCURVE",
"921 407 CURVE SMOOTH",
"970 469 OFFCURVE",
"1010 559 OFFCURVE",
"1010 618 CURVE SMOOTH",
"1010 648 OFFCURVE",
"997 691 OFFCURVE",
"950 691 CURVE SMOOTH",
"905 691 OFFCURVE",
"871 666 OFFCURVE",
"812 559 CURVE SMOOTH",
"743 434 LINE",
"766 424 LINE",
"821 530 LINE SMOOTH",
"856 597 OFFCURVE",
"935 627 OFFCURVE",
"977 575 CURVE",
"954 481 OFFCURVE",
"775 409 OFFCURVE",
"680 481 CURVE",
"664 473 OFFCURVE",
"640 432 OFFCURVE",
"640 396 CURVE SMOOTH",
"640 342 OFFCURVE",
"665 320 OFFCURVE",
"665 198 CURVE SMOOTH",
"665 55 OFFCURVE",
"580 -262 OFFCURVE",
"286 -262 CURVE SMOOTH",
"194 -262 OFFCURVE",
"84 -225 OFFCURVE",
"84 -51 CURVE SMOOTH",
"84 22 OFFCURVE",
"111 126 OFFCURVE",
"166 253 CURVE",
"141 263 LINE",
"83 139 OFFCURVE",
"27 -15 OFFCURVE",
"27 -145 CURVE SMOOTH",
"27 -337 OFFCURVE",
"136 -416 OFFCURVE",
"260 -416 CURVE SMOOTH"
);
}
);
width = 1037;
}
);
note = SADu1;
unicode = 0635;
},
{
color = 1;
glyphname = TOEu1;
lastChange = "2020-11-16 20:04:07 +0000";
layers = (
{
anchors = (
{
name = bottom;
position = "{241, -203}";
},
{
name = top;
position = "{429, 495}";
}
);
backgroundImage = {
crop = "{{0, 0}, {127.92, 222.24}}";
imagePath = "../../../../_01_Calligraphic Models (Amir)/_03_03 Aug 2020/011.png";
locked = "1";
transform = "{3.49947, -0.06108, 0.06108, 3.49947, -12, -54}";
};
layerId = "6E34CE51-C086-4FF0-804E-D019E96D60E0";
paths = (
{
closed = 1;
nodes = (
"71 -14 OFFCURVE",
"131 -10 OFFCURVE",
"179 -3 CURVE SMOOTH",
"197 0 OFFCURVE",
"235 0 OFFCURVE",
"276 21 CURVE SMOOTH",
"317 42 OFFCURVE",
"354 101 OFFCURVE",
"374 132 CURVE SMOOTH",
"404 179 OFFCURVE",
"422 225 OFFCURVE",
"422 267 CURVE SMOOTH",
"422 309 OFFCURVE",
"398 333 OFFCURVE",
"366 333 CURVE SMOOTH",
"317 333 OFFCURVE",
"280 282 OFFCURVE",
"249 239 CURVE",
"252 253 OFFCURVE",
"258 506 OFFCURVE",
"261 548 CURVE SMOOTH",
"264 590 OFFCURVE",
"272 621 OFFCURVE",
"274 658 CURVE",
"254 664 LINE",
"206 533 OFFCURVE",
"200 495 OFFCURVE",
"200 463 CURVE SMOOTH",
"200 433 OFFCURVE",
"205 274 OFFCURVE",
"212 174 CURVE",
"217 190 LINE",
"212 183 OFFCURVE",
"168 121 OFFCURVE",
"143 86 CURVE",
"164 72 LINE",
"205 126 OFFCURVE",
"226 151 OFFCURVE",
"258 187 CURVE SMOOTH",
"281 213 OFFCURVE",
"307 237 OFFCURVE",
"344 237 CURVE SMOOTH",
"364 237 OFFCURVE",
"384 230 OFFCURVE",
"384 222 CURVE SMOOTH",
"384 195 OFFCURVE",
"310 132 OFFCURVE",
"266 106 CURVE SMOOTH",
"210 73 OFFCURVE",
"125 37 OFFCURVE",
"15 3 CURVE",
"17 -20 LINE"
);
}
);
width = 454;
}
);
note = TOEu1;
unicode = 0637;
},
{
color = 1;
glyphname = AINu1;
lastChange = "2020-11-16 20:04:07 +0000";
layers = (
{
anchors = (
{
name = bottom;
position = "{313, -505}";
},
{
name = top;
position = "{284, 845}";
}
);
layerId = "6E34CE51-C086-4FF0-804E-D019E96D60E0";
paths = (
{
closed = 1;
nodes = (
"497 -352 OFFCURVE",
"648 -160 OFFCURVE",
"756 117 CURVE",
"731 128 LINE",
"631 -133 OFFCURVE",
"448 -193 OFFCURVE",
"341 -193 CURVE SMOOTH",
"243 -193 OFFCURVE",
"111 -143 OFFCURVE",
"111 7 CURVE SMOOTH",
"111 145 OFFCURVE",
"167 245 OFFCURVE",
"208 310 CURVE SMOOTH",
"254 383 OFFCURVE",
"362 485 OFFCURVE",
"460 544 CURVE",
"490 611 LINE",
"478 620 LINE",
"423 588 OFFCURVE",
"362 557 OFFCURVE",
"327 557 CURVE SMOOTH",
"302 557 OFFCURVE",
"266 560 OFFCURVE",
"236 613 CURVE",
"278 676 OFFCURVE",
"330 687 OFFCURVE",
"350 687 CURVE SMOOTH",
"371 687 OFFCURVE",
"383 682 OFFCURVE",
"393 670 CURVE",
"414 690 LINE",
"405 720 OFFCURVE",
"383 754 OFFCURVE",
"340 754 CURVE SMOOTH",
"307 754 OFFCURVE",
"274 735 OFFCURVE",
"240 684 CURVE SMOOTH",
"175 585 LINE SMOOTH",
"167 573 OFFCURVE",
"149 544 OFFCURVE",
"149 508 CURVE SMOOTH",
"149 456 OFFCURVE",
"215 423 OFFCURVE",
"269 436 CURVE",
"265 442 LINE",
"138 310 OFFCURVE",
"46 86 OFFCURVE",
"46 -59 CURVE SMOOTH",
"46 -329 OFFCURVE",
"242 -352 OFFCURVE",
"313 -352 CURVE SMOOTH"
);
}
);
width = 783;
}
);
note = AINu1;
unicode = 0639;
},
{
color = 1;
glyphname = FEu1;
lastChange = "2020-11-16 20:04:07 +0000";
layers = (
{
anchors = (
{
name = bottom;
position = "{441, -214}";
},
{
name = top;
position = "{795, 619}";
}
);
backgroundImage = {
crop = "{{0, 0}, {279.12, 171.12}}";
imagePath = "../../../../_01_Calligraphic Models (Amir)/_03_03 Aug 2020/013.png";
locked = "1";
transform = "{3.5, 0, 0, 3.5, -18, -51}";
};
layerId = "6E34CE51-C086-4FF0-804E-D019E96D60E0";
paths = (
{
closed = 1;
nodes = (
"508 -10 OFFCURVE",
"755 38 OFFCURVE",
"844 127 CURVE SMOOTH",
"878 161 OFFCURVE",
"897 197 OFFCURVE",
"911 239 CURVE SMOOTH",
"922 273 OFFCURVE",
"928 311 OFFCURVE",
"928 349 CURVE SMOOTH",
"928 438 OFFCURVE",
"882 506 OFFCURVE",
"830 506 CURVE SMOOTH",
"816 506 OFFCURVE",
"801 501 OFFCURVE",
"787 489 CURVE",
"776 465 OFFCURVE",
"750 399 OFFCURVE",
"733 336 CURVE",
"733 275 OFFCURVE",
"772 258 OFFCURVE",
"805 258 CURVE SMOOTH",
"827 258 OFFCURVE",
"848 266 OFFCURVE",
"858 274 CURVE",
"873 271 OFFCURVE",
"885 260 OFFCURVE",
"888 247 CURVE",
"767 166 OFFCURVE",
"507 141 OFFCURVE",
"380 141 CURVE SMOOTH",
"333 141 OFFCURVE",
"237 148 OFFCURVE",
"174 168 CURVE SMOOTH",
"139 179 OFFCURVE",
"82 206 OFFCURVE",
"82 269 CURVE SMOOTH",
"82 282 OFFCURVE",
"83 296 OFFCURVE",
"86 319 CURVE",
"63 319 LINE",
"51 273 OFFCURVE",
"37 197 OFFCURVE",
"37 136 CURVE SMOOTH",
"37 103 OFFCURVE",
"51 55 OFFCURVE",
"103 28 CURVE SMOOTH",
"159 -2 OFFCURVE",
"256 -10 OFFCURVE",
"341 -10 CURVE SMOOTH"
);
}
);
width = 958;
}
);
note = FEu1;
unicode = 06A1;
},
{
color = 1;
glyphname = QAFu1;
lastChange = "2020-11-16 20:04:07 +0000";
layers = (
{
anchors = (
{
name = bottom;
position = "{255, -498}";
},
{
name = top;
position = "{548, 617}";
}
);
backgroundImage = {
crop = "{{0, 0}, {220.32, 288.72}}";
imagePath = "../../../../_01_Calligraphic Models (Amir)/_03_03 Aug 2020/021.png";
locked = "1";
transform = "{3.5, 0, 0, 3.5, -30, -466}";
};
layerId = "6E34CE51-C086-4FF0-804E-D019E96D60E0";
paths = (
{
closed = 1;
nodes = (
"421 -413 OFFCURVE",
"545 -269 OFFCURVE",
"595 -168 CURVE SMOOTH",
"672 -13 OFFCURVE",
"688 138 OFFCURVE",
"688 214 CURVE SMOOTH",
"688 329 OFFCURVE",
"664 518 OFFCURVE",
"574 518 CURVE SMOOTH",
"562 518 OFFCURVE",
"548 517 OFFCURVE",
"529 498 CURVE",
"519 469 OFFCURVE",
"483 362 OFFCURVE",
"477 318 CURVE",
"477 287 OFFCURVE",
"495 252 OFFCURVE",
"542 252 CURVE SMOOTH",
"564 252 OFFCURVE",
"592 261 OFFCURVE",
"614 285 CURVE",
"635 265 OFFCURVE",
"653 235 OFFCURVE",
"653 180 CURVE SMOOTH",
"653 -32 OFFCURVE",
"523 -257 OFFCURVE",
"287 -257 CURVE SMOOTH",
"202 -257 OFFCURVE",
"80 -208 OFFCURVE",
"80 -49 CURVE SMOOTH",
"80 52 OFFCURVE",
"117 155 OFFCURVE",
"153 258 CURVE",
"129 266 LINE",
"111 226 OFFCURVE",
"26 19 OFFCURVE",
"26 -138 CURVE SMOOTH",
"26 -292 OFFCURVE",
"115 -413 OFFCURVE",
"255 -413 CURVE SMOOTH"
);
}
);
width = 737;
}
);
note = QAFu1;
unicode = 066F;
},
{
color = 1;
glyphname = "kaf-ar";
lastChange = "2020-11-16 20:02:13 +0000";
layers = (
{
anchors = (
{
name = bottom;
position = "{300, -133}";
},
{
name = top;
position = "{317, 617}";
}
);
layerId = "6E34CE51-C086-4FF0-804E-D019E96D60E0";
paths = (
{
closed = 1;
nodes = (
"419 -2 OFFCURVE",
"506 62 OFFCURVE",
"535 93 CURVE SMOOTH",
"588 149 OFFCURVE",
"617 229 OFFCURVE",
"632 312 CURVE SMOOTH",
"641 364 OFFCURVE",
"646 393 OFFCURVE",
"647 457 CURVE SMOOTH",
"649 576 OFFCURVE",
"648 688 OFFCURVE",
"657 816 CURVE",
"634 827 LINE",
"609 782 LINE SMOOTH",
"585 739 OFFCURVE",
"578 706 OFFCURVE",
"579 641 CURVE SMOOTH",
"588 248 LINE",
"516 179 OFFCURVE",
"375 158 OFFCURVE",
"270 158 CURVE SMOOTH",
"125 158 OFFCURVE",
"82 220 OFFCURVE",
"82 269 CURVE SMOOTH",
"82 284 OFFCURVE",
"84 300 OFFCURVE",
"88 322 CURVE",
"61 322 LINE",
"49 264 OFFCURVE",
"36 181 OFFCURVE",
"36 136 CURVE SMOOTH",
"36 23 OFFCURVE",
"149 -2 OFFCURVE",
"249 -2 CURVE SMOOTH"
);
},
{
closed = 1;
nodes = (
"324 412 OFFCURVE",
"349 421 OFFCURVE",
"375 465 CURVE SMOOTH",
"385 482 OFFCURVE",
"402 496 OFFCURVE",
"418 496 CURVE SMOOTH",
"427 496 OFFCURVE",
"434 488 OFFCURVE",
"435 481 CURVE",
"444 476 LINE",
"458 484 OFFCURVE",
"475 502 OFFCURVE",
"475 523 CURVE SMOOTH",
"475 544 OFFCURVE",
"460 561 OFFCURVE",
"439 561 CURVE SMOOTH",
"374 561 OFFCURVE",
"374 477 OFFCURVE",
"308 477 CURVE SMOOTH",
"293 477 OFFCURVE",
"277 484 OFFCURVE",
"268 492 CURVE",
"255 466 LINE",
"264 434 OFFCURVE",
"278 412 OFFCURVE",
"308 412 CURVE SMOOTH"
);
}
);
width = 704;
}
);
unicode = 0643;
},
{
color = 1;
glyphname = KAFu1;
lastChange = "2020-11-16 20:04:07 +0000";
layers = (
{
anchors = (
{
name = bottom;
position = "{291, -167}";
},
{
name = top;
position = "{317, 370}";
}
);
backgroundImage = {
crop = "{{0, 0}, {378.72, 439.92}}";
imagePath = "../../../../_01_Calligraphic Models (Amir)/_03_03 Aug 2020/020.png";
locked = "1";
transform = "{3.5, 0, 0, 3.5, -6, -123}";
};
layerId = "6E34CE51-C086-4FF0-804E-D019E96D60E0";
paths = (
{
closed = 1;
nodes = (
"419 -2 OFFCURVE",
"506 62 OFFCURVE",
"535 93 CURVE SMOOTH",
"588 149 OFFCURVE",
"617 229 OFFCURVE",
"632 312 CURVE SMOOTH",
"641 364 OFFCURVE",
"646 393 OFFCURVE",
"647 457 CURVE SMOOTH",
"649 577 OFFCURVE",
"648 689 OFFCURVE",
"654 818 CURVE",
"691 859 OFFCURVE",
"719 878 OFFCURVE",
"758 904 CURVE SMOOTH",
"1121 1141 LINE SMOOTH",
"1175 1176 OFFCURVE",
"1202 1203 OFFCURVE",
"1225 1247 CURVE SMOOTH",
"1257 1309 LINE",
"1243 1319 LINE",
"1088 1190 OFFCURVE",
"897 1075 OFFCURVE",
"764 984 CURVE SMOOTH",
"716 951 OFFCURVE",
"681 918 OFFCURVE",
"656 873 CURVE SMOOTH",
"605 782 LINE SMOOTH",
"586 748 OFFCURVE",
"576 706 OFFCURVE",
"578 641 CURVE SMOOTH",
"588 248 LINE",
"516 179 OFFCURVE",
"375 158 OFFCURVE",
"270 158 CURVE SMOOTH",
"125 158 OFFCURVE",
"82 220 OFFCURVE",
"82 269 CURVE SMOOTH",
"82 284 OFFCURVE",
"84 300 OFFCURVE",
"88 322 CURVE",
"61 322 LINE",
"49 264 OFFCURVE",
"36 181 OFFCURVE",
"36 136 CURVE SMOOTH",
"36 23 OFFCURVE",
"149 -2 OFFCURVE",
"249 -2 CURVE SMOOTH"
);
}
);
width = 934;
}
);
note = KAFu1;
unicode = 06A9;
},
{
color = 1;
glyphname = GAFu1;
lastChange = "2020-11-16 20:04:07 +0000";
layers = (
{
anchors = (
{
name = bottom;
position = "{321, -149}";
},
{
name = top;
position = "{848, 1286}";
}
);
layerId = "6E34CE51-C086-4FF0-804E-D019E96D60E0";
paths = (
{
closed = 1;
nodes = (
"419 -2 OFFCURVE",
"506 62 OFFCURVE",
"535 93 CURVE SMOOTH",
"588 149 OFFCURVE",
"617 229 OFFCURVE",
"632 312 CURVE SMOOTH",
"641 364 OFFCURVE",
"646 393 OFFCURVE",
"647 457 CURVE SMOOTH",
"649 577 OFFCURVE",
"648 689 OFFCURVE",
"654 818 CURVE",
"691 859 OFFCURVE",
"719 878 OFFCURVE",
"758 904 CURVE SMOOTH",
"1121 1141 LINE SMOOTH",
"1175 1176 OFFCURVE",
"1202 1203 OFFCURVE",
"1225 1247 CURVE SMOOTH",
"1257 1309 LINE",
"1243 1319 LINE",
"1088 1190 OFFCURVE",
"897 1075 OFFCURVE",
"764 984 CURVE SMOOTH",
"716 951 OFFCURVE",
"681 918 OFFCURVE",
"656 873 CURVE SMOOTH",
"605 782 LINE SMOOTH",
"586 748 OFFCURVE",
"576 706 OFFCURVE",
"578 641 CURVE SMOOTH",
"588 248 LINE",
"516 179 OFFCURVE",
"375 158 OFFCURVE",
"270 158 CURVE SMOOTH",
"125 158 OFFCURVE",
"82 220 OFFCURVE",
"82 269 CURVE SMOOTH",
"82 284 OFFCURVE",
"84 300 OFFCURVE",
"88 322 CURVE",
"61 322 LINE",
"49 264 OFFCURVE",
"36 181 OFFCURVE",
"36 136 CURVE SMOOTH",
"36 23 OFFCURVE",
"149 -2 OFFCURVE",
"249 -2 CURVE SMOOTH"
);
},
{
closed = 1;
nodes = (
"769 1045 OFFCURVE",
"783 1058 OFFCURVE",
"809 1074 CURVE SMOOTH",
"839 1092 OFFCURVE",
"984 1181 OFFCURVE",
"1003 1196 CURVE SMOOTH",
"1043 1227 OFFCURVE",
"1059 1262 OFFCURVE",
"1069 1298 CURVE",
"1052 1307 LINE",
"1013 1266 OFFCURVE",
"957 1232 OFFCURVE",
"939 1219 CURVE SMOOTH",
"921 1206 OFFCURVE",
"809 1142 OFFCURVE",
"788 1120 CURVE SMOOTH",
"766 1097 OFFCURVE",
"743 1060 OFFCURVE",
"731 1034 CURVE",
"747 1026 LINE"
);
}
);
width = 934;
}
);
note = GAFu1;
unicode = 06AF;
},
{
color = 1;
glyphname = LAMu1;
lastChange = "2020-11-16 20:04:07 +0000";
layers = (
{
anchors = (
{
name = bottom;
position = "{326, -482}";
},
{
name = top;
position = "{347, 886}";
}
);
backgroundImage = {
crop = "{{0, 0}, {216, 415.92}}";
imagePath = "../../../../_01_Calligraphic Models (Amir)/_03_03 Aug 2020/022.png";
locked = "1";
transform = "{3.5, 0, 0, 3.5, -21, -436}";
};
layerId = "6E34CE51-C086-4FF0-804E-D019E96D60E0";
paths = (
{
closed = 1;
nodes = (
"361 -401 OFFCURVE",
"462 -355 OFFCURVE",
"542 -243 CURVE SMOOTH",
"581 -188 OFFCURVE",
"621 -117 OFFCURVE",
"645 -40 CURVE SMOOTH",
"671 46 OFFCURVE",
"681 139 OFFCURVE",
"686 221 CURVE SMOOTH",
"692 314 OFFCURVE",
"680 716 OFFCURVE",
"680 758 CURVE SMOOTH",
"680 817 OFFCURVE",
"681 895 OFFCURVE",
"682 974 CURVE",
"664 974 LINE",
"632 902 OFFCURVE",
"612 846 OFFCURVE",
"612 772 CURVE SMOOTH",
"612 683 OFFCURVE",
"626 597 OFFCURVE",
"635 403 CURVE SMOOTH",
"638 330 OFFCURVE",
"642 212 OFFCURVE",
"634 81 CURVE SMOOTH",
"626 -51 OFFCURVE",
"518 -249 OFFCURVE",
"289 -249 CURVE SMOOTH",
"142 -249 OFFCURVE",
"76 -154 OFFCURVE",
"76 -52 CURVE SMOOTH",
"76 63 OFFCURVE",
"116 170 OFFCURVE",
"159 263 CURVE",
"131 278 LINE",
"69 153 OFFCURVE",
"23 9 OFFCURVE",
"23 -121 CURVE SMOOTH",
"23 -250 OFFCURVE",
"81 -401 OFFCURVE",
"244 -401 CURVE SMOOTH"
);
}
);
width = 732;
}
);
note = LAMu1;
unicode = 0644;
},
{
color = 1;
glyphname = MIMu1;
lastChange = "2020-11-16 20:04:07 +0000";
layers = (
{
anchors = (
{
name = bottom;
position = "{353, -105}";
},
{
name = top;
position = "{303, 481}";
}
);
backgroundImage = {
crop = "{{0, 0}, {175.2, 358.32}}";
imagePath = "../../../../_01_Calligraphic Models (Amir)/_03_03 Aug 2020/017.png";
locked = "1";
transform = "{3.5, 0, 0, 3.5, -22, -774}";
};
layerId = "6E34CE51-C086-4FF0-804E-D019E96D60E0";
paths = (
{
closed = 1;
nodes = (
"78 -707 LINE",
"78 -537 OFFCURVE",
"78 -243 OFFCURVE",
"78 -205 CURVE SMOOTH",
"78 -139 OFFCURVE",
"85 10 OFFCURVE",
"113 64 CURVE SMOOTH",
"140 116 OFFCURVE",
"182 151 OFFCURVE",
"238 168 CURVE SMOOTH",
"280 181 OFFCURVE",
"395 211 OFFCURVE",
"416 217 CURVE SMOOTH",
"436 223 OFFCURVE",
"465 237 OFFCURVE",
"484 271 CURVE SMOOTH",
"523 339 LINE SMOOTH",
"543 374 OFFCURVE",
"527 404 OFFCURVE",
"492 413 CURVE SMOOTH",
"424 430 LINE SMOOTH",
"402 435 OFFCURVE",
"371 432 OFFCURVE",
"356 387 CURVE SMOOTH",
"327 303 LINE",
"356 330 LINE",
"316 310 OFFCURVE",
"257 283 OFFCURVE",
"220 255 CURVE SMOOTH",
"182 227 OFFCURVE",
"127 167 OFFCURVE",
"95 101 CURVE SMOOTH",
"34 -22 OFFCURVE",
"32 -185 OFFCURVE",
"32 -370 CURVE SMOOTH",
"32 -423 OFFCURVE",
"41 -600 OFFCURVE",
"47 -710 CURVE"
);
}
);
width = 559;
}
);
note = MIMu1;
unicode = 0645;
},
{
color = 1;
glyphname = NUNu1;
lastChange = "2020-11-16 20:04:07 +0000";
layers = (
{
anchors = (
{
name = bottom;
position = "{230, -531}";
},
{
name = centre;
position = "{374, 105}";
}
);
backgroundImage = {
crop = "{{0, 0}, {229.68, 309.6}}";
imagePath = "../../../../_01_Calligraphic Models (Amir)/_03_03 Aug 2020/014.png";
locked = "1";
transform = "{3.5, 0, 0, 3.5, -53, -465}";
};
layerId = "6E34CE51-C086-4FF0-804E-D019E96D60E0";
paths = (
{
closed = 1;
nodes = (
"395 -432 OFFCURVE",
"537 -328 OFFCURVE",
"621 -152 CURVE SMOOTH",
"646 -99 OFFCURVE",
"707 16 OFFCURVE",
"707 206 CURVE SMOOTH",
"707 314 OFFCURVE",
"702 406 OFFCURVE",
"704 529 CURVE",
"681 535 LINE",
"662 482 OFFCURVE",
"624 386 OFFCURVE",
"624 332 CURVE SMOOTH",
"624 285 OFFCURVE",
"647 175 OFFCURVE",
"647 114 CURVE SMOOTH",
"647 36 OFFCURVE",
"617 -71 OFFCURVE",
"568 -139 CURVE SMOOTH",
"512 -216 OFFCURVE",
"411 -281 OFFCURVE",
"307 -281 CURVE SMOOTH",
"204 -281 OFFCURVE",
"85 -236 OFFCURVE",
"85 -68 CURVE SMOOTH",
"85 20 OFFCURVE",
"109 111 OFFCURVE",
"161 235 CURVE",
"136 249 LINE",
"105 181 OFFCURVE",
"25 -24 OFFCURVE",
"25 -164 CURVE SMOOTH",
"25 -233 OFFCURVE",
"48 -432 OFFCURVE",
"252 -432 CURVE SMOOTH"
);
}
);
width = 757;
}
);
note = NUNu1;
unicode = 06BA;
},
{
color = 1;
glyphname = HAYCu1;
lastChange = "2020-11-16 20:04:07 +0000";
layers = (
{
anchors = (
{
name = bottom;
position = "{108, -135}";
},
{
name = top;
position = "{142, 446}";
}
);
backgroundImage = {
crop = "{{0, 0}, {72.48, 149.76}}";
imagePath = "../../../../_01_Calligraphic Models (Amir)/_03_03 Aug 2020/015.png";
locked = "1";
transform = "{3.5, 0, 0, 3.5, -7, -83}";
};
layerId = "6E34CE51-C086-4FF0-804E-D019E96D60E0";
paths = (
{
closed = 1;
nodes = (
"180 -5 OFFCURVE",
"214 140 OFFCURVE",
"214 239 CURVE SMOOTH",
"214 340 OFFCURVE",
"153 356 OFFCURVE",
"131 356 CURVE SMOOTH",
"109 356 OFFCURVE",
"90 354 OFFCURVE",
"69 335 CURVE",
"45 194 LINE",
"56 182 LINE",
"54 172 OFFCURVE",
"35 107 OFFCURVE",
"35 68 CURVE SMOOTH",
"35 23 OFFCURVE",
"49 -5 OFFCURVE",
"88 -5 CURVE SMOOTH"
);
},
{
closed = 1;
nodes = (
"80 82 OFFCURVE",
"56 114 OFFCURVE",
"78 190 CURVE",
"144 201 OFFCURVE",
"172 171 OFFCURVE",
"172 139 CURVE SMOOTH",
"172 107 OFFCURVE",
"141 82 OFFCURVE",
"112 82 CURVE SMOOTH"
);
}
);
width = 249;
}
);
note = HAYCu1;
unicode = 06C1;
},
{
color = 1;
glyphname = HAYAu1;
lastChange = "2020-11-16 20:04:07 +0000";
layers = (
{
anchors = (
{
name = bottom;
position = "{207, -93}";
},
{
name = top;
position = "{262, 469}";
}
);
backgroundImage = {
crop = "{{0, 0}, {161.28, 123.36}}";
imagePath = "../../../../_01_Calligraphic Models (Amir)/_03_03 Aug 2020/024.png";
locked = "1";
transform = "{3.5, 0, 0, 3.5, -33, -44}";
};
layerId = "6E34CE51-C086-4FF0-804E-D019E96D60E0";
paths = (
{
closed = 1;
nodes = (
"118 9 OFFCURVE",
"240 26 OFFCURVE",
"353 55 CURVE",
"402 89 OFFCURVE",
"462 178 OFFCURVE",
"462 235 CURVE SMOOTH",
"462 268 OFFCURVE",
"441 293 OFFCURVE",
"413 293 CURVE SMOOTH",
"385 293 OFFCURVE",
"362 285 OFFCURVE",
"334 245 CURVE",
"347 245 LINE",
"347 292 OFFCURVE",
"322 334 OFFCURVE",
"272 334 CURVE SMOOTH",
"239 334 OFFCURVE",
"200 314 OFFCURVE",
"173 251 CURVE SMOOTH",
"86 49 LINE",
"116 49 LINE",
"184 194 LINE SMOOTH",
"199 227 OFFCURVE",
"222 245 OFFCURVE",
"246 245 CURVE SMOOTH",
"271 245 OFFCURVE",
"288 234 OFFCURVE",
"288 207 CURVE SMOOTH",
"288 165 OFFCURVE",
"249 138 OFFCURVE",
"215 120 CURVE SMOOTH",
"9 14 LINE",
"14 -4 LINE"
);
},
{
closed = 1;
nodes = (
"330 209 LINE",
"310 185 LINE",
"337 207 OFFCURVE",
"402 243 OFFCURVE",
"432 178 CURVE",
"433 202 LINE",
"389 105 OFFCURVE",
"276 86 OFFCURVE",
"251 71 CURVE",
"259 59 LINE"
);
}
);
width = 493;
}
);
note = HAYAu1;
unicode = 06BE;
},
{
color = 1;
glyphname = VAOu1;
lastChange = "2020-11-16 20:04:07 +0000";
layers = (
{
anchors = (
{
name = bottom;
position = "{111, -96}";
},
{
name = top;
position = "{130, 517}";
}
);
backgroundImage = {
crop = "{{0, 0}, {83.52, 149.52}}";
imagePath = "../../../../_01_Calligraphic Models (Amir)/_03_03 Aug 2020/016.png";
locked = "1";
transform = "{3.5, 0, 0, 3.5, -34, -70}";
};
layerId = "6E34CE51-C086-4FF0-804E-D019E96D60E0";
paths = (
{
closed = 1;
nodes = (
"109 11 LINE SMOOTH",
"153 22 OFFCURVE",
"167 52 OFFCURVE",
"178 76 CURVE SMOOTH",
"186 93 OFFCURVE",
"202 128 OFFCURVE",
"209 165 CURVE SMOOTH",
"212 182 OFFCURVE",
"218 208 OFFCURVE",
"218 258 CURVE SMOOTH",
"218 318 OFFCURVE",
"186 417 OFFCURVE",
"130 417 CURVE SMOOTH",
"105 417 OFFCURVE",
"85 398 OFFCURVE",
"77 367 CURVE SMOOTH",
"40 220 LINE",
"41 177 OFFCURVE",
"74 160 OFFCURVE",
"111 160 CURVE SMOOTH",
"129 160 OFFCURVE",
"149 165 OFFCURVE",
"165 177 CURVE",
"170 170 OFFCURVE",
"175 163 OFFCURVE",
"178 154 CURVE",
"162 114 OFFCURVE",
"96 66 OFFCURVE",
"0 5 CURVE",
"7 -15 LINE"
);
}
);
width = 260;
}
);
note = VAOu1;
unicode = 0648;
},
{
color = 1;
glyphname = CH_YEu1;
lastChange = "2020-11-16 20:04:07 +0000";
layers = (
{
anchors = (
{
name = bottom;
position = "{242, -580}";
},
{
name = top;
position = "{159, 373}";
}
);
layerId = "6E34CE51-C086-4FF0-804E-D019E96D60E0";
paths = (
{
closed = 1;
nodes = (
"371 -478 OFFCURVE",
"468 -384 OFFCURVE",
"519 -293 CURVE SMOOTH",
"575 -193 OFFCURVE",
"600 -105 OFFCURVE",
"600 31 CURVE SMOOTH",
"600 90 OFFCURVE",
"569 141 OFFCURVE",
"530 141 CURVE SMOOTH",
"517 141 OFFCURVE",
"505 136 OFFCURVE",
"485 136 CURVE SMOOTH",
"470 136 OFFCURVE",
"424 146 OFFCURVE",
"424 194 CURVE SMOOTH",
"424 217 OFFCURVE",
"436 259 OFFCURVE",
"475 314 CURVE SMOOTH",
"503 353 OFFCURVE",
"542 387 OFFCURVE",
"570 387 CURVE SMOOTH",
"577 387 OFFCURVE",
"581 383 OFFCURVE",
"583 377 CURVE",
"604 377 LINE",
"644 500 LINE SMOOTH",
"650 518 OFFCURVE",
"644 548 OFFCURVE",
"615 548 CURVE SMOOTH",
"562 548 OFFCURVE",
"506 466 OFFCURVE",
"470 409 CURVE SMOOTH",
"432 349 OFFCURVE",
"374 206 OFFCURVE",
"374 112 CURVE SMOOTH",
"374 16 OFFCURVE",
"414 -27 OFFCURVE",
"475 -27 CURVE SMOOTH",
"505 -27 OFFCURVE",
"517 -20 OFFCURVE",
"539 -20 CURVE SMOOTH",
"552 -20 OFFCURVE",
"566 -30 OFFCURVE",
"566 -60 CURVE SMOOTH",
"566 -135 OFFCURVE",
"467 -324 OFFCURVE",
"267 -324 CURVE SMOOTH",
"212 -324 OFFCURVE",
"85 -309 OFFCURVE",
"85 -95 CURVE SMOOTH",
"85 -22 OFFCURVE",
"110 112 OFFCURVE",
"187 297 CURVE",
"163 308 LINE",
"85 146 OFFCURVE",
"28 -71 OFFCURVE",
"28 -216 CURVE SMOOTH",
"28 -285 OFFCURVE",
"63 -478 OFFCURVE",
"245 -478 CURVE SMOOTH"
);
}
);
width = 688;
}
);
note = CH_YEu1;
unicode = 06CC;
},
{
color = 1;
glyphname = BARI_YEu1;
lastChange = "2020-11-16 20:04:07 +0000";
layers = (
{
anchors = (
{
name = bottom;
position = "{323, -128}";
},
{
name = top;
position = "{365, 500}";
}
);
layerId = "6E34CE51-C086-4FF0-804E-D019E96D60E0";
paths = (
{
closed = 1;
nodes = (
"446 -8 OFFCURVE",
"655 12 OFFCURVE",
"824 52 CURVE",
"977 116 LINE",
"970 140 LINE",
"727 129 OFFCURVE",
"618 120 OFFCURVE",
"375 120 CURVE SMOOTH",
"188 120 OFFCURVE",
"140 134 OFFCURVE",
"114 178 CURVE",
"110 153 LINE",
"138 205 OFFCURVE",
"239 229 OFFCURVE",
"289 256 CURVE SMOOTH",
"356 293 OFFCURVE",
"380 344 OFFCURVE",
"397 391 CURVE",
"375 401 LINE",
"353 363 OFFCURVE",
"324 346 OFFCURVE",
"284 331 CURVE SMOOTH",
"179 291 OFFCURVE",
"145 253 OFFCURVE",
"128 236 CURVE SMOOTH",
"112 220 OFFCURVE",
"40 134 OFFCURVE",
"22 52 CURVE",
"38 -8 OFFCURVE",
"161 -8 OFFCURVE",
"225 -8 CURVE SMOOTH"
);
}
);
width = 995;
}
);
note = BARI_YEu1;
unicode = 06D2;
},
{
color = 1;
glyphname = LAM_ALIFu1;
lastChange = "2020-11-17 15:26:40 +0000";
layers = (
{
anchors = (
{
name = bottom;
position = "{242, -107}";
},
{
name = top;
position = "{306, 800}";
}
);
backgroundImage = {
crop = "{{0, 0}, {104.16, 233.52}}";
imagePath = "../../../../_01_Calligraphic Models (Amir)/_03_03 Aug 2020/029.png";
locked = "1";
transform = "{3.5, 0, 0, 3.5, -3, -49}";
};
layerId = "6E34CE51-C086-4FF0-804E-D019E96D60E0";
paths = (
{
closed = 1;
nodes = (
"207 -1 OFFCURVE",
"256 79 OFFCURVE",
"281 159 CURVE SMOOTH",
"306 239 OFFCURVE",
"313 359 OFFCURVE",
"313 382 CURVE SMOOTH",
"313 405 OFFCURVE",
"318 597 OFFCURVE",
"314 705 CURVE",
"294 705 LINE",
"269 633 OFFCURVE",
"242 544 OFFCURVE",
"242 499 CURVE SMOOTH",
"242 428 OFFCURVE",
"260 330 OFFCURVE",
"260 253 CURVE SMOOTH",
"260 186 OFFCURVE",
"208 89 OFFCURVE",
"119 89 CURVE SMOOTH",
"95 89 OFFCURVE",
"70 93 OFFCURVE",
"47 103 CURVE",
"40 87 LINE",
"57 43 OFFCURVE",
"82 -1 OFFCURVE",
"136 -1 CURVE SMOOTH"
);
},
{
closed = 1;
nodes = (
"128 148 OFFCURVE",
"161 239 OFFCURVE",
"161 369 CURVE SMOOTH",
"161 430 OFFCURVE",
"162 554 OFFCURVE",
"163 638 CURVE",
"144 638 LINE",
"110 550 OFFCURVE",
"95 478 OFFCURVE",
"95 440 CURVE SMOOTH",
"95 401 OFFCURVE",
"105 287 OFFCURVE",
"105 231 CURVE SMOOTH",
"105 178 OFFCURVE",
"91 133 OFFCURVE",
"70 81 CURVE",
"95 70 LINE"
);
}
);
width = 366;
}
);
unicode = FEFB;
},
{
color = 1;
glyphname = LAM_ALIFf1;
lastChange = "2020-11-17 15:26:46 +0000";
layers = (
{
anchors = (
{
name = bottom;
position = "{242, -107}";
},
{
name = entry;
position = "{378, 196}";
},
{
name = top;
position = "{306, 800}";
}
);
hints = (
{
horizontal = 1;
place = "{-11, 124}";
type = Stem;
},
{
place = "{257, 59}";
type = Stem;
}
);
layerId = "6E34CE51-C086-4FF0-804E-D019E96D60E0";
paths = (
{
closed = 1;
nodes = (
"207 -1 OFFCURVE",
"256 79 OFFCURVE",
"281 159 CURVE SMOOTH",
"306 239 OFFCURVE",
"313 359 OFFCURVE",
"313 382 CURVE SMOOTH",
"313 405 OFFCURVE",
"318 597 OFFCURVE",
"314 705 CURVE",
"294 705 LINE",
"269 633 OFFCURVE",
"242 544 OFFCURVE",
"242 499 CURVE SMOOTH",
"242 428 OFFCURVE",
"260 330 OFFCURVE",
"260 253 CURVE SMOOTH",
"260 186 OFFCURVE",
"208 89 OFFCURVE",
"119 89 CURVE SMOOTH",
"95 89 OFFCURVE",
"70 93 OFFCURVE",
"47 103 CURVE",
"40 87 LINE",
"57 43 OFFCURVE",
"82 -1 OFFCURVE",
"136 -1 CURVE SMOOTH"
);
},
{
closed = 1;
nodes = (
"128 148 OFFCURVE",
"161 239 OFFCURVE",
"161 369 CURVE SMOOTH",
"161 430 OFFCURVE",
"162 554 OFFCURVE",
"163 638 CURVE",
"144 638 LINE",
"110 550 OFFCURVE",
"95 478 OFFCURVE",
"95 440 CURVE SMOOTH",
"95 401 OFFCURVE",
"105 287 OFFCURVE",
"105 231 CURVE SMOOTH",
"105 178 OFFCURVE",
"91 133 OFFCURVE",
"70 81 CURVE",
"95 70 LINE"
);
},
{
closed = 1;
nodes = (
"408 119 OFFCURVE",
"446 156 OFFCURVE",
"445 204 CURVE SMOOTH",
"445 222 OFFCURVE",
"427 253 OFFCURVE",
"396 253 CURVE SMOOTH",
"344 253 OFFCURVE",
"313 268 OFFCURVE",
"313 382 CURVE",
"281 237 LINE",
"286 173 OFFCURVE",
"319 119 OFFCURVE",
"370 119 CURVE SMOOTH"
);
}
);
width = 445;
}
);
unicode = FEFC;
},
{
color = 9;
glyphname = ONE;
lastChange = "2020-11-16 20:04:07 +0000";
layers = (
{
anchors = (
{
name = bottom;
position = "{0, 0}";
},
{
name = top;
position = "{0, 0}";
}
);
background = {
paths = (
{
closed = 1;
nodes = (
"298 416 LINE",
"298 508 OFFCURVE",
"285 590 OFFCURVE",
"271 590 CURVE",
"268 590 OFFCURVE",
"268 590 OFFCURVE",
"263 584 CURVE",
"256 575 LINE",
"242 558 OFFCURVE",
"211 510 OFFCURVE",
"204 491 CURVE",
"201 486 OFFCURVE",
"200 483 OFFCURVE",
"200 481 CURVE",
"200 480 OFFCURVE",
"201 477 OFFCURVE",
"201 474 CURVE",
"204 462 LINE",
"207 450 OFFCURVE",
"211 420 OFFCURVE",
"214 380 CURVE",
"216 361 OFFCURVE",
"217 344 OFFCURVE",
"218 330 CURVE",
"222 227 LINE",
"223 175 LINE",
"223 71 LINE",
"221 38 LINE",
"221 27 OFFCURVE",
"220 20 OFFCURVE",
"219 17 CURVE",
"216 0 LINE",
"216 -4 LINE",
"217 -5 OFFCURVE",
"219 -6 OFFCURVE",
"221 -7 CURVE",
"223 -7 LINE",
"227 -7 OFFCURVE",
"230 -5 OFFCURVE",
"237 4 CURVE",
"246 16 LINE",
"248 18 OFFCURVE",
"252 24 OFFCURVE",
"257 33 CURVE",
"267 48 OFFCURVE",
"271 56 OFFCURVE",
"272 57 CURVE",
"277 66 OFFCURVE",
"284 81 OFFCURVE",
"287 89 CURVE",
"288 94 OFFCURVE",
"289 97 OFFCURVE",
"290 103 CURVE",
"292 120 OFFCURVE",
"293 135 OFFCURVE",
"295 177 CURVE",
"297 227 OFFCURVE",
"298 265 OFFCURVE",
"298 318 CURVE"
);
}
);
};
backgroundImage = {
crop = "{{0, 0}, {49.92, 191.28}}";
imagePath = "../../../../_01_Calligraphic Models (Amir)/_numbers/01.tif";
locked = "1";
transform = "{3.5, 0, 0, 3.5, 175, -45}";
};
layerId = "6E34CE51-C086-4FF0-804E-D019E96D60E0";
paths = (
{
closed = 1;
nodes = (
"260 1 LINE",
"282 100 LINE SMOOTH",
"292 143 OFFCURVE",
"293 168 OFFCURVE",
"291 240 CURVE SMOOTH",
"282 557 LINE",
"258 557 LINE",
"215 430 LINE SMOOTH",
"206 403 OFFCURVE",
"201 351 OFFCURVE",
"204 311 CURVE SMOOTH",
"231 1 LINE"
);
}
);
width = 500;
}
);
note = ONE;
unicode = 0031;
category = Number;
},
{
color = 9;
glyphname = NINE;
lastChange = "2020-11-16 20:04:07 +0000";
layers = (
{
anchors = (
{
name = bottom;
position = "{0, 0}";
},
{
name = top;
position = "{0, 0}";
}
);
backgroundImage = {
crop = "{{0, 0}, {85, 197.76}}";
imagePath = "../../../../_01_Calligraphic Models (Amir)/_numbers/09.tif";
locked = "1";
transform = "{3.5, 0, 0, 3.5, 84, -73}";
};
layerId = "6E34CE51-C086-4FF0-804E-D019E96D60E0";
paths = (
{
closed = 1;
nodes = (
"318 1 LINE",
"350 113 LINE SMOOTH",
"356 134 OFFCURVE",
"357 152 OFFCURVE",
"357 171 CURVE SMOOTH",
"354 462 LINE SMOOTH",
"353 544 OFFCURVE",
"328 592 OFFCURVE",
"271 592 CURVE SMOOTH",
"236 592 OFFCURVE",
"185 564 OFFCURVE",
"170 493 CURVE SMOOTH",
"135 331 LINE SMOOTH",
"117 249 OFFCURVE",
"140 179 OFFCURVE",
"214 179 CURVE SMOOTH",
"232 179 OFFCURVE",
"270 185 OFFCURVE",
"298 219 CURVE",
"276 239 LINE",
"298 1 LINE"
);
},
{
closed = 1;
nodes = (
"206 323 OFFCURVE",
"179 349 OFFCURVE",
"179 380 CURVE SMOOTH",
"179 411 OFFCURVE",
"206 437 OFFCURVE",
"240 437 CURVE SMOOTH",
"270 437 OFFCURVE",
"295 415 OFFCURVE",
"295 380 CURVE SMOOTH",
"295 345 OFFCURVE",
"269 323 OFFCURVE",
"239 323 CURVE SMOOTH"
);
}
);
width = 500;
}
);
note = NINE;
unicode = 0039;
category = Number;
},
{
glyphname = ABR_ONE;
lastChange = "2020-08-03 06:11:32 +0000";
layers = (
{
anchors = (
{
name = bottom;
position = "{0, 0}";
},
{
name = top;
position = "{0, 0}";
}
);
layerId = "6E34CE51-C086-4FF0-804E-D019E96D60E0";
paths = (
{
closed = 1;
nodes = (
"48 430 OFFCURVE",
"42 441 OFFCURVE",
"37 452 CURVE",
"31 467 LINE",
"29 472 OFFCURVE",
"28 476 OFFCURVE",
"27 478 CURVE",
"26 482 OFFCURVE",
"26 482 OFFCURVE",
"24 485 CURVE",
"22 485 OFFCURVE",
"21 482 OFFCURVE",
"17 473 CURVE",
"9 455 LINE",
"6 449 OFFCURVE",
"-2 424 OFFCURVE",
"-2 417 CURVE",
"-3 416 OFFCURVE",
"-3 414 OFFCURVE",
"-3 412 CURVE",
"-3 406 OFFCURVE",
"-2 400 OFFCURVE",
"0 394 CURVE",
"7 376 LINE",
"19 346 OFFCURVE",
"24 304 OFFCURVE",
"24 256 CURVE",
"24 231 LINE",
"23 213 LINE",
"23 193 LINE",
"22 191 OFFCURVE",
"22 190 OFFCURVE",
"22 189 CURVE",
"22 187 OFFCURVE",
"23 185 OFFCURVE",
"24 185 CURVE",
"26 185 OFFCURVE",
"28 188 OFFCURVE",
"31 194 CURVE",
"34 200 LINE",
"52 235 OFFCURVE",
"59 268 OFFCURVE",
"59 309 CURVE",
"59 315 OFFCURVE",
"59 317 OFFCURVE",
"58 334 CURVE",
"58 343 LINE",
"69 336 OFFCURVE",
"78 333 OFFCURVE",
"92 333 CURVE",
"129 333 OFFCURVE",
"178 353 OFFCURVE",
"204 377 CURVE",
"234 405 OFFCURVE",
"258 456 OFFCURVE",
"258 489 CURVE",
"258 519 OFFCURVE",
"239 539 OFFCURVE",
"211 539 CURVE",
"156 539 OFFCURVE",
"99 479 OFFCURVE",
"68 436 CURVE",
"64 430 OFFCURVE",
"62 426 OFFCURVE",
"59 416 CURVE"
);
},
{
closed = 1;
nodes = (
"102 453 OFFCURVE",
"145 482 OFFCURVE",
"176 482 CURVE",
"197 482 OFFCURVE",
"217 462 OFFCURVE",
"217 442 CURVE",
"217 413 OFFCURVE",
"135 402 OFFCURVE",
"113 402 CURVE",
"99 402 OFFCURVE",
"85 405 OFFCURVE",
"70 411 CURVE"
);
}
);
width = 280;
}
);
note = ABR_ONE;
unicode = 06F1;
},
{
glyphname = ABR_TWO;
lastChange = "2020-08-03 06:11:37 +0000";
layers = (
{
anchors = (
{
name = bottom;
position = "{0, 0}";
},
{
name = top;
position = "{0, 0}";
}
);
layerId = "6E34CE51-C086-4FF0-804E-D019E96D60E0";
paths = (
{
closed = 1;
nodes = (
"84 360 OFFCURVE",
"90 358 OFFCURVE",
"105 358 CURVE",
"144 358 OFFCURVE",
"193 380 OFFCURVE",
"220 409 CURVE",
"245 437 OFFCURVE",
"265 481 OFFCURVE",
"265 507 CURVE",
"265 541 OFFCURVE",
"244 562 OFFCURVE",
"212 562 CURVE",
"169 562 OFFCURVE",
"98 498 OFFCURVE",
"78 459 CURVE",
"70 444 LINE",
"59 453 OFFCURVE",
"50 469 OFFCURVE",
"37 508 CURVE",
"36 509 OFFCURVE",
"34 510 OFFCURVE",
"33 510 CURVE",
"32 508 OFFCURVE",
"31 507 OFFCURVE",
"31 505 CURVE",
"17 478 OFFCURVE",
"8 449 OFFCURVE",
"8 436 CURVE",
"8 432 OFFCURVE",
"9 426 OFFCURVE",
"11 421 CURVE",
"11 419 OFFCURVE",
"13 414 OFFCURVE",
"16 407 CURVE",
"32 363 OFFCURVE",
"35 323 OFFCURVE",
"35 276 CURVE",
"35 253 OFFCURVE",
"34 226 OFFCURVE",
"33 215 CURVE",
"32 214 LINE",
"32 211 OFFCURVE",
"33 209 OFFCURVE",
"35 209 CURVE",
"36 209 OFFCURVE",
"37 210 OFFCURVE",
"38 212 CURVE",
"39 213 OFFCURVE",
"40 215 OFFCURVE",
"41 218 CURVE",
"62 254 OFFCURVE",
"70 289 OFFCURVE",
"70 344 CURVE",
"70 353 OFFCURVE",
"70 356 OFFCURVE",
"69 366 CURVE"
);
},
{
closed = 1;
nodes = (
"176 631 LINE",
"163 633 OFFCURVE",
"146 644 OFFCURVE",
"123 668 CURVE",
"119 672 LINE",
"113 663 OFFCURVE",
"89 627 OFFCURVE",
"89 617 CURVE",
"89 603 OFFCURVE",
"121 581 OFFCURVE",
"134 581 CURVE",
"142 581 OFFCURVE",
"146 585 OFFCURVE",
"157 600 CURVE"
);
},
{
closed = 1;
nodes = (
"316 407 LINE",
"315 369 OFFCURVE",
"306 356 OFFCURVE",
"266 328 CURVE",
"205 288 LINE",
"187 276 OFFCURVE",
"159 256 OFFCURVE",
"145 245 CURVE",
"138 240 OFFCURVE",
"133 237 OFFCURVE",
"131 236 CURVE",
"128 233 OFFCURVE",
"126 231 OFFCURVE",
"126 229 CURVE",
"126 228 OFFCURVE",
"127 227 OFFCURVE",
"129 227 CURVE",
"134 227 LINE",
"135 228 OFFCURVE",
"137 228 OFFCURVE",
"139 228 CURVE",
"142 229 OFFCURVE",
"146 230 OFFCURVE",
"153 231 CURVE",
"163 233 OFFCURVE",
"171 235 OFFCURVE",
"177 236 CURVE",
"198 239 LINE",
"216 242 OFFCURVE",
"244 247 OFFCURVE",
"256 249 CURVE",
"293 257 OFFCURVE",
"308 273 OFFCURVE",
"322 308 CURVE",
"340 353 OFFCURVE",
"352 419 OFFCURVE",
"353 482 CURVE",
"353 502 LINE",
"353 519 OFFCURVE",
"355 536 OFFCURVE",
"356 544 CURVE",
"357 545 OFFCURVE",
"357 545 OFFCURVE",
"357 546 CURVE",
"357 548 OFFCURVE",
"356 549 OFFCURVE",
"355 549 CURVE",
"354 549 OFFCURVE",
"353 548 OFFCURVE",
"353 547 CURVE",
"352 546 LINE",
"351 545 OFFCURVE",
"347 539 OFFCURVE",
"343 533 CURVE",
"340 527 OFFCURVE",
"337 522 OFFCURVE",
"334 517 CURVE",
"322 494 OFFCURVE",
"319 483 OFFCURVE",
"318 453 CURVE"
);
},
{
closed = 1;
nodes = (
"119 482 OFFCURVE",
"156 507 OFFCURVE",
"186 507 CURVE",
"209 507 OFFCURVE",
"228 490 OFFCURVE",
"228 469 CURVE",
"228 439 OFFCURVE",
"150 427 OFFCURVE",
"127 427 CURVE",
"107 427 OFFCURVE",
"95 429 OFFCURVE",
"80 437 CURVE"
);
}
);
width = 379;
}
);
note = ABR_TWO;
unicode = 06F2;
},
{
glyphname = ABR_THREE;
lastChange = "2020-08-03 06:11:50 +0000";
layers = (
{
anchors = (
{
name = bottom;
position = "{0, 0}";
},
{
name = top;
position = "{0, 0}";
}
);
layerId = "6E34CE51-C086-4FF0-804E-D019E96D60E0";
paths = (
{
closed = 1;
nodes = (
"80 402 OFFCURVE",
"77 402 OFFCURVE",
"75 402 CURVE",
"52 402 OFFCURVE",
"43 413 OFFCURVE",
"27 458 CURVE",
"21 476 LINE",
"20 479 OFFCURVE",
"19 481 OFFCURVE",
"18 481 CURVE",
"17 481 OFFCURVE",
"16 479 OFFCURVE",
"14 476 CURVE",
"7 462 LINE",
"-1 447 OFFCURVE",
"-9 423 OFFCURVE",
"-9 414 CURVE",
"-9 409 OFFCURVE",
"-6 398 OFFCURVE",
"-2 388 CURVE",
"5 370 LINE",
"14 345 OFFCURVE",
"17 330 OFFCURVE",
"20 309 CURVE",
"20 303 OFFCURVE",
"21 295 OFFCURVE",
"22 283 CURVE",
"22 272 OFFCURVE",
"23 264 OFFCURVE",
"23 259 CURVE",
"23 190 LINE",
"23 185 OFFCURVE",
"24 182 OFFCURVE",
"27 182 CURVE",
"30 182 OFFCURVE",
"36 195 OFFCURVE",
"42 215 CURVE",
"52 245 OFFCURVE",
"55 263 OFFCURVE",
"56 291 CURVE",
"57 312 LINE",
"57 326 LINE",
"57 330 OFFCURVE",
"57 333 OFFCURVE",
"56 341 CURVE",
"65 338 OFFCURVE",
"68 337 OFFCURVE",
"76 337 CURVE",
"118 337 OFFCURVE",
"208 374 OFFCURVE",
"239 402 CURVE",
"249 413 OFFCURVE",
"260 433 OFFCURVE",
"270 461 CURVE",
"272 465 OFFCURVE",
"272 468 OFFCURVE",
"272 470 CURVE",
"272 472 OFFCURVE",
"272 472 OFFCURVE",
"271 472 CURVE",
"270 472 OFFCURVE",
"269 472 OFFCURVE",
"266 469 CURVE",
"239 446 OFFCURVE",
"201 429 OFFCURVE",
"174 429 CURVE",
"143 429 OFFCURVE",
"115 448 OFFCURVE",
"115 469 CURVE",
"115 484 OFFCURVE",
"132 494 OFFCURVE",
"155 494 CURVE",
"161 494 OFFCURVE",
"168 493 OFFCURVE",
"176 491 CURVE",
"190 488 LINE",
"193 487 OFFCURVE",
"196 487 OFFCURVE",
"199 487 CURVE",
"209 487 OFFCURVE",
"214 495 OFFCURVE",
"214 509 CURVE",
"214 531 OFFCURVE",
"201 544 OFFCURVE",
"179 544 CURVE",
"129 544 OFFCURVE",
"78 477 OFFCURVE",
"78 430 CURVE",
"78 421 OFFCURVE",
"80 415 OFFCURVE",
"84 403 CURVE"
);
}
);
width = 291;
}
);
note = ABR_THREE;
unicode = 06F3;
},
{
glyphname = ABR_FOUR;
lastChange = "2020-08-03 06:11:53 +0000";
layers = (
{
anchors = (
{
name = bottom;
position = "{0, 0}";
},
{
name = top;
position = "{0, 0}";
}
);
layerId = "6E34CE51-C086-4FF0-804E-D019E96D60E0";
paths = (
{
closed = 1;
nodes = (
"146 430 OFFCURVE",
"103 404 OFFCURVE",
"71 359 CURVE",
"48 326 OFFCURVE",
"28 269 OFFCURVE",
"28 232 CURVE",
"28 225 LINE",
"28 217 OFFCURVE",
"30 214 OFFCURVE",
"35 214 CURVE",
"40 214 OFFCURVE",
"42 217 OFFCURVE",
"43 227 CURVE",
"54 294 OFFCURVE",
"97 347 OFFCURVE",
"171 383 CURVE",
"211 403 LINE",
"221 408 OFFCURVE",
"225 411 OFFCURVE",
"226 411 CURVE",
"229 413 OFFCURVE",
"233 415 OFFCURVE",
"236 417 CURVE",
"245 423 OFFCURVE",
"254 431 OFFCURVE",
"262 442 CURVE",
"278 461 OFFCURVE",
"288 478 OFFCURVE",
"288 488 CURVE",
"288 522 OFFCURVE",
"172 526 OFFCURVE",
"150 526 CURVE",
"98 526 OFFCURVE",
"79 511 OFFCURVE",
"48 474 CURVE",
"41 466 OFFCURVE",
"37 460 OFFCURVE",
"34 455 CURVE",
"26 441 LINE",
"21 433 OFFCURVE",
"19 430 OFFCURVE",
"19 426 CURVE",
"19 422 OFFCURVE",
"22 419 OFFCURVE",
"26 419 CURVE",
"28 419 OFFCURVE",
"32 421 OFFCURVE",
"34 424 CURVE",
"43 433 LINE",
"62 454 OFFCURVE",
"82 464 OFFCURVE",
"107 464 CURVE",
"127 464 OFFCURVE",
"170 459 OFFCURVE",
"194 454 CURVE"
);
},
{
closed = 1;
nodes = (
"334 407 LINE",
"333 379 OFFCURVE",
"328 365 OFFCURVE",
"313 351 CURVE",
"300 340 OFFCURVE",
"283 327 OFFCURVE",
"256 309 CURVE",
"223 288 LINE",
"205 276 OFFCURVE",
"177 256 OFFCURVE",
"163 245 CURVE",
"156 240 OFFCURVE",
"151 237 OFFCURVE",
"149 236 CURVE",
"145 233 OFFCURVE",
"144 231 OFFCURVE",
"144 229 CURVE",
"144 228 OFFCURVE",
"145 227 OFFCURVE",
"147 227 CURVE",
"152 227 LINE",
"153 228 OFFCURVE",
"154 228 OFFCURVE",
"157 228 CURVE",
"160 229 OFFCURVE",
"164 230 OFFCURVE",
"171 231 CURVE",
"181 233 OFFCURVE",
"189 235 OFFCURVE",
"195 236 CURVE",
"216 239 LINE",
"234 242 OFFCURVE",
"262 247 OFFCURVE",
"274 249 CURVE",
"287 252 OFFCURVE",
"299 257 OFFCURVE",
"309 263 CURVE",
"357 296 OFFCURVE",
"369 431 OFFCURVE",
"370 482 CURVE",
"371 502 LINE",
"371 519 OFFCURVE",
"372 536 OFFCURVE",
"374 544 CURVE",
"374 545 OFFCURVE",
"374 545 OFFCURVE",
"375 546 CURVE",
"375 548 OFFCURVE",
"374 549 OFFCURVE",
"372 549 CURVE",
"371 548 OFFCURVE",
"371 548 OFFCURVE",
"370 547 CURVE",
"369 546 LINE",
"367 544 OFFCURVE",
"354 521 OFFCURVE",
"352 517 CURVE",
"340 494 OFFCURVE",
"337 483 OFFCURVE",
"336 453 CURVE"
);
}
);
width = 397;
}
);
note = ABR_FOUR;
unicode = 06F4;
},
{
color = 1;
glyphname = FULLPOINT;
lastChange = "2020-11-16 20:04:07 +0000";
layers = (
{
background = {
paths = (
{
closed = 1;
nodes = (
"97 128 LINE",
"96 127 OFFCURVE",
"95 127 OFFCURVE",
"94 126 CURVE",
"93 125 OFFCURVE",
"91 122 OFFCURVE",
"88 118 CURVE",
"82 109 LINE",
"72 96 OFFCURVE",
"68 87 OFFCURVE",
"68 82 CURVE",
"68 55 OFFCURVE",
"259 8 OFFCURVE",
"296 4 CURVE",
"314 2 OFFCURVE",
"347 0 OFFCURVE",
"364 0 CURVE",
"449 0 OFFCURVE",
"487 38 OFFCURVE",
"520 112 CURVE",
"530 132 LINE",
"532 136 OFFCURVE",
"533 139 OFFCURVE",
"535 146 CURVE",
"536 148 OFFCURVE",
"536 149 OFFCURVE",
"536 150 CURVE",
"536 152 OFFCURVE",
"535 153 OFFCURVE",
"534 153 CURVE",
"533 153 OFFCURVE",
"531 153 OFFCURVE",
"529 151 CURVE",
"526 149 LINE",
"516 144 OFFCURVE",
"508 141 OFFCURVE",
"492 138 CURVE",
"431 128 OFFCURVE",
"368 127 OFFCURVE",
"306 127 CURVE",
"189 127 LINE",
"172 127 OFFCURVE",
"154 127 OFFCURVE",
"134 128 CURVE"
);
}
);
};
layerId = "6E34CE51-C086-4FF0-804E-D019E96D60E0";
paths = (
{
closed = 1;
nodes = (
"97 128 CURVE",
"68 82 LINE",
"147 32 OFFCURVE",
"269 0 OFFCURVE",
"339 0 CURVE SMOOTH",
"416 0 OFFCURVE",
"474 10 OFFCURVE",
"530 132 CURVE",
"516 149 LINE",
"424 122 OFFCURVE",
"309 112 OFFCURVE"
);
}
);
width = 602;
}
);
note = FULLPOINT;
unicode = 06D4;
script = arabic;
category = Punctuation;
},
{
glyphname = DAMMA_TANWIN;
lastChange = "2020-08-02 12:29:42 +0000";
layers = (
{
anchors = (
{
name = bottom;
position = "{0, 0}";
},
{
name = top;
position = "{0, 0}";
}
);
layerId = "6E34CE51-C086-4FF0-804E-D019E96D60E0";
paths = (
{
closed = 1;
nodes = (
"125 247 OFFCURVE",
"56 214 OFFCURVE",
"0 208 CURVE",
"-5 207 OFFCURVE",
"-8 206 OFFCURVE",
"-8 204 CURVE",
"-8 203 OFFCURVE",
"-6 202 OFFCURVE",
"-2 200 CURVE",
"19 193 OFFCURVE",
"35 190 OFFCURVE",
"54 190 CURVE",
"151 190 OFFCURVE",
"252 306 OFFCURVE",
"252 400 CURVE",
"252 441 OFFCURVE",
"234 467 OFFCURVE",
"207 467 CURVE",
"155 467 OFFCURVE",
"101 392 OFFCURVE",
"101 342 CURVE",
"101 311 OFFCURVE",
"127 290 OFFCURVE",
"168 290 CURVE",
"170 290 OFFCURVE",
"171 290 OFFCURVE",
"175 291 CURVE"
);
},
{
closed = 1;
nodes = (
"33 334 OFFCURVE",
"16 350 OFFCURVE",
"16 376 CURVE",
"16 410 OFFCURVE",
"57 449 OFFCURVE",
"119 474 CURVE",
"128 478 OFFCURVE",
"130 478 OFFCURVE",
"136 482 CURVE",
"144 491 OFFCURVE",
"158 513 OFFCURVE",
"164 528 CURVE",
"166 532 LINE",
"167 533 OFFCURVE",
"167 534 OFFCURVE",
"167 535 CURVE",
"167 536 OFFCURVE",
"166 536 OFFCURVE",
"165 536 CURVE",
"163 536 OFFCURVE",
"146 529 OFFCURVE",
"130 522 CURVE",
"56 489 OFFCURVE",
"-29 418 OFFCURVE",
"-29 330 CURVE",
"-29 296 OFFCURVE",
"-5 267 OFFCURVE",
"23 267 CURVE",
"52 267 OFFCURVE",
"68 285 OFFCURVE",
"68 317 CURVE",
"68 324 OFFCURVE",
"68 326 OFFCURVE",
"65 331 CURVE"
);
},
{
closed = 1;
nodes = (
"208 345 LINE",
"171 345 OFFCURVE",
"140 363 OFFCURVE",
"140 386 CURVE",
"140 400 OFFCURVE",
"157 414 OFFCURVE",
"176 414 CURVE",
"200 414 OFFCURVE",
"217 392 OFFCURVE",
"217 359 CURVE",
"217 355 OFFCURVE",
"217 352 OFFCURVE",
"216 345 CURVE"
);
}
);
width = 277;
}
);
note = DAMMA_TANWIN;
category = Mark;
subCategory = Nonspacing;
},
{
color = 1;
glyphname = SHADDA_BELOW;
lastChange = "2020-11-15 20:11:19 +0000";
layers = (
{
anchors = (
{
name = bottom;
position = "{0, 0}";
},
{
name = top;
position = "{0, 0}";
}
);
background = {
paths = (
{
closed = 1;
nodes = (
"152 -107 OFFCURVE",
"163 -111 OFFCURVE",
"175 -111 CURVE",
"203 -111 OFFCURVE",
"222 -71 OFFCURVE",
"222 -13 CURVE",
"222 2 OFFCURVE",
"215 35 OFFCURVE",
"205 60 CURVE",
"202 69 OFFCURVE",
"200 72 OFFCURVE",
"199 72 CURVE",
"198 72 OFFCURVE",
"198 72 OFFCURVE",
"197 70 CURVE",
"197 69 OFFCURVE",
"197 69 OFFCURVE",
"196 68 CURVE",
"194 62 OFFCURVE",
"191 50 OFFCURVE",
"189 34 CURVE",
"188 30 OFFCURVE",
"187 25 OFFCURVE",
"187 21 CURVE",
"187 16 OFFCURVE",
"189 9 OFFCURVE",
"193 -6 CURVE",
"199 -28 LINE",
"199 -31 OFFCURVE",
"200 -33 OFFCURVE",
"200 -34 CURVE",
"200 -41 OFFCURVE",
"195 -44 OFFCURVE",
"187 -44 CURVE",
"166 -44 OFFCURVE",
"149 -24 OFFCURVE",
"149 -3 CURVE",
"143 20 LINE",
"140 32 OFFCURVE",
"139 35 OFFCURVE",
"135 35 CURVE",
"131 35 OFFCURVE",
"120 -4 OFFCURVE",
"120 -12 CURVE",
"120 -23 LINE",
"120 -45 OFFCURVE",
"109 -57 OFFCURVE",
"91 -57 CURVE",
"79 -57 OFFCURVE",
"72 -49 OFFCURVE",
"72 -36 CURVE",
"72 -23 LINE",
"74 -11 LINE",
"74 2 LINE",
"75 7 OFFCURVE",
"75 10 OFFCURVE",
"75 11 CURVE",
"75 19 LINE",
"76 20 LINE",
"76 24 OFFCURVE",
"74 27 OFFCURVE",
"71 27 CURVE",
"68 27 OFFCURVE",
"67 26 OFFCURVE",
"66 23 CURVE",
"65 22 OFFCURVE",
"64 21 OFFCURVE",
"63 18 CURVE",
"62 17 OFFCURVE",
"60 14 OFFCURVE",
"58 10 CURVE",
"53 0 LINE",
"48 -11 OFFCURVE",
"46 -20 OFFCURVE",
"45 -33 CURVE",
"42 -56 LINE",
"42 -62 OFFCURVE",
"41 -66 OFFCURVE",
"41 -70 CURVE",
"41 -107 OFFCURVE",
"56 -129 OFFCURVE",
"79 -129 CURVE",
"94 -129 OFFCURVE",
"110 -120 OFFCURVE",
"125 -103 CURVE",
"130 -97 OFFCURVE",
"130 -97 OFFCURVE",
"134 -94 CURVE"
);
}
);
};
components = (
{
name = SHADDA;
transform = "{1, 0, 0, 1, 0, -339}";
}
);
layerId = "6E34CE51-C086-4FF0-804E-D019E96D60E0";
width = 266;
}
);
note = SHADDA_BELOW;
category = Mark;
subCategory = Nonspacing;
},
{
glyphname = SHADDA_DAMMA;
lastChange = "2020-08-02 12:29:42 +0000";
layers = (
{
anchors = (
{
name = bottom;
position = "{0, 0}";
},
{
name = top;
position = "{0, 0}";
}
);
layerId = "6E34CE51-C086-4FF0-804E-D019E96D60E0";
paths = (
{
closed = 1;
nodes = (
"-31 389 LINE",
"-31 388 OFFCURVE",
"-31 388 OFFCURVE",
"-29 387 CURVE",
"-27 387 LINE",
"-26 387 OFFCURVE",
"-25 387 OFFCURVE",
"-23 386 CURVE",
"-18 386 OFFCURVE",
"-14 385 OFFCURVE",
"-9 384 CURVE",
"11 380 OFFCURVE",
"17 379 OFFCURVE",
"33 379 CURVE",
"88 379 OFFCURVE",
"148 413 OFFCURVE",
"185 452 CURVE",
"214 483 OFFCURVE",
"227 517 OFFCURVE",
"227 559 CURVE",
"227 601 OFFCURVE",
"211 626 OFFCURVE",
"182 626 CURVE",
"134 626 OFFCURVE",
"72 553 OFFCURVE",
"72 505 CURVE",
"72 476 OFFCURVE",
"94 459 OFFCURVE",
"137 456 CURVE",
"138 455 OFFCURVE",
"140 455 OFFCURVE",
"143 455 CURVE",
"133 448 OFFCURVE",
"123 443 OFFCURVE",
"105 435 CURVE",
"99 433 OFFCURVE",
"90 430 OFFCURVE",
"78 425 CURVE",
"44 411 OFFCURVE",
"6 400 OFFCURVE",
"-30 393 CURVE",
"-31 392 LINE"
);
},
{
closed = 1;
nodes = (
"42 228 OFFCURVE",
"57 206 OFFCURVE",
"79 206 CURVE",
"94 206 OFFCURVE",
"107 214 OFFCURVE",
"130 235 CURVE",
"135 239 LINE",
"153 227 OFFCURVE",
"165 223 OFFCURVE",
"175 223 CURVE",
"204 223 OFFCURVE",
"224 266 OFFCURVE",
"224 327 CURVE",
"224 339 OFFCURVE",
"218 366 OFFCURVE",
"211 386 CURVE",
"204 408 LINE",
"201 409 LINE",
"194 396 OFFCURVE",
"188 376 OFFCURVE",
"188 363 CURVE",
"188 350 OFFCURVE",
"193 327 OFFCURVE",
"199 308 CURVE",
"201 305 OFFCURVE",
"201 303 OFFCURVE",
"201 302 CURVE",
"201 294 OFFCURVE",
"196 290 OFFCURVE",
"188 290 CURVE",
"171 290 OFFCURVE",
"157 302 OFFCURVE",
"153 319 CURVE",
"151 329 OFFCURVE",
"151 329 OFFCURVE",
"149 335 CURVE",
"149 338 OFFCURVE",
"143 363 OFFCURVE",
"139 363 CURVE",
"137 363 OFFCURVE",
"135 361 OFFCURVE",
"134 358 CURVE",
"126 341 LINE",
"123 334 OFFCURVE",
"121 328 OFFCURVE",
"121 320 CURVE",
"120 300 OFFCURVE",
"120 296 OFFCURVE",
"115 290 CURVE",
"110 282 OFFCURVE",
"102 278 OFFCURVE",
"93 278 CURVE",
"79 278 OFFCURVE",
"73 284 OFFCURVE",
"73 298 CURVE",
"73 300 OFFCURVE",
"74 301 OFFCURVE",
"74 302 CURVE",
"75 309 LINE",
"75 320 LINE",
"76 330 LINE",
"76 338 LINE",
"75 348 LINE",
"75 353 LINE",
"75 354 OFFCURVE",
"74 355 OFFCURVE",
"72 355 CURVE",
"70 355 OFFCURVE",
"69 353 OFFCURVE",
"65 347 CURVE",
"59 335 LINE",
"48 317 OFFCURVE",
"42 292 OFFCURVE",
"42 262 CURVE"
);
},
{
closed = 1;
nodes = (
"113 563 OFFCURVE",
"138 574 OFFCURVE",
"152 574 CURVE",
"175 574 OFFCURVE",
"196 548 OFFCURVE",
"196 519 CURVE",
"196 517 OFFCURVE",
"195 515 OFFCURVE",
"195 514 CURVE",
"195 511 LINE",
"194 507 LINE",
"189 507 LINE",
"146 507 OFFCURVE",
"113 524 OFFCURVE",
"113 547 CURVE"
);
}
);
width = 267;
}
);
note = SHADDA_DAMMA;
category = Mark;
subCategory = Nonspacing;
},
{
glyphname = SHADDA_FATHA;
lastChange = "2020-08-02 12:29:42 +0000";
layers = (
{
anchors = (
{
name = bottom;
position = "{0, 0}";
},
{
name = top;
position = "{0, 0}";
}
);
layerId = "6E34CE51-C086-4FF0-804E-D019E96D60E0";
paths = (
{
closed = 1;
nodes = (
"144 233 LINE",
"154 227 OFFCURVE",
"167 223 OFFCURVE",
"175 223 CURVE",
"202 223 OFFCURVE",
"223 266 OFFCURVE",
"223 318 CURVE",
"223 333 OFFCURVE",
"220 353 OFFCURVE",
"214 372 CURVE",
"204 405 LINE",
"203 409 OFFCURVE",
"203 409 OFFCURVE",
"202 409 CURVE",
"200 409 OFFCURVE",
"197 404 OFFCURVE",
"193 394 CURVE",
"189 381 OFFCURVE",
"187 371 OFFCURVE",
"187 360 CURVE",
"187 358 OFFCURVE",
"187 356 OFFCURVE",
"188 353 CURVE",
"189 347 OFFCURVE",
"190 339 OFFCURVE",
"191 335 CURVE",
"198 309 LINE",
"200 304 OFFCURVE",
"200 303 OFFCURVE",
"200 301 CURVE",
"200 294 OFFCURVE",
"195 290 OFFCURVE",
"187 290 CURVE",
"168 290 OFFCURVE",
"154 303 OFFCURVE",
"150 326 CURVE",
"147 346 OFFCURVE",
"141 363 OFFCURVE",
"137 363 CURVE",
"131 363 OFFCURVE",
"119 327 OFFCURVE",
"119 320 CURVE",
"119 318 OFFCURVE",
"119 316 OFFCURVE",
"120 315 CURVE",
"120 308 LINE",
"120 293 OFFCURVE",
"107 278 OFFCURVE",
"93 278 CURVE",
"80 278 OFFCURVE",
"73 285 OFFCURVE",
"73 298 CURVE",
"73 310 LINE",
"74 317 OFFCURVE",
"74 321 OFFCURVE",
"74 324 CURVE",
"74 346 LINE",
"74 353 OFFCURVE",
"73 355 OFFCURVE",
"70 355 CURVE",
"61 355 OFFCURVE",
"45 306 OFFCURVE",
"44 297 CURVE",
"43 283 LINE",
"42 276 OFFCURVE",
"42 269 OFFCURVE",
"42 262 CURVE",
"42 225 OFFCURVE",
"55 206 OFFCURVE",
"81 206 CURVE",
"93 206 OFFCURVE",
"118 222 OFFCURVE",
"133 240 CURVE"
);
},
{
closed = 1;
nodes = (
"-5 353 LINE",
"-2 353 LINE",
"4 359 OFFCURVE",
"11 365 OFFCURVE",
"25 375 CURVE",
"54 396 OFFCURVE",
"87 413 OFFCURVE",
"119 430 CURVE",
"177 460 LINE",
"210 477 OFFCURVE",
"219 483 OFFCURVE",
"230 494 CURVE",
"239 504 OFFCURVE",
"245 516 OFFCURVE",
"252 535 CURVE",
"254 542 OFFCURVE",
"256 546 OFFCURVE",
"256 547 CURVE",
"257 550 OFFCURVE",
"257 552 OFFCURVE",
"257 553 CURVE",
"257 554 OFFCURVE",
"257 555 OFFCURVE",
"256 555 CURVE",
"255 555 OFFCURVE",
"254 554 OFFCURVE",
"253 553 CURVE",
"240 540 OFFCURVE",
"202 521 OFFCURVE",
"185 513 CURVE",
"156 499 LINE",
"91 466 OFFCURVE",
"39 436 OFFCURVE",
"23 421 CURVE",
"14 412 OFFCURVE",
"5 390 OFFCURVE",
"-3 358 CURVE"
);
}
);
width = 266;
}
);
note = SHADDA_FATHA;
category = Mark;
subCategory = Nonspacing;
},
{
glyphname = SHADDA_KASRA;
lastChange = "2020-08-02 12:29:42 +0000";
layers = (
{
anchors = (
{
name = bottom;
position = "{0, 0}";
},
{
name = top;
position = "{0, 0}";
}
);
layerId = "6E34CE51-C086-4FF0-804E-D019E96D60E0";
paths = (
{
closed = 1;
nodes = (
"133 352 LINE",
"139 349 LINE",
"151 344 OFFCURVE",
"156 342 OFFCURVE",
"164 342 CURVE",
"195 342 OFFCURVE",
"218 381 OFFCURVE",
"218 433 CURVE",
"218 443 OFFCURVE",
"216 465 OFFCURVE",
"212 474 CURVE",
"212 476 OFFCURVE",
"210 483 OFFCURVE",
"207 495 CURVE",
"202 513 LINE",
"201 516 OFFCURVE",
"200 518 OFFCURVE",
"200 519 CURVE",
"200 521 OFFCURVE",
"200 521 OFFCURVE",
"199 521 CURVE",
"197 520 OFFCURVE",
"197 519 OFFCURVE",
"196 517 CURVE",
"195 516 OFFCURVE",
"194 513 OFFCURVE",
"192 508 CURVE",
"187 493 LINE",
"185 487 OFFCURVE",
"184 479 OFFCURVE",
"184 473 CURVE",
"184 464 OFFCURVE",
"186 452 OFFCURVE",
"192 436 CURVE",
"195 428 OFFCURVE",
"196 424 OFFCURVE",
"196 422 CURVE",
"196 414 OFFCURVE",
"188 408 OFFCURVE",
"179 408 CURVE",
"162 408 OFFCURVE",
"150 419 OFFCURVE",
"146 439 CURVE",
"143 460 OFFCURVE",
"137 475 OFFCURVE",
"133 475 CURVE",
"127 475 OFFCURVE",
"117 442 OFFCURVE",
"116 435 CURVE",
"116 414 LINE",
"115 397 OFFCURVE",
"102 384 OFFCURVE",
"84 384 CURVE",
"73 384 OFFCURVE",
"67 391 OFFCURVE",
"67 405 CURVE",
"67 407 OFFCURVE",
"67 411 OFFCURVE",
"68 416 CURVE",
"70 426 OFFCURVE",
"70 431 OFFCURVE",
"70 437 CURVE",
"70 443 OFFCURVE",
"70 447 OFFCURVE",
"69 453 CURVE",
"69 455 OFFCURVE",
"69 455 OFFCURVE",
"68 457 CURVE",
"68 460 OFFCURVE",
"67 461 OFFCURVE",
"66 461 CURVE",
"63 461 OFFCURVE",
"54 448 OFFCURVE",
"48 433 CURVE",
"41 417 OFFCURVE",
"37 392 OFFCURVE",
"37 369 CURVE",
"37 333 OFFCURVE",
"50 314 OFFCURVE",
"75 314 CURVE",
"86 314 OFFCURVE",
"106 325 OFFCURVE",
"119 338 CURVE"
);
},
{
closed = 1;
nodes = (
"262 343 LINE",
"256 337 OFFCURVE",
"249 332 OFFCURVE",
"225 319 CURVE",
"205 307 LINE",
"149 278 LINE",
"120 264 OFFCURVE",
"110 258 OFFCURVE",
"96 251 CURVE",
"69 234 LINE",
"56 227 OFFCURVE",
"49 223 OFFCURVE",
"47 222 CURVE",
"44 220 OFFCURVE",
"39 216 OFFCURVE",
"35 212 CURVE",
"31 209 OFFCURVE",
"28 207 OFFCURVE",
"26 204 CURVE",
"14 189 OFFCURVE",
"5 156 OFFCURVE",
"1 138 CURVE",
"4 138 OFFCURVE",
"4 139 OFFCURVE",
"6 140 CURVE",
"8 143 LINE",
"21 156 OFFCURVE",
"61 182 OFFCURVE",
"93 199 CURVE",
"117 211 LINE",
"149 229 LINE",
"175 242 LINE",
"220 268 LINE",
"234 277 OFFCURVE",
"246 292 OFFCURVE",
"253 310 CURVE",
"262 335 LINE",
"263 341 LINE"
);
}
);
width = 267;
}
);
note = SHADDA_KASRA;
category = Mark;
subCategory = Nonspacing;
},
{
glyphname = SHADDA_LONG_A;
lastChange = "2020-08-02 12:29:42 +0000";
layers = (
{
anchors = (
{
name = bottom;
position = "{0, 0}";
},
{
name = top;
position = "{0, 0}";
}
);
layerId = "6E34CE51-C086-4FF0-804E-D019E96D60E0";
paths = (
{
closed = 1;
nodes = (
"149 229 OFFCURVE",
"165 222 OFFCURVE",
"176 222 CURVE",
"204 222 OFFCURVE",
"225 266 OFFCURVE",
"225 325 CURVE",
"225 330 OFFCURVE",
"224 334 OFFCURVE",
"223 341 CURVE",
"220 354 OFFCURVE",
"217 365 OFFCURVE",
"216 371 CURVE",
"204 407 LINE",
"204 409 OFFCURVE",
"203 410 OFFCURVE",
"202 410 CURVE",
"200 410 OFFCURVE",
"200 408 OFFCURVE",
"197 402 CURVE",
"192 389 OFFCURVE",
"188 374 OFFCURVE",
"188 363 CURVE",
"188 352 OFFCURVE",
"191 336 OFFCURVE",
"197 315 CURVE",
"200 306 OFFCURVE",
"200 303 OFFCURVE",
"200 300 CURVE",
"200 295 OFFCURVE",
"195 290 OFFCURVE",
"188 290 CURVE",
"170 290 OFFCURVE",
"156 302 OFFCURVE",
"152 323 CURVE",
"148 345 OFFCURVE",
"142 363 OFFCURVE",
"138 363 CURVE",
"136 363 OFFCURVE",
"134 361 OFFCURVE",
"130 352 CURVE",
"130 350 OFFCURVE",
"128 347 OFFCURVE",
"126 343 CURVE",
"122 334 OFFCURVE",
"120 325 OFFCURVE",
"120 320 CURVE",
"120 315 LINE",
"120 292 OFFCURVE",
"110 278 OFFCURVE",
"93 278 CURVE",
"79 278 OFFCURVE",
"72 286 OFFCURVE",
"72 301 CURVE",
"72 305 LINE",
"74 320 LINE",
"74 325 OFFCURVE",
"75 332 OFFCURVE",
"75 339 CURVE",
"75 352 OFFCURVE",
"74 356 OFFCURVE",
"71 356 CURVE",
"70 356 OFFCURVE",
"69 355 OFFCURVE",
"66 350 CURVE",
"60 342 OFFCURVE",
"54 329 OFFCURVE",
"49 316 CURVE",
"44 300 OFFCURVE",
"42 285 OFFCURVE",
"42 260 CURVE",
"42 227 OFFCURVE",
"57 206 OFFCURVE",
"80 206 CURVE",
"94 206 OFFCURVE",
"120 222 OFFCURVE",
"134 241 CURVE"
);
},
{
closed = 1;
nodes = (
"134 636 LINE",
"125 623 OFFCURVE",
"114 605 OFFCURVE",
"107 589 CURVE",
"106 588 OFFCURVE",
"106 587 OFFCURVE",
"106 586 CURVE",
"106 585 OFFCURVE",
"106 583 OFFCURVE",
"107 579 CURVE",
"107 572 LINE",
"110 553 LINE",
"112 532 OFFCURVE",
"114 485 OFFCURVE",
"114 452 CURVE",
"114 439 OFFCURVE",
"114 428 OFFCURVE",
"113 417 CURVE",
"112 403 OFFCURVE",
"110 393 OFFCURVE",
"109 390 CURVE",
"109 388 LINE",
"109 387 OFFCURVE",
"111 386 OFFCURVE",
"115 386 CURVE",
"159 445 OFFCURVE",
"161 480 OFFCURVE",
"161 556 CURVE",
"161 567 OFFCURVE",
"161 579 OFFCURVE",
"160 591 CURVE",
"159 623 LINE",
"156 657 LINE",
"156 659 LINE",
"154 660 OFFCURVE",
"154 660 OFFCURVE",
"153 661 CURVE"
);
}
);
width = 267;
}
);
note = SHADDA_LONG_A;
category = Mark;
subCategory = Nonspacing;
},
{
glyphname = SHA_DAMMA_TAN;
lastChange = "2020-08-02 12:29:42 +0000";
layers = (
{
anchors = (
{
name = bottom;
position = "{0, 0}";
},
{
name = top;
position = "{0, 0}";
}
);
layerId = "6E34CE51-C086-4FF0-804E-D019E96D60E0";
paths = (
{
closed = 1;
nodes = (
"182 462 LINE",
"179 460 OFFCURVE",
"176 458 OFFCURVE",
"175 457 CURVE",
"174 457 OFFCURVE",
"171 455 OFFCURVE",
"166 452 CURVE",
"144 438 LINE",
"106 416 OFFCURVE",
"55 397 OFFCURVE",
"11 391 CURVE",
"1 390 OFFCURVE",
"-2 389 OFFCURVE",
"-2 387 CURVE",
"-2 386 OFFCURVE",
"-2 385 OFFCURVE",
"0 384 CURVE",
"4 383 LINE",
"20 377 OFFCURVE",
"41 374 OFFCURVE",
"58 374 CURVE",
"93 374 OFFCURVE",
"145 395 OFFCURVE",
"185 427 CURVE",
"233 464 OFFCURVE",
"261 517 OFFCURVE",
"261 568 CURVE",
"261 610 OFFCURVE",
"244 634 OFFCURVE",
"215 634 CURVE",
"166 634 OFFCURVE",
"110 563 OFFCURVE",
"110 514 CURVE",
"110 486 OFFCURVE",
"139 462 OFFCURVE",
"176 462 CURVE"
);
},
{
closed = 1;
nodes = (
"78 481 OFFCURVE",
"77 481 OFFCURVE",
"76 482 CURVE",
"47 486 OFFCURVE",
"30 504 OFFCURVE",
"30 531 CURVE",
"30 576 OFFCURVE",
"88 618 OFFCURVE",
"126 633 CURVE",
"127 634 OFFCURVE",
"128 635 OFFCURVE",
"128 636 CURVE",
"129 637 OFFCURVE",
"130 640 OFFCURVE",
"133 644 CURVE",
"135 648 OFFCURVE",
"137 652 OFFCURVE",
"140 657 CURVE",
"144 662 OFFCURVE",
"146 666 OFFCURVE",
"147 668 CURVE",
"152 677 LINE",
"153 679 OFFCURVE",
"154 681 OFFCURVE",
"154 682 CURVE",
"154 683 OFFCURVE",
"153 684 OFFCURVE",
"151 684 CURVE",
"148 684 OFFCURVE",
"143 681 OFFCURVE",
"132 676 CURVE",
"101 658 OFFCURVE",
"91 652 OFFCURVE",
"71 636 CURVE",
"22 596 OFFCURVE",
"-11 541 OFFCURVE",
"-11 498 CURVE",
"-11 460 OFFCURVE",
"11 433 OFFCURVE",
"41 433 CURVE",
"63 433 OFFCURVE",
"81 452 OFFCURVE",
"81 475 CURVE",
"81 477 OFFCURVE",
"80 478 OFFCURVE",
"80 481 CURVE"
);
},
{
closed = 1;
nodes = (
"142 238 LINE",
"166 226 OFFCURVE",
"174 222 OFFCURVE",
"184 222 CURVE",
"211 222 OFFCURVE",
"233 266 OFFCURVE",
"233 322 CURVE",
"233 336 OFFCURVE",
"229 353 OFFCURVE",
"219 387 CURVE",
"217 393 OFFCURVE",
"216 397 OFFCURVE",
"216 400 CURVE",
"215 404 OFFCURVE",
"214 405 OFFCURVE",
"213 405 CURVE",
"212 405 OFFCURVE",
"212 405 OFFCURVE",
"211 404 CURVE",
"211 403 OFFCURVE",
"211 403 OFFCURVE",
"210 402 CURVE",
"210 401 OFFCURVE",
"208 397 OFFCURVE",
"206 391 CURVE",
"204 386 OFFCURVE",
"203 383 OFFCURVE",
"203 381 CURVE",
"200 372 OFFCURVE",
"198 361 OFFCURVE",
"198 353 CURVE",
"198 345 OFFCURVE",
"202 328 OFFCURVE",
"208 310 CURVE",
"209 307 OFFCURVE",
"210 306 OFFCURVE",
"210 305 CURVE",
"210 304 OFFCURVE",
"211 302 OFFCURVE",
"211 301 CURVE",
"211 300 LINE",
"211 293 OFFCURVE",
"206 290 OFFCURVE",
"195 290 CURVE",
"179 290 OFFCURVE",
"166 301 OFFCURVE",
"163 318 CURVE",
"157 344 OFFCURVE",
"151 362 OFFCURVE",
"148 362 CURVE",
"147 362 OFFCURVE",
"146 362 OFFCURVE",
"145 361 CURVE",
"143 358 LINE",
"135 350 OFFCURVE",
"129 327 OFFCURVE",
"129 309 CURVE",
"129 303 LINE",
"129 289 OFFCURVE",
"116 277 OFFCURVE",
"101 277 CURVE",
"90 277 OFFCURVE",
"82 284 OFFCURVE",
"82 292 CURVE",
"82 293 OFFCURVE",
"82 295 OFFCURVE",
"83 297 CURVE",
"83 304 LINE",
"85 323 LINE",
"84 331 LINE",
"84 344 LINE",
"84 347 OFFCURVE",
"83 348 OFFCURVE",
"81 348 CURVE",
"79 348 OFFCURVE",
"78 347 OFFCURVE",
"73 341 CURVE",
"68 331 LINE",
"56 312 OFFCURVE",
"51 292 OFFCURVE",
"51 262 CURVE",
"51 226 OFFCURVE",
"65 206 OFFCURVE",
"89 206 CURVE",
"99 206 OFFCURVE",
"118 216 OFFCURVE",
"129 226 CURVE"
);
},
{
closed = 1;
nodes = (
"228 516 LINE",
"222 516 LINE",
"178 516 OFFCURVE",
"149 532 OFFCURVE",
"149 555 CURVE",
"149 570 OFFCURVE",
"167 583 OFFCURVE",
"186 583 CURVE",
"208 583 OFFCURVE",
"229 558 OFFCURVE",
"229 532 CURVE",
"229 529 OFFCURVE",
"229 526 OFFCURVE",
"228 522 CURVE"
);
}
);
width = 285;
}
);
note = SHA_DAMMA_TAN;
category = Mark;
subCategory = Nonspacing;
},
{
glyphname = SHA_FATHA_TAN;
lastChange = "2020-08-02 12:29:42 +0000";
layers = (
{
anchors = (
{
name = bottom;
position = "{0, 0}";
},
{
name = top;
position = "{0, 0}";
}
);
layerId = "6E34CE51-C086-4FF0-804E-D019E96D60E0";
paths = (
{
closed = 1;
nodes = (
"95 206 OFFCURVE",
"119 222 OFFCURVE",
"134 240 CURVE",
"149 232 LINE",
"159 226 OFFCURVE",
"169 223 OFFCURVE",
"177 223 CURVE",
"201 223 OFFCURVE",
"224 269 OFFCURVE",
"224 317 CURVE",
"224 321 OFFCURVE",
"223 331 OFFCURVE",
"222 342 CURVE",
"221 348 OFFCURVE",
"220 352 OFFCURVE",
"219 356 CURVE",
"204 407 LINE",
"203 409 OFFCURVE",
"203 410 OFFCURVE",
"202 410 CURVE",
"200 410 OFFCURVE",
"200 409 OFFCURVE",
"197 403 CURVE",
"191 386 OFFCURVE",
"188 373 OFFCURVE",
"188 363 CURVE",
"188 350 LINE",
"192 332 LINE",
"193 330 OFFCURVE",
"194 326 OFFCURVE",
"195 320 CURVE",
"199 307 LINE",
"200 304 OFFCURVE",
"200 302 OFFCURVE",
"200 301 CURVE",
"200 295 OFFCURVE",
"196 291 OFFCURVE",
"190 291 CURVE",
"171 291 OFFCURVE",
"157 301 OFFCURVE",
"153 317 CURVE",
"148 340 LINE",
"146 353 OFFCURVE",
"141 363 OFFCURVE",
"138 363 CURVE",
"137 363 OFFCURVE",
"136 362 OFFCURVE",
"135 361 CURVE",
"131 354 LINE",
"124 343 OFFCURVE",
"120 327 OFFCURVE",
"120 314 CURVE",
"120 306 LINE",
"120 291 OFFCURVE",
"107 278 OFFCURVE",
"93 278 CURVE",
"79 278 OFFCURVE",
"73 285 OFFCURVE",
"73 299 CURVE",
"73 302 OFFCURVE",
"73 305 OFFCURVE",
"74 308 CURVE",
"74 315 LINE",
"75 323 LINE",
"75 341 LINE",
"74 345 LINE",
"74 347 LINE",
"73 348 OFFCURVE",
"73 348 OFFCURVE",
"72 348 CURVE",
"70 348 OFFCURVE",
"69 347 OFFCURVE",
"67 344 CURVE",
"49 326 OFFCURVE",
"41 285 OFFCURVE",
"41 261 CURVE",
"41 228 OFFCURVE",
"57 206 OFFCURVE",
"81 206 CURVE"
);
},
{
closed = 1;
nodes = (
"0 432 LINE",
"12 441 LINE",
"25 452 OFFCURVE",
"29 456 OFFCURVE",
"41 463 CURVE",
"55 470 OFFCURVE",
"69 478 OFFCURVE",
"82 487 CURVE",
"157 525 LINE",
"188 541 OFFCURVE",
"210 554 OFFCURVE",
"221 563 CURVE",
"229 570 OFFCURVE",
"232 574 OFFCURVE",
"239 590 CURVE",
"247 607 LINE",
"251 617 OFFCURVE",
"252 619 OFFCURVE",
"255 628 CURVE",
"253 629 LINE",
"237 617 LINE",
"231 612 OFFCURVE",
"213 602 OFFCURVE",
"196 594 CURVE",
"113 552 LINE",
"58 520 LINE",
"47 514 OFFCURVE",
"41 511 OFFCURVE",
"39 509 CURVE",
"35 507 OFFCURVE",
"32 504 OFFCURVE",
"28 500 CURVE",
"15 481 OFFCURVE",
"4 454 OFFCURVE",
"-1 432 CURVE"
);
},
{
closed = 1;
nodes = (
"2 338 LINE",
"18 356 OFFCURVE",
"41 371 OFFCURVE",
"62 382 CURVE",
"70 387 OFFCURVE",
"76 390 OFFCURVE",
"79 392 CURVE",
"188 450 LINE",
"205 460 LINE",
"222 469 OFFCURVE",
"223 470 OFFCURVE",
"230 480 CURVE",
"234 487 OFFCURVE",
"253 525 OFFCURVE",
"253 531 CURVE",
"254 533 OFFCURVE",
"255 534 OFFCURVE",
"255 535 CURVE",
"255 536 OFFCURVE",
"254 537 OFFCURVE",
"253 537 CURVE",
"252 537 OFFCURVE",
"252 537 OFFCURVE",
"251 536 CURVE",
"246 532 LINE",
"235 523 OFFCURVE",
"230 520 OFFCURVE",
"211 510 CURVE",
"185 495 LINE",
"178 491 OFFCURVE",
"166 485 OFFCURVE",
"151 477 CURVE",
"128 466 OFFCURVE",
"49 428 OFFCURVE",
"30 409 CURVE",
"28 407 OFFCURVE",
"26 404 OFFCURVE",
"24 400 CURVE",
"17 388 OFFCURVE",
"6 361 OFFCURVE",
"-1 341 CURVE"
);
}
);
width = 267;
}
);
note = SHA_FATHA_TAN;
category = Mark;
subCategory = Nonspacing;
},
{
glyphname = SHA_KASRA_TAN;
lastChange = "2020-08-02 12:29:42 +0000";
layers = (
{
anchors = (
{
name = bottom;
position = "{0, 0}";
},
{
name = top;
position = "{0, 0}";
}
);
layerId = "6E34CE51-C086-4FF0-804E-D019E96D60E0";
paths = (
{
closed = 1;
nodes = (
"133 434 LINE",
"145 428 OFFCURVE",
"156 424 OFFCURVE",
"166 424 CURVE",
"196 424 OFFCURVE",
"219 465 OFFCURVE",
"219 516 CURVE",
"219 525 LINE",
"219 529 OFFCURVE",
"218 533 OFFCURVE",
"218 535 CURVE",
"218 536 OFFCURVE",
"217 540 OFFCURVE",
"216 548 CURVE",
"213 561 LINE",
"211 568 OFFCURVE",
"210 574 OFFCURVE",
"207 585 CURVE",
"204 593 OFFCURVE",
"203 596 OFFCURVE",
"202 601 CURVE",
"202 603 OFFCURVE",
"201 604 OFFCURVE",
"200 604 CURVE",
"199 603 OFFCURVE",
"199 603 OFFCURVE",
"199 602 CURVE",
"196 596 LINE",
"190 583 OFFCURVE",
"184 563 OFFCURVE",
"184 553 CURVE",
"184 551 OFFCURVE",
"185 549 OFFCURVE",
"186 543 CURVE",
"187 538 OFFCURVE",
"187 538 OFFCURVE",
"187 535 CURVE",
"188 534 OFFCURVE",
"189 531 OFFCURVE",
"190 525 CURVE",
"192 520 OFFCURVE",
"193 516 OFFCURVE",
"193 515 CURVE",
"197 506 LINE",
"197 503 LINE",
"197 497 OFFCURVE",
"188 491 OFFCURVE",
"179 491 CURVE",
"163 491 OFFCURVE",
"151 502 OFFCURVE",
"148 518 CURVE",
"146 527 LINE",
"145 529 OFFCURVE",
"145 532 OFFCURVE",
"143 537 CURVE",
"139 549 LINE",
"138 552 OFFCURVE",
"138 554 OFFCURVE",
"136 557 CURVE",
"132 557 LINE",
"131 556 LINE",
"122 543 OFFCURVE",
"117 529 OFFCURVE",
"117 517 CURVE",
"117 503 LINE",
"116 496 LINE",
"116 480 OFFCURVE",
"102 467 OFFCURVE",
"85 467 CURVE",
"73 467 OFFCURVE",
"68 474 OFFCURVE",
"68 491 CURVE",
"68 495 LINE",
"69 498 OFFCURVE",
"69 498 OFFCURVE",
"69 503 CURVE",
"70 508 OFFCURVE",
"71 515 OFFCURVE",
"71 523 CURVE",
"71 526 OFFCURVE",
"71 528 OFFCURVE",
"70 530 CURVE",
"70 538 LINE",
"69 542 OFFCURVE",
"68 543 OFFCURVE",
"67 543 CURVE",
"65 543 OFFCURVE",
"58 533 OFFCURVE",
"51 520 CURVE",
"43 504 OFFCURVE",
"37 473 OFFCURVE",
"37 449 CURVE",
"37 416 OFFCURVE",
"52 395 OFFCURVE",
"76 395 CURVE",
"87 395 OFFCURVE",
"103 405 OFFCURVE",
"121 423 CURVE"
);
},
{
closed = 1;
nodes = (
"5 233 LINE",
"8 236 OFFCURVE",
"9 237 OFFCURVE",
"13 240 CURVE",
"24 250 OFFCURVE",
"35 258 OFFCURVE",
"47 266 CURVE",
"66 277 LINE",
"76 283 OFFCURVE",
"82 287 OFFCURVE",
"83 287 CURVE",
"189 342 LINE",
"199 347 OFFCURVE",
"210 354 OFFCURVE",
"220 360 CURVE",
"222 362 OFFCURVE",
"225 363 OFFCURVE",
"227 365 CURVE",
"244 382 OFFCURVE",
"253 406 OFFCURVE",
"260 429 CURVE",
"259 431 LINE",
"258 431 LINE",
"249 424 LINE",
"243 419 OFFCURVE",
"230 411 OFFCURVE",
"208 400 CURVE",
"196 393 OFFCURVE",
"183 386 OFFCURVE",
"171 380 CURVE",
"147 369 LINE",
"79 333 LINE",
"62 324 OFFCURVE",
"44 313 OFFCURVE",
"38 307 CURVE",
"32 301 OFFCURVE",
"28 296 OFFCURVE",
"23 285 CURVE",
"19 278 OFFCURVE",
"16 269 OFFCURVE",
"13 261 CURVE",
"10 255 OFFCURVE",
"9 251 OFFCURVE",
"8 248 CURVE",
"6 243 OFFCURVE",
"5 240 OFFCURVE",
"4 233 CURVE"
);
},
{
closed = 1;
nodes = (
"6 140 LINE",
"21 153 LINE",
"40 171 OFFCURVE",
"65 184 OFFCURVE",
"88 196 CURVE",
"160 234 LINE",
"180 244 OFFCURVE",
"196 253 OFFCURVE",
"207 259 CURVE",
"234 273 OFFCURVE",
"243 293 OFFCURVE",
"254 321 CURVE",
"260 339 LINE",
"258 340 LINE",
"257 340 OFFCURVE",
"257 340 OFFCURVE",
"256 339 CURVE",
"253 336 OFFCURVE",
"250 333 OFFCURVE",
"246 331 CURVE",
"230 320 LINE",
"219 312 OFFCURVE",
"196 300 OFFCURVE",
"165 285 CURVE",
"133 270 OFFCURVE",
"102 254 OFFCURVE",
"71 236 CURVE",
"53 225 LINE",
"37 215 OFFCURVE",
"32 211 OFFCURVE",
"26 197 CURVE",
"22 189 OFFCURVE",
"22 189 OFFCURVE",
"20 185 CURVE",
"18 181 OFFCURVE",
"16 177 OFFCURVE",
"14 172 CURVE",
"10 159 LINE",
"6 148 OFFCURVE",
"5 147 OFFCURVE",
"4 141 CURVE"
);
}
);
width = 266;
}
);
note = SHA_KASRA_TAN;
category = Mark;
subCategory = Nonspacing;
},
{
color = 1;
glyphname = HAMZA_ABOVE;
lastChange = "2020-11-16 19:59:53 +0000";
layers = (
{
anchors = (
{
name = _top;
position = "{164, 211}";
},
{
name = top;
position = "{118, 398}";
}
);
background = {
paths = (
{
closed = 1;
nodes = (
"37 212 OFFCURVE",
"23 187 OFFCURVE",
"8 138 CURVE",
"10 135 LINE",
"13 138 OFFCURVE",
"14 138 OFFCURVE",
"17 141 CURVE",
"22 144 OFFCURVE",
"27 148 OFFCURVE",
"33 153 CURVE",
"41 161 OFFCURVE",
"47 165 OFFCURVE",
"50 168 CURVE",
"53 170 OFFCURVE",
"60 175 OFFCURVE",
"71 183 CURVE",
"103 208 OFFCURVE",
"140 228 OFFCURVE",
"177 244 CURVE",
"208 259 OFFCURVE",
"215 263 OFFCURVE",
"224 273 CURVE",
"231 282 OFFCURVE",
"240 297 OFFCURVE",
"247 313 CURVE",
"255 332 LINE",
"256 333 OFFCURVE",
"256 335 OFFCURVE",
"256 336 CURVE",
"256 337 OFFCURVE",
"255 338 OFFCURVE",
"254 338 CURVE",
"253 337 OFFCURVE",
"253 337 OFFCURVE",
"252 337 CURVE",
"209 310 OFFCURVE",
"175 297 OFFCURVE",
"144 297 CURVE",
"116 297 OFFCURVE",
"95 311 OFFCURVE",
"95 328 CURVE",
"95 343 OFFCURVE",
"115 354 OFFCURVE",
"129 354 CURVE",
"138 354 OFFCURVE",
"146 351 OFFCURVE",
"156 346 CURVE",
"173 356 OFFCURVE",
"181 367 OFFCURVE",
"181 383 CURVE",
"181 397 OFFCURVE",
"169 407 OFFCURVE",
"152 407 CURVE",
"103 407 OFFCURVE",
"54 324 OFFCURVE",
"54 279 CURVE",
"54 258 OFFCURVE",
"61 248 OFFCURVE",
"81 239 CURVE"
);
}
);
};
components = (
{
name = hamzada;
transform = "{1, 0, 0, 1, 9, 43}";
}
);
layerId = "6E34CE51-C086-4FF0-804E-D019E96D60E0";
width = 266;
}
);
note = HAMZA_ABOVE;
unicode = 0654;
script = arabic;
category = Mark;
subCategory = Nonspacing;
},
{
color = 1;
glyphname = FATHA;
lastChange = "2020-11-15 20:01:17 +0000";
layers = (
{
anchors = (
{
name = _top;
position = "{117, 0}";
}
);
backgroundImage = {
crop = "{{0, 0}, {278.16, 272.88}}";
imagePath = "../../../../_01_Calligraphic Models (Amir)/_Diac/Diac_01.tif";
locked = "1";
transform = "{5.5, 0, 0, 5.5, -813, 39}";
};
layerId = "6E34CE51-C086-4FF0-804E-D019E96D60E0";
paths = (
{
closed = 1;
nodes = (
"176 233 LINE SMOOTH",
"204 251 OFFCURVE",
"219 256 OFFCURVE",
"236 288 CURVE SMOOTH",
"269 348 LINE",
"249 366 LINE",
"76 246 LINE SMOOTH",
"42 223 OFFCURVE",
"12 176 OFFCURVE",
"-9 148 CURVE",
"10 128 LINE"
);
}
);
width = 266;
}
);
note = FATHA;
unicode = 064E;
script = arabic;
category = Mark;
subCategory = Nonspacing;
},
{
color = 1;
glyphname = DAMMA;
lastChange = "2020-11-15 20:00:09 +0000";
layers = (
{
anchors = (
{
name = _top;
position = "{182, 0}";
},
{
name = top;
position = "{170, 536}";
}
);
backgroundImage = {
crop = "{{0, 0}, {278.16, 272.88}}";
imagePath = "../../../../_01_Calligraphic Models (Amir)/_Diac/Diac_01.tif";
transform = "{5.5, 0, 0, 5.5, -1139, 9}";
};
layerId = "6E34CE51-C086-4FF0-804E-D019E96D60E0";
paths = (
{
closed = 1;
nodes = (
"36 166 OFFCURVE",
"122 192 OFFCURVE",
"195 266 CURVE SMOOTH",
"239 313 OFFCURVE",
"264 370 OFFCURVE",
"264 420 CURVE SMOOTH",
"264 470 OFFCURVE",
"238 496 OFFCURVE",
"207 496 CURVE SMOOTH",
"166 496 OFFCURVE",
"129 443 OFFCURVE",
"117 426 CURVE SMOOTH",
"73 362 OFFCURVE",
"69 303 OFFCURVE",
"136 285 CURVE",
"143 301 LINE",
"101 266 OFFCURVE",
"50 224 OFFCURVE",
"-63 180 CURVE",
"-57 142 LINE"
);
},
{
closed = 1;
nodes = (
"148 341 OFFCURVE",
"128 363 OFFCURVE",
"128 388 CURVE SMOOTH",
"128 418 OFFCURVE",
"155 437 OFFCURVE",
"178 437 CURVE SMOOTH",
"200 437 OFFCURVE",
"224 421 OFFCURVE",
"224 390 CURVE SMOOTH",
"224 362 OFFCURVE",
"204 341 OFFCURVE",
"176 341 CURVE SMOOTH"
);
}
);
width = 300;
}
);
note = DAMMA;
unicode = 064F;
category = Mark;
subCategory = Nonspacing;
},
{
color = 1;
glyphname = SHADDA;
lastChange = "2020-11-16 19:57:14 +0000";
layers = (
{
anchors = (
{
name = bottom;
position = "{139, 189}";
},
{
name = top;
position = "{142, 398}";
}
);
layerId = "6E34CE51-C086-4FF0-804E-D019E96D60E0";
paths = (
{
closed = 1;
nodes = (
"114 213 OFFCURVE",
"135 241 OFFCURVE",
"143 255 CURVE",
"128 255 LINE",
"128 242 OFFCURVE",
"145 224 OFFCURVE",
"165 224 CURVE SMOOTH",
"195 224 OFFCURVE",
"222 272 OFFCURVE",
"222 328 CURVE SMOOTH",
"222 346 OFFCURVE",
"220 373 OFFCURVE",
"217 401 CURVE",
"201 402 LINE",
"184 362 LINE",
"197 283 LINE",
"199 298 LINE",
"184 278 OFFCURVE",
"155 284 OFFCURVE",
"147 303 CURVE",
"153 289 LINE",
"157 382 LINE",
"138 382 LINE",
"127 347 LINE",
"134 276 LINE",
"139 298 LINE",
"131 284 OFFCURVE",
"86 258 OFFCURVE",
"76 298 CURVE",
"81 317 OFFCURVE",
"91 342 OFFCURVE",
"101 370 CURVE",
"76 376 LINE",
"72 365 OFFCURVE",
"44 302 OFFCURVE",
"44 261 CURVE SMOOTH",
"44 238 OFFCURVE",
"54 213 OFFCURVE",
"84 213 CURVE SMOOTH"
);
}
);
width = 266;
}
);
note = SHADDA;
unicode = 0651;
category = Mark;
subCategory = Nonspacing;
},
{
color = 1;
glyphname = MADDA;
lastChange = "2020-11-16 20:04:07 +0000";
layers = (
{
anchors = (
{
name = _top;
position = "{183, 153}";
},
{
name = top;
position = "{192, 378}";
}
);
layerId = "6E34CE51-C086-4FF0-804E-D019E96D60E0";
paths = (
{
closed = 1;
nodes = (
"15 185 OFFCURVE",
"50 205 OFFCURVE",
"82 205 CURVE SMOOTH",
"122 205 OFFCURVE",
"133 192 OFFCURVE",
"189 192 CURVE SMOOTH",
"266 192 OFFCURVE",
"356 283 OFFCURVE",
"388 348 CURVE",
"372 358 LINE",
"337 323 OFFCURVE",
"284 301 OFFCURVE",
"238 301 CURVE SMOOTH",
"192 301 OFFCURVE",
"185 317 OFFCURVE",
"136 317 CURVE SMOOTH",
"72 317 OFFCURVE",
"15 253 OFFCURVE",
"-25 167 CURVE",
"-11 158 LINE"
);
}
);
width = 346;
}
);
note = MADDA;
unicode = 0653;
script = arabic;
category = Mark;
subCategory = "";
},
{
color = 1;
glyphname = dda;
lastChange = "2020-11-16 20:04:07 +0000";
layers = (
{
anchors = (
{
name = _top;
position = "{224, 131}";
},
{
name = top;
position = "{196, 369}";
}
);
background = {
paths = (
{
closed = 1;
nodes = (
"138 246 OFFCURVE",
"137 247 OFFCURVE",
"136 248 CURVE",
"135 248 OFFCURVE",
"134 249 OFFCURVE",
"132 250 CURVE",
"131 251 OFFCURVE",
"127 254 OFFCURVE",
"121 259 CURVE",
"99 276 OFFCURVE",
"78 294 OFFCURVE",
"58 314 CURVE",
"56 317 LINE",
"55 317 OFFCURVE",
"55 316 OFFCURVE",
"54 316 CURVE",
"52 313 LINE",
"40 301 OFFCURVE",
"1 238 OFFCURVE",
"1 221 CURVE",
"1 207 OFFCURVE",
"63 159 OFFCURVE",
"81 159 CURVE",
"85 159 OFFCURVE",
"90 161 OFFCURVE",
"94 165 CURVE",
"96 169 OFFCURVE",
"99 173 OFFCURVE",
"107 185 CURVE",
"113 196 OFFCURVE",
"114 198 OFFCURVE",
"123 214 CURVE",
"132 231 OFFCURVE",
"136 238 OFFCURVE",
"140 245 CURVE"
);
},
{
closed = 1;
nodes = (
"283 264 LINE",
"258 281 OFFCURVE",
"236 298 OFFCURVE",
"213 318 CURVE",
"208 323 OFFCURVE",
"204 326 OFFCURVE",
"202 328 CURVE",
"199 332 OFFCURVE",
"199 332 OFFCURVE",
"198 332 CURVE",
"196 332 OFFCURVE",
"192 327 OFFCURVE",
"185 318 CURVE",
"176 305 OFFCURVE",
"163 284 OFFCURVE",
"153 262 CURVE",
"145 245 LINE",
"142 238 OFFCURVE",
"141 235 OFFCURVE",
"141 233 CURVE",
"141 232 OFFCURVE",
"141 231 OFFCURVE",
"143 230 CURVE",
"144 229 OFFCURVE",
"144 229 OFFCURVE",
"145 227 CURVE",
"155 215 OFFCURVE",
"204 176 OFFCURVE",
"219 176 CURVE",
"227 176 OFFCURVE",
"237 188 OFFCURVE",
"257 222 CURVE",
"261 228 OFFCURVE",
"263 233 OFFCURVE",
"266 236 CURVE"
);
}
);
};
components = (
{
name = ddb;
transform = "{1, 0, 0, 1, 0, 244}";
}
);
layerId = "6E34CE51-C086-4FF0-804E-D019E96D60E0";
width = 420;
}
);
note = dda;
script = arabic;
category = Mark;
subCategory = Nonspacing;
},
{
color = 1;
glyphname = ddb;
lastChange = "2020-11-16 20:04:07 +0000";
layers = (
{
anchors = (
{
name = _bottom;
position = "{188, 121}";
},
{
name = bottom;
position = "{222, -132}";
}
);
backgroundImage = {
crop = "{{0, 0}, {143, 197.76}}";
imagePath = "../../../../_01_Calligraphic Models (Amir)/_03_03 Aug 2020/Dot01.png";
locked = "1";
transform = "{3.5, 0, 0, 3.5, -52, -340}";
};
layerId = "6E34CE51-C086-4FF0-804E-D019E96D60E0";
paths = (
{
closed = 1;
nodes = (
"152 -108 OFFCURVE",
"168 -87 OFFCURVE",
"183 -70 CURVE SMOOTH",
"224 -21 LINE",
"206 -21 LINE",
"265 -65 LINE SMOOTH",
"291 -85 OFFCURVE",
"334 -89 OFFCURVE",
"355 -65 CURVE SMOOTH",
"402 -12 LINE SMOOTH",
"426 16 OFFCURVE",
"428 35 OFFCURVE",
"394 47 CURVE SMOOTH",
"384 51 OFFCURVE",
"319 77 OFFCURVE",
"309 132 CURVE",
"295 132 LINE",
"213 21 LINE",
"231 36 LINE",
"222 31 OFFCURVE",
"209 23 OFFCURVE",
"195 23 CURVE SMOOTH",
"171 23 OFFCURVE",
"124 42 OFFCURVE",
"111 101 CURVE",
"95 101 LINE",
"67 59 OFFCURVE",
"32 14 OFFCURVE",
"0 -25 CURVE",
"25 -58 OFFCURVE",
"77 -108 OFFCURVE",
"130 -108 CURVE SMOOTH"
);
}
);
width = 420;
}
);
note = ddb;
script = arabic;
category = Mark;
subCategory = Nonspacing;
},
{
color = 1;
glyphname = ddb.yb;
lastChange = "2020-11-17 13:46:23 +0000";
layers = (
{
backgroundImage = {
crop = "{{0, 0}, {143, 197.76}}";
imagePath = "../../../../_01_Calligraphic Models (Amir)/_03_03 Aug 2020/Dot01.png";
locked = "1";
transform = "{3.5, 0, 0, 3.5, -52, -340}";
};
layerId = "6E34CE51-C086-4FF0-804E-D019E96D60E0";
paths = (
{
closed = 1;
nodes = (
"152 -408 OFFCURVE",
"168 -387 OFFCURVE",
"183 -370 CURVE SMOOTH",
"224 -321 LINE",
"206 -321 LINE",
"265 -365 LINE SMOOTH",
"291 -385 OFFCURVE",
"334 -389 OFFCURVE",
"355 -365 CURVE SMOOTH",
"402 -312 LINE SMOOTH",
"426 -284 OFFCURVE",
"428 -265 OFFCURVE",
"394 -253 CURVE SMOOTH",
"384 -249 OFFCURVE",
"319 -223 OFFCURVE",
"309 -168 CURVE",
"295 -168 LINE",
"213 -279 LINE",
"231 -264 LINE",
"222 -269 OFFCURVE",
"209 -277 OFFCURVE",
"195 -277 CURVE SMOOTH",
"171 -277 OFFCURVE",
"124 -258 OFFCURVE",
"111 -199 CURVE",
"95 -199 LINE",
"67 -241 OFFCURVE",
"32 -286 OFFCURVE",
"0 -325 CURVE",
"25 -358 OFFCURVE",
"77 -408 OFFCURVE",
"130 -408 CURVE SMOOTH"
);
}
);
width = 420;
}
);
note = ddb;
script = arabic;
category = Mark;
subCategory = Nonspacing;
},
{
color = 1;
glyphname = hamzada;
lastChange = "2020-11-16 20:04:07 +0000";
layers = (
{
layerId = "6E34CE51-C086-4FF0-804E-D019E96D60E0";
paths = (
{
closed = 1;
nodes = (
"108 173 OFFCURVE",
"144 195 OFFCURVE",
"210 216 CURVE",
"250 256 LINE",
"244 268 LINE",
"200 257 OFFCURVE",
"161 247 OFFCURVE",
"127 254 CURVE SMOOTH",
"101 259 OFFCURVE",
"85 287 OFFCURVE",
"77 299 CURVE",
"79 278 LINE",
"106 300 OFFCURVE",
"140 323 OFFCURVE",
"160 318 CURVE SMOOTH",
"169 316 OFFCURVE",
"181 311 OFFCURVE",
"190 301 CURVE",
"210 316 LINE",
"206 340 OFFCURVE",
"196 364 OFFCURVE",
"164 371 CURVE SMOOTH",
"112 382 OFFCURVE",
"45 296 OFFCURVE",
"38 259 CURVE SMOOTH",
"31 228 OFFCURVE",
"60 205 OFFCURVE",
"83 194 CURVE",
"80 214 LINE",
"59 191 OFFCURVE",
"29 154 OFFCURVE",
"7 121 CURVE",
"32 100 LINE"
);
}
);
width = 267;
}
);
note = hamzada;
script = arabic;
category = Mark;
subCategory = Nonspacing;
},
{
color = 1;
glyphname = haydb.yb;
lastChange = "2020-11-17 13:46:29 +0000";
layers = (
{
layerId = "6E34CE51-C086-4FF0-804E-D019E96D60E0";
paths = (
{
closed = 1;
nodes = (
"148 -179 OFFCURVE",
"175 -141 OFFCURVE",
"182 -107 CURVE SMOOTH",
"189 -75 OFFCURVE",
"182 -44 OFFCURVE",
"155 -44 CURVE",
"140 -57 OFFCURVE",
"130 -80 OFFCURVE",
"124 -113 CURVE",
"148 -84 LINE",
"64 -88 OFFCURVE",
"113 9 OFFCURVE",
"167 84 CURVE",
"149 97 LINE",
"91 31 OFFCURVE",
"48 -35 OFFCURVE",
"48 -101 CURVE SMOOTH",
"48 -148 OFFCURVE",
"71 -179 OFFCURVE",
"106 -179 CURVE SMOOTH"
);
}
);
width = 233;
}
);
note = haydb;
script = arabic;
category = Mark;
subCategory = Nonspacing;
},
{
color = 1;
glyphname = sda;
lastChange = "2020-11-16 20:04:07 +0000";
layers = (
{
anchors = (
{
name = _top;
position = "{140, 143}";
},
{
name = top;
position = "{140, 353}";
}
);
layerId = "6E34CE51-C086-4FF0-804E-D019E96D60E0";
paths = (
{
closed = 1;
nodes = (
"169 143 OFFCURVE",
"188 166 OFFCURVE",
"209 191 CURVE SMOOTH",
"227 215 OFFCURVE",
"246 240 OFFCURVE",
"246 253 CURVE SMOOTH",
"246 288 OFFCURVE",
"160 273 OFFCURVE",
"146 349 CURVE",
"125 353 LINE",
"34 230 LINE",
"65 170 OFFCURVE",
"125 143 OFFCURVE",
"153 143 CURVE SMOOTH"
);
}
);
width = 288;
}
);
note = sda;
script = arabic;
category = Mark;
subCategory = Nonspacing;
},
{
color = 1;
glyphname = sdi;
lastChange = "2020-11-16 20:04:07 +0000";
layers = (
{
anchors = (
{
name = _inside;
position = "{140, -8}";
}
);
layerId = "6E34CE51-C086-4FF0-804E-D019E96D60E0";
paths = (
{
closed = 1;
nodes = (
"169 -113 OFFCURVE",
"188 -90 OFFCURVE",
"209 -65 CURVE SMOOTH",
"227 -41 OFFCURVE",
"246 -16 OFFCURVE",
"246 -3 CURVE SMOOTH",
"246 32 OFFCURVE",
"160 17 OFFCURVE",
"146 93 CURVE",
"125 97 LINE",
"34 -26 LINE",
"65 -86 OFFCURVE",
"125 -113 OFFCURVE",
"153 -113 CURVE SMOOTH"
);
}
);
width = 288;
}
);
note = sdb;
script = arabic;
category = Mark;
subCategory = Nonspacing;
},
{
color = 1;
glyphname = tda;
lastChange = "2020-11-16 20:04:07 +0000";
layers = (
{
anchors = (
{
name = _top;
position = "{182, 38}";
},
{
name = top;
position = "{151, 394}";
}
);
layerId = "6E34CE51-C086-4FF0-804E-D019E96D60E0";
paths = (
{
closed = 1;
nodes = (
"118 35 OFFCURVE",
"137 48 OFFCURVE",
"150 63 CURVE SMOOTH",
"200 121 LINE",
"178 114 LINE",
"235 72 LINE SMOOTH",
"265 50 OFFCURVE",
"292 63 OFFCURVE",
"308 84 CURVE SMOOTH",
"347 135 LINE SMOOTH",
"366 160 OFFCURVE",
"344 167 OFFCURVE",
"328 170 CURVE SMOOTH",
"310 173 OFFCURVE",
"262 192 OFFCURVE",
"267 238 CURVE",
"249 238 LINE",
"165 136 LINE",
"180 141 LINE",
"146 142 OFFCURVE",
"96 158 OFFCURVE",
"93 210 CURVE",
"74 210 LINE",
"0 105 LINE",
"21 58 OFFCURVE",
"67 35 OFFCURVE",
"104 35 CURVE SMOOTH"
);
},
{
closed = 1;
nodes = (
"182 225 OFFCURVE",
"196 245 OFFCURVE",
"202 254 CURVE SMOOTH",
"230 292 LINE SMOOTH",
"237 302 OFFCURVE",
"241 310 OFFCURVE",
"241 322 CURVE SMOOTH",
"241 331 OFFCURVE",
"215 333 OFFCURVE",
"196 344 CURVE SMOOTH",
"182 352 OFFCURVE",
"160 363 OFFCURVE",
"151 394 CURVE",
"136 394 LINE",
"57 297 LINE",
"69 239 OFFCURVE",
"152 225 OFFCURVE",
"160 225 CURVE SMOOTH"
);
}
);
width = 354;
}
);
note = tda;
script = arabic;
category = Mark;
subCategory = Nonspacing;
},
{
color = 1;
glyphname = tdb;
lastChange = "2020-11-16 20:04:07 +0000";
layers = (
{
anchors = (
{
name = _bottom;
position = "{178, 85}";
},
{
name = bottom;
position = "{210, -261}";
}
);
backgroundImage = {
crop = "{{0, 0}, {122.64, 113.28}}";
imagePath = "../../../../_01_Calligraphic Models (Amir)/_03_03 Aug 2020/Dot02.png";
locked = "1";
transform = "{3.5, 0, 0, 3.5, -32, -270}";
};
layerId = "6E34CE51-C086-4FF0-804E-D019E96D60E0";
paths = (
{
closed = 1;
nodes = (
"118 -105 OFFCURVE",
"137 -92 OFFCURVE",
"150 -77 CURVE SMOOTH",
"200 -19 LINE",
"178 -26 LINE",
"235 -68 LINE SMOOTH",
"265 -90 OFFCURVE",
"292 -77 OFFCURVE",
"308 -56 CURVE SMOOTH",
"347 -5 LINE SMOOTH",
"366 20 OFFCURVE",
"344 27 OFFCURVE",
"328 30 CURVE SMOOTH",
"310 33 OFFCURVE",
"262 52 OFFCURVE",
"267 98 CURVE",
"249 98 LINE",
"165 -4 LINE",
"180 1 LINE",
"146 2 OFFCURVE",
"96 18 OFFCURVE",
"93 70 CURVE",
"74 70 LINE",
"0 -35 LINE",
"21 -82 OFFCURVE",
"67 -105 OFFCURVE",
"104 -105 CURVE SMOOTH"
);
},
{
closed = 1;
nodes = (
"232 -261 OFFCURVE",
"246 -241 OFFCURVE",
"252 -232 CURVE SMOOTH",
"280 -194 LINE SMOOTH",
"287 -184 OFFCURVE",
"291 -176 OFFCURVE",
"291 -164 CURVE SMOOTH",
"291 -155 OFFCURVE",
"265 -153 OFFCURVE",
"246 -142 CURVE SMOOTH",
"232 -134 OFFCURVE",
"210 -123 OFFCURVE",
"201 -92 CURVE",
"186 -92 LINE",
"107 -189 LINE",
"119 -247 OFFCURVE",
"202 -261 OFFCURVE",
"210 -261 CURVE SMOOTH"
);
}
);
width = 354;
}
);
note = tdb;
script = arabic;
category = Mark;
subCategory = Nonspacing;
},
{
color = 1;
glyphname = tdb.yb;
lastChange = "2020-11-17 13:46:41 +0000";
layers = (
{
layerId = "6E34CE51-C086-4FF0-804E-D019E96D60E0";
paths = (
{
closed = 1;
nodes = (
"118 -405 OFFCURVE",
"137 -392 OFFCURVE",
"150 -377 CURVE SMOOTH",
"200 -319 LINE",
"178 -326 LINE",
"235 -368 LINE SMOOTH",
"265 -390 OFFCURVE",
"292 -377 OFFCURVE",
"308 -356 CURVE SMOOTH",
"347 -305 LINE SMOOTH",
"366 -280 OFFCURVE",
"344 -273 OFFCURVE",
"328 -270 CURVE SMOOTH",
"310 -267 OFFCURVE",
"262 -248 OFFCURVE",
"267 -202 CURVE",
"249 -202 LINE",
"165 -304 LINE",
"180 -299 LINE",
"146 -298 OFFCURVE",
"96 -282 OFFCURVE",
"93 -230 CURVE",
"74 -230 LINE",
"0 -335 LINE",
"21 -382 OFFCURVE",
"67 -405 OFFCURVE",
"104 -405 CURVE SMOOTH"
);
},
{
closed = 1;
nodes = (
"232 -561 OFFCURVE",
"246 -541 OFFCURVE",
"252 -532 CURVE SMOOTH",
"280 -494 LINE SMOOTH",
"287 -484 OFFCURVE",
"291 -476 OFFCURVE",
"291 -464 CURVE SMOOTH",
"291 -455 OFFCURVE",
"265 -453 OFFCURVE",
"246 -442 CURVE SMOOTH",
"232 -434 OFFCURVE",
"210 -423 OFFCURVE",
"201 -392 CURVE",
"186 -392 LINE",
"107 -489 LINE",
"119 -547 OFFCURVE",
"202 -561 OFFCURVE",
"210 -561 CURVE SMOOTH"
);
}
);
width = 354;
}
);
note = tdb;
script = arabic;
category = Mark;
subCategory = Nonspacing;
},
{
color = 1;
glyphname = tdi;
lastChange = "2020-11-16 20:04:07 +0000";
layers = (
{
anchors = (
{
name = _inside;
position = "{181, -59}";
}
);
layerId = "6E34CE51-C086-4FF0-804E-D019E96D60E0";
paths = (
{
closed = 1;
nodes = (
"118 -105 OFFCURVE",
"137 -92 OFFCURVE",
"150 -77 CURVE SMOOTH",
"200 -19 LINE",
"178 -26 LINE",
"235 -68 LINE SMOOTH",
"265 -90 OFFCURVE",
"292 -77 OFFCURVE",
"308 -56 CURVE SMOOTH",
"347 -5 LINE SMOOTH",
"366 20 OFFCURVE",
"344 27 OFFCURVE",
"328 30 CURVE SMOOTH",
"310 33 OFFCURVE",
"262 52 OFFCURVE",
"267 98 CURVE",
"249 98 LINE",
"165 -4 LINE",
"180 1 LINE",
"146 2 OFFCURVE",
"96 18 OFFCURVE",
"93 70 CURVE",
"74 70 LINE",
"0 -35 LINE",
"21 -82 OFFCURVE",
"67 -105 OFFCURVE",
"104 -105 CURVE SMOOTH"
);
},
{
closed = 1;
nodes = (
"232 -261 OFFCURVE",
"246 -241 OFFCURVE",
"252 -232 CURVE SMOOTH",
"280 -194 LINE SMOOTH",
"287 -184 OFFCURVE",
"291 -176 OFFCURVE",
"291 -164 CURVE SMOOTH",
"291 -155 OFFCURVE",
"265 -153 OFFCURVE",
"246 -142 CURVE SMOOTH",
"232 -134 OFFCURVE",
"210 -123 OFFCURVE",
"201 -92 CURVE",
"186 -92 LINE",
"107 -189 LINE",
"119 -247 OFFCURVE",
"202 -261 OFFCURVE",
"210 -261 CURVE SMOOTH"
);
}
);
width = 354;
}
);
note = tdb;
script = arabic;
category = Mark;
subCategory = Nonspacing;
},
{
color = 1;
glyphname = JIMu1;
lastChange = "2020-11-16 20:04:07 +0000";
layers = (
{
anchors = (
{
name = bottom;
position = "{287, -496}";
},
{
name = inside;
position = "{386, 74}";
},
{
name = top;
position = "{274, 695}";
}
);
backgroundImage = {
crop = "{{0, 0}, {222.48, 302.16}}";
imagePath = "../../../../_01_Calligraphic Models (Amir)/_03_03 Aug 2020/003.png";
locked = "1";
transform = "{3.49987, 0.03054, -0.03054, 3.49987, 24, -435}";
};
layerId = "6E34CE51-C086-4FF0-804E-D019E96D60E0";
paths = (
{
closed = 1;
nodes = (
"525 -396 OFFCURVE",
"667 -147 OFFCURVE",
"753 83 CURVE",
"725 96 LINE",
"627 -149 OFFCURVE",
"450 -242 OFFCURVE",
"321 -242 CURVE SMOOTH",
"148 -242 OFFCURVE",
"103 -102 OFFCURVE",
"103 0 CURVE SMOOTH",
"103 207 OFFCURVE",
"316 402 OFFCURVE",
"372 450 CURVE SMOOTH",
"411 483 OFFCURVE",
"435 529 OFFCURVE",
"435 548 CURVE SMOOTH",
"435 568 OFFCURVE",
"429 575 OFFCURVE",
"422 580 CURVE SMOOTH",
"409 589 OFFCURVE",
"310 595 OFFCURVE",
"274 595 CURVE SMOOTH",
"206 595 OFFCURVE",
"119 572 OFFCURVE",
"80 446 CURVE",
"100 442 LINE",
"112 479 OFFCURVE",
"148 513 OFFCURVE",
"213 513 CURVE SMOOTH",
"273 513 OFFCURVE",
"310 510 OFFCURVE",
"361 500 CURVE",
"351 529 LINE",
"220 373 OFFCURVE",
"41 156 OFFCURVE",
"41 -110 CURVE SMOOTH",
"41 -219 OFFCURVE",
"85 -396 OFFCURVE",
"287 -396 CURVE SMOOTH"
);
}
);
width = 779;
}
);
note = JIMu1;
},
{
color = 1;
glyphname = AINi1;
lastChange = "2020-11-16 20:04:07 +0000";
layers = (
{
anchors = (
{
name = bottom;
position = "{166, -181}";
},
{
name = exit;
position = "{-46, 10}";
},
{
name = top;
position = "{204, 521}";
}
);
background = {
paths = (
{
closed = 1;
nodes = (
"49 86 OFFCURVE",
"-2 59 OFFCURVE",
"-50 44 CURVE",
"-67 38 LINE",
"-104 26 OFFCURVE",
"-132 16 OFFCURVE",
"-152 -19 CURVE",
"-144 -33 OFFCURVE",
"-129 -41 OFFCURVE",
"-108 -41 CURVE",
"-44 -41 OFFCURVE",
"55 25 OFFCURVE",
"104 67 CURVE",
"114 77 OFFCURVE",
"125 88 OFFCURVE",
"137 97 CURVE",
"146 106 OFFCURVE",
"155 113 OFFCURVE",
"164 121 CURVE",
"170 126 OFFCURVE",
"174 129 OFFCURVE",
"176 131 CURVE",
"177 132 OFFCURVE",
"183 136 OFFCURVE",
"192 143 CURVE",
"212 158 OFFCURVE",
"222 166 OFFCURVE",
"233 177 CURVE",
"237 182 OFFCURVE",
"241 186 OFFCURVE",
"245 190 CURVE",
"245 191 OFFCURVE",
"252 199 OFFCURVE",
"263 213 CURVE",
"278 231 LINE",
"286 241 OFFCURVE",
"299 258 OFFCURVE",
"312 278 CURVE",
"315 283 OFFCURVE",
"318 287 OFFCURVE",
"320 291 CURVE",
"321 293 OFFCURVE",
"321 295 OFFCURVE",
"321 297 CURVE",
"321 301 OFFCURVE",
"318 305 OFFCURVE",
"313 305 CURVE",
"312 305 OFFCURVE",
"312 305 OFFCURVE",
"310 304 CURVE",
"309 304 OFFCURVE",
"308 303 OFFCURVE",
"305 300 CURVE",
"273 276 LINE",
"236 247 OFFCURVE",
"191 230 OFFCURVE",
"156 230 CURVE",
"93 230 OFFCURVE",
"43 255 OFFCURVE",
"43 287 CURVE",
"43 317 OFFCURVE",
"74 338 OFFCURVE",
"116 338 CURVE",
"126 338 OFFCURVE",
"143 335 OFFCURVE",
"155 332 CURVE",
"173 327 LINE",
"175 326 OFFCURVE",
"179 325 OFFCURVE",
"186 324 CURVE",
"195 324 LINE",
"211 324 OFFCURVE",
"222 333 OFFCURVE",
"222 348 CURVE",
"222 380 OFFCURVE",
"188 410 OFFCURVE",
"152 410 CURVE",
"68 410 OFFCURVE",
"-31 290 OFFCURVE",
"-31 209 CURVE",
"-31 157 OFFCURVE",
"10 125 OFFCURVE",
"90 117 CURVE"
);
}
);
};
layerId = "6E34CE51-C086-4FF0-804E-D019E96D60E0";
paths = (
{
closed = 1;
nodes = (
"122 107 OFFCURVE",
"148 99 OFFCURVE",
"171 112 CURVE SMOOTH",
"201 129 OFFCURVE",
"243 151 OFFCURVE",
"254 157 CURVE SMOOTH",
"323 194 LINE",
"358 279 LINE",
"343 292 LINE",
"307 266 OFFCURVE",
"238 232 OFFCURVE",
"200 232 CURVE SMOOTH",
"162 232 OFFCURVE",
"120 250 OFFCURVE",
"100 292 CURVE",
"100 260 LINE",
"153 324 OFFCURVE",
"182 353 OFFCURVE",
"213 353 CURVE SMOOTH",
"244 353 OFFCURVE",
"265 338 OFFCURVE",
"268 334 CURVE",
"288 364 LINE",
"272 393 OFFCURVE",
"243 421 OFFCURVE",
"204 421 CURVE SMOOTH",
"161 421 OFFCURVE",
"131 381 OFFCURVE",
"115 358 CURVE SMOOTH",
"103 341 OFFCURVE",
"69 290 OFFCURVE",
"52 264 CURVE SMOOTH",
"37 240 OFFCURVE",
"22 204 OFFCURVE",
"22 180 CURVE SMOOTH",
"22 147 OFFCURVE",
"58 118 OFFCURVE",
"100 111 CURVE SMOOTH"
);
},
{
closed = 1;
nodes = (
"-121 -68 OFFCURVE",
"-29 -28 OFFCURVE",
"50 26 CURVE SMOOTH",
"91 54 OFFCURVE",
"108 74 OFFCURVE",
"171 112 CURVE",
"143 170 LINE",
"79 99 OFFCURVE",
"31 75 OFFCURVE",
"-25 53 CURVE SMOOTH",
"-44 46 OFFCURVE",
"-64 40 OFFCURVE",
"-86 32 CURVE SMOOTH",
"-134 14 OFFCURVE",
"-142 -4 OFFCURVE",
"-152 -19 CURVE"
);
}
);
width = 380;
}
);
note = AINi1;
},
{
color = 1;
glyphname = AINi2;
lastChange = "2020-11-16 20:04:07 +0000";
layers = (
{
anchors = (
{
name = bottom;
position = "{103, -285}";
},
{
name = exit;
position = "{0, 0}";
},
{
name = top;
position = "{130, 377}";
}
);
background = {
paths = (
{
closed = 1;
nodes = (
"-6 63 LINE",
"-45 63 OFFCURVE",
"-74 31 OFFCURVE",
"-74 -11 CURVE",
"-74 -55 OFFCURVE",
"-46 -78 OFFCURVE",
"6 -78 CURVE",
"68 -78 OFFCURVE",
"143 -39 OFFCURVE",
"188 16 CURVE",
"205 38 OFFCURVE",
"256 128 OFFCURVE",
"256 155 CURVE",
"256 158 OFFCURVE",
"253 162 OFFCURVE",
"250 162 CURVE",
"248 162 OFFCURVE",
"246 160 OFFCURVE",
"242 155 CURVE",
"226 136 LINE",
"193 98 OFFCURVE",
"160 78 OFFCURVE",
"128 78 CURVE",
"92 78 OFFCURVE",
"57 111 OFFCURVE",
"57 144 CURVE",
"57 182 OFFCURVE",
"99 210 OFFCURVE",
"155 210 CURVE",
"160 210 OFFCURVE",
"165 210 OFFCURVE",
"171 209 CURVE",
"184 208 LINE",
"194 208 LINE",
"214 208 OFFCURVE",
"223 215 OFFCURVE",
"223 232 CURVE",
"223 240 OFFCURVE",
"218 251 OFFCURVE",
"210 260 CURVE",
"199 275 OFFCURVE",
"179 285 OFFCURVE",
"161 285 CURVE",
"87 285 OFFCURVE",
"12 185 OFFCURVE",
"-4 63 CURVE"
);
}
);
};
layerId = "6E34CE51-C086-4FF0-804E-D019E96D60E0";
paths = (
{
closed = 1;
nodes = (
"89 -78 OFFCURVE",
"161 34 OFFCURVE",
"199 158 CURVE",
"177 167 LINE",
"169 146 LINE SMOOTH",
"158 118 OFFCURVE",
"147 100 OFFCURVE",
"122 100 CURVE SMOOTH",
"87 100 OFFCURVE",
"57 136 OFFCURVE",
"53 172 CURVE",
"53 154 LINE",
"58 179 OFFCURVE",
"107 249 OFFCURVE",
"170 193 CURVE",
"189 208 LINE",
"186 224 OFFCURVE",
"171 277 OFFCURVE",
"130 277 CURVE SMOOTH",
"77 277 OFFCURVE",
"51 207 OFFCURVE",
"38 175 CURVE SMOOTH",
"34 165 OFFCURVE",
"11 94 OFFCURVE",
"0 48 CURVE",
"18 58 LINE",
"9 62 OFFCURVE",
"0 63 OFFCURVE",
"-6 63 CURVE SMOOTH",
"-50 63 OFFCURVE",
"-74 25 OFFCURVE",
"-74 -10 CURVE SMOOTH",
"-74 -64 OFFCURVE",
"-33 -78 OFFCURVE",
"2 -78 CURVE SMOOTH"
);
}
);
width = 285;
}
);
note = AINi2;
},
{
color = 1;
glyphname = AINi3;
lastChange = "2020-11-16 20:04:07 +0000";
layers = (
{
anchors = (
{
name = bottom;
position = "{214, -351}";
},
{
name = exit;
position = "{0, 0}";
},
{
name = top;
position = "{166, 500}";
}
);
background = {
paths = (
{
closed = 1;
nodes = (
"42 87 OFFCURVE",
"35 80 OFFCURVE",
"28 72 CURVE",
"18 60 LINE",
"15 57 OFFCURVE",
"12 52 OFFCURVE",
"7 46 CURVE",
"3 40 OFFCURVE",
"0 35 OFFCURVE",
"-2 32 CURVE",
"-17 6 LINE",
"-34 -23 OFFCURVE",
"-44 -54 OFFCURVE",
"-44 -79 CURVE",
"-44 -82 LINE",
"-42 -81 OFFCURVE",
"-41 -80 OFFCURVE",
"-40 -80 CURVE",
"-30 -71 OFFCURVE",
"-24 -65 OFFCURVE",
"-18 -58 CURVE",
"0 -30 LINE",
"2 -27 OFFCURVE",
"4 -24 OFFCURVE",
"7 -21 CURVE",
"17 -9 LINE",
"30 6 OFFCURVE",
"31 7 OFFCURVE",
"38 14 CURVE",
"41 16 OFFCURVE",
"45 20 OFFCURVE",
"51 25 CURVE",
"64 35 OFFCURVE",
"69 39 OFFCURVE",
"78 44 CURVE",
"79 44 OFFCURVE",
"84 47 OFFCURVE",
"92 51 CURVE",
"105 59 LINE",
"118 65 OFFCURVE",
"125 68 OFFCURVE",
"139 74 CURVE",
"182 89 LINE",
"202 97 LINE",
"251 114 OFFCURVE",
"283 151 OFFCURVE",
"309 194 CURVE",
"318 208 LINE",
"321 214 OFFCURVE",
"324 217 OFFCURVE",
"325 219 CURVE",
"329 228 LINE",
"331 231 OFFCURVE",
"331 232 OFFCURVE",
"331 233 CURVE",
"331 236 OFFCURVE",
"329 238 OFFCURVE",
"327 238 CURVE",
"325 238 OFFCURVE",
"324 238 OFFCURVE",
"320 236 CURVE",
"282 215 LINE",
"247 196 OFFCURVE",
"209 185 OFFCURVE",
"178 185 CURVE",
"115 185 OFFCURVE",
"56 217 OFFCURVE",
"56 251 CURVE",
"56 273 OFFCURVE",
"84 292 OFFCURVE",
"115 292 CURVE",
"127 292 OFFCURVE",
"138 291 OFFCURVE",
"150 288 CURVE",
"164 284 LINE",
"179 280 OFFCURVE",
"192 278 OFFCURVE",
"203 278 CURVE",
"218 278 OFFCURVE",
"228 287 OFFCURVE",
"228 299 CURVE",
"228 332 OFFCURVE",
"194 362 OFFCURVE",
"158 362 CURVE",
"81 362 OFFCURVE",
"-24 247 OFFCURVE",
"-24 170 CURVE",
"-24 134 OFFCURVE",
"8 102 OFFCURVE",
"51 94 CURVE"
);
}
);
};
layerId = "6E34CE51-C086-4FF0-804E-D019E96D60E0";
paths = (
{
closed = 1;
nodes = (
"84 86 OFFCURVE",
"110 78 OFFCURVE",
"133 91 CURVE SMOOTH",
"163 108 OFFCURVE",
"205 130 OFFCURVE",
"216 136 CURVE SMOOTH",
"285 173 LINE",
"320 258 LINE",
"305 271 LINE",
"269 245 OFFCURVE",
"200 211 OFFCURVE",
"162 211 CURVE SMOOTH",
"124 211 OFFCURVE",
"82 229 OFFCURVE",
"62 271 CURVE",
"62 239 LINE",
"115 303 OFFCURVE",
"144 332 OFFCURVE",
"175 332 CURVE SMOOTH",
"206 332 OFFCURVE",
"227 317 OFFCURVE",
"230 313 CURVE",
"250 343 LINE",
"234 372 OFFCURVE",
"205 400 OFFCURVE",
"166 400 CURVE SMOOTH",
"123 400 OFFCURVE",
"93 360 OFFCURVE",
"77 337 CURVE SMOOTH",
"65 320 OFFCURVE",
"31 269 OFFCURVE",
"14 243 CURVE SMOOTH",
"-1 219 OFFCURVE",
"-16 183 OFFCURVE",
"-16 159 CURVE SMOOTH",
"-16 126 OFFCURVE",
"20 97 OFFCURVE",
"62 90 CURVE SMOOTH"
);
},
{
closed = 1;
nodes = (
"-11 -61 OFFCURVE",
"-15 -40 OFFCURVE",
"35 12 CURVE SMOOTH",
"56 34 OFFCURVE",
"91 64 OFFCURVE",
"133 91 CURVE",
"69 116 LINE",
"28 78 OFFCURVE",
"-46 -12 OFFCURVE",
"-44 -82 CURVE"
);
}
);
width = 350;
}
);
note = AINi3;
},
{
color = 1;
glyphname = AINi4;
lastChange = "2020-11-16 20:04:07 +0000";
layers = (
{
anchors = (
{
name = bottom;
position = "{133, -444}";
},
{
name = exit;
position = "{0, 0}";
},
{
name = top;
position = "{114, 416}";
}
);
background = {
paths = (
{
closed = 1;
nodes = (
"-48 29 OFFCURVE",
"-50 27 OFFCURVE",
"-52 26 CURVE SMOOTH",
"-55 24 OFFCURVE",
"-61 22 OFFCURVE",
"-69 17 CURVE",
"-150 -23 OFFCURVE",
"-205 -84 OFFCURVE",
"-219 -150 CURVE",
"-213 -144 OFFCURVE",
"-210 -142 OFFCURVE",
"-206 -139 CURVE SMOOTH",
"-192 -128 LINE SMOOTH",
"-184 -122 OFFCURVE",
"-178 -118 OFFCURVE",
"-176 -116 CURVE",
"-174 -115 OFFCURVE",
"-168 -112 OFFCURVE",
"-160 -107 CURVE SMOOTH",
"-146 -98 LINE SMOOTH",
"-137 -92 OFFCURVE",
"-133 -90 OFFCURVE",
"-110 -79 CURVE SMOOTH",
"-87 -68 LINE",
"-64 -59 LINE SMOOTH",
"-56 -56 OFFCURVE",
"-50 -52 OFFCURVE",
"-47 -51 CURVE SMOOTH",
"1 -32 LINE SMOOTH",
"3 -31 OFFCURVE",
"7 -30 OFFCURVE",
"13 -28 CURVE SMOOTH",
"20 -25 OFFCURVE",
"25 -24 OFFCURVE",
"29 -22 CURVE SMOOTH",
"40 -18 LINE SMOOTH",
"42 -17 OFFCURVE",
"46 -15 OFFCURVE",
"51 -14 CURVE SMOOTH",
"62 -11 LINE",
"72 -7 LINE",
"143 16 LINE SMOOTH",
"169 24 OFFCURVE",
"207 45 OFFCURVE",
"226 66 CURVE SMOOTH",
"235 76 LINE SMOOTH",
"239 81 OFFCURVE",
"242 84 OFFCURVE",
"242 85 CURVE",
"283 142 LINE SMOOTH",
"285 145 OFFCURVE",
"285 147 OFFCURVE",
"285 148 CURVE SMOOTH",
"285 151 OFFCURVE",
"284 153 OFFCURVE",
"281 153 CURVE SMOOTH",
"278 153 LINE",
"264 147 LINE",
"263 146 OFFCURVE",
"257 143 OFFCURVE",
"247 138 CURVE SMOOTH",
"198 114 OFFCURVE",
"146 97 OFFCURVE",
"117 97 CURVE SMOOTH",
"77 97 OFFCURVE",
"-6 135 OFFCURVE",
"-6 183 CURVE SMOOTH",
"-6 205 OFFCURVE",
"21 222 OFFCURVE",
"57 222 CURVE SMOOTH",
"66 222 OFFCURVE",
"78 221 OFFCURVE",
"87 219 CURVE SMOOTH",
"128 210 LINE SMOOTH",
"135 208 OFFCURVE",
"141 208 OFFCURVE",
"146 208 CURVE SMOOTH",
"163 208 OFFCURVE",
"172 215 OFFCURVE",
"172 230 CURVE SMOOTH",
"172 263 OFFCURVE",
"137 292 OFFCURVE",
"97 292 CURVE SMOOTH",
"55 292 OFFCURVE",
"15 268 OFFCURVE",
"-31 216 CURVE SMOOTH",
"-75 168 OFFCURVE",
"-94 135 OFFCURVE",
"-94 107 CURVE SMOOTH",
"-94 85 OFFCURVE",
"-85 69 OFFCURVE",
"-68 52 CURVE SMOOTH",
"-57 41 LINE SMOOTH",
"-52 36 OFFCURVE",
"-50 34 OFFCURVE",
"-44 31 CURVE"
);
}
);
};
layerId = "6E34CE51-C086-4FF0-804E-D019E96D60E0";
paths = (
{
closed = 1;
nodes = (
"32 2 OFFCURVE",
"66 5 OFFCURVE",
"79 11 CURVE SMOOTH",
"143 38 OFFCURVE",
"175 56 OFFCURVE",
"233 89 CURVE",
"268 174 LINE",
"253 187 LINE",
"217 161 OFFCURVE",
"148 127 OFFCURVE",
"110 127 CURVE SMOOTH",
"72 127 OFFCURVE",
"30 145 OFFCURVE",
"10 187 CURVE",
"10 155 LINE",
"63 219 OFFCURVE",
"92 248 OFFCURVE",
"123 248 CURVE SMOOTH",
"154 248 OFFCURVE",
"175 233 OFFCURVE",
"178 229 CURVE",
"198 259 LINE",
"182 288 OFFCURVE",
"153 316 OFFCURVE",
"114 316 CURVE SMOOTH",
"71 316 OFFCURVE",
"41 276 OFFCURVE",
"25 253 CURVE SMOOTH",
"13 236 OFFCURVE",
"-21 185 OFFCURVE",
"-38 159 CURVE SMOOTH",
"-53 135 OFFCURVE",
"-68 99 OFFCURVE",
"-68 75 CURVE SMOOTH",
"-68 42 OFFCURVE",
"-32 13 OFFCURVE",
"10 6 CURVE SMOOTH"
);
},
{
closed = 1;
nodes = (
"-202 -136 OFFCURVE",
"-174 -113 OFFCURVE",
"-125 -86 CURVE SMOOTH",
"-74 -58 OFFCURVE",
"-5 -20 OFFCURVE",
"79 11 CURVE",
"-7 50 LINE",
"-43 23 OFFCURVE",
"-182 -12 OFFCURVE",
"-219 -150 CURVE"
);
}
);
width = 305;
}
);
note = AINi4;
},
{
color = 1;
glyphname = AINi5;
lastChange = "2020-11-16 20:04:07 +0000";
layers = (
{
anchors = (
{
name = bottom;
position = "{59, -307}";
},
{
name = exit;
position = "{0, 0}";
},
{
name = top;
position = "{70, 404}";
}
);
background = {
paths = (
{
closed = 1;
nodes = (
"-103 3 LINE",
"-176 -47 OFFCURVE",
"-210 -113 OFFCURVE",
"-233 -195 CURVE",
"-234 -201 OFFCURVE",
"-236 -208 OFFCURVE",
"-238 -217 CURVE",
"-239 -225 OFFCURVE",
"-240 -234 OFFCURVE",
"-240 -238 CURVE",
"-240 -241 LINE",
"-219 -230 OFFCURVE",
"-190 -192 OFFCURVE",
"-176 -172 CURVE",
"-136 -118 OFFCURVE",
"-110 -99 OFFCURVE",
"-54 -67 CURVE",
"-50 -65 OFFCURVE",
"-43 -62 OFFCURVE",
"-33 -57 CURVE",
"-23 -52 OFFCURVE",
"-16 -49 OFFCURVE",
"-12 -48 CURVE",
"0 -43 LINE",
"1 -43 OFFCURVE",
"4 -42 OFFCURVE",
"10 -40 CURVE",
"25 -35 OFFCURVE",
"41 -29 OFFCURVE",
"56 -23 CURVE",
"75 -16 LINE",
"113 -3 OFFCURVE",
"153 10 OFFCURVE",
"180 40 CURVE",
"186 45 OFFCURVE",
"189 49 OFFCURVE",
"190 51 CURVE",
"219 88 LINE",
"252 134 LINE",
"253 136 OFFCURVE",
"253 136 OFFCURVE",
"254 137 CURVE",
"254 139 LINE",
"254 143 OFFCURVE",
"252 145 OFFCURVE",
"249 145 CURVE",
"247 145 OFFCURVE",
"245 144 OFFCURVE",
"242 143 CURVE",
"227 136 LINE",
"188 120 OFFCURVE",
"145 105 OFFCURVE",
"102 102 CURVE",
"96 101 OFFCURVE",
"87 101 OFFCURVE",
"76 101 CURVE",
"38 101 OFFCURVE",
"-58 130 OFFCURVE",
"-58 179 CURVE",
"-58 207 OFFCURVE",
"-24 229 OFFCURVE",
"19 229 CURVE",
"31 229 OFFCURVE",
"44 226 OFFCURVE",
"63 222 CURVE",
"80 217 LINE",
"88 215 OFFCURVE",
"96 214 OFFCURVE",
"101 214 CURVE",
"120 214 OFFCURVE",
"129 222 OFFCURVE",
"129 240 CURVE",
"129 271 OFFCURVE",
"93 301 OFFCURVE",
"56 301 CURVE",
"-30 301 OFFCURVE",
"-141 180 OFFCURVE",
"-141 97 CURVE",
"-141 65 OFFCURVE",
"-122 39 OFFCURVE",
"-83 17 CURVE"
);
}
);
};
layerId = "6E34CE51-C086-4FF0-804E-D019E96D60E0";
paths = (
{
closed = 1;
nodes = (
"-12 -10 OFFCURVE",
"14 -18 OFFCURVE",
"37 -5 CURVE SMOOTH",
"67 12 OFFCURVE",
"109 34 OFFCURVE",
"120 40 CURVE SMOOTH",
"189 77 LINE",
"224 162 LINE",
"209 175 LINE",
"173 149 OFFCURVE",
"104 115 OFFCURVE",
"66 115 CURVE SMOOTH",
"28 115 OFFCURVE",
"-14 133 OFFCURVE",
"-34 175 CURVE",
"-34 143 LINE",
"19 207 OFFCURVE",
"48 236 OFFCURVE",
"79 236 CURVE SMOOTH",
"110 236 OFFCURVE",
"131 221 OFFCURVE",
"134 217 CURVE",
"154 247 LINE",
"138 276 OFFCURVE",
"109 304 OFFCURVE",
"70 304 CURVE SMOOTH",
"27 304 OFFCURVE",
"-3 264 OFFCURVE",
"-19 241 CURVE SMOOTH",
"-31 224 OFFCURVE",
"-65 173 OFFCURVE",
"-82 147 CURVE SMOOTH",
"-97 123 OFFCURVE",
"-112 87 OFFCURVE",
"-112 63 CURVE SMOOTH",
"-112 30 OFFCURVE",
"-76 1 OFFCURVE",
"-34 -6 CURVE SMOOTH"
);
},
{
closed = 1;
nodes = (
"-202 -220 OFFCURVE",
"-189 -181 OFFCURVE",
"-144 -133 CURVE SMOOTH",
"-107 -94 OFFCURVE",
"-54 -50 OFFCURVE",
"37 -5 CURVE",
"-69 24 LINE",
"-129 -8 OFFCURVE",
"-189 -64 OFFCURVE",
"-221 -157 CURVE SMOOTH",
"-230 -184 OFFCURVE",
"-240 -211 OFFCURVE",
"-240 -241 CURVE"
);
}
);
width = 214;
}
);
note = AINi5;
},
{
color = 1;
glyphname = AINi6;
lastChange = "2020-11-16 20:04:07 +0000";
layers = (
{
anchors = (
{
name = bottom;
position = "{166, -185}";
},
{
name = exit;
position = "{0, 0}";
},
{
name = top;
position = "{210, 512}";
}
);
background = {
paths = (
{
closed = 1;
nodes = (
"75 59 OFFCURVE",
"25 38 OFFCURVE",
"-19 38 CURVE",
"-39 38 OFFCURVE",
"-53 43 OFFCURVE",
"-73 56 CURVE",
"-82 62 OFFCURVE",
"-86 64 OFFCURVE",
"-92 64 CURVE",
"-112 64 OFFCURVE",
"-129 37 OFFCURVE",
"-129 3 CURVE",
"-129 -34 OFFCURVE",
"-106 -53 OFFCURVE",
"-62 -53 CURVE",
"-8 -53 OFFCURVE",
"82 -6 OFFCURVE",
"156 62 CURVE",
"197 99 LINE",
"210 111 OFFCURVE",
"215 115 OFFCURVE",
"225 122 CURVE",
"242 134 LINE",
"263 149 OFFCURVE",
"295 183 OFFCURVE",
"320 217 CURVE",
"347 252 LINE",
"357 266 OFFCURVE",
"364 278 OFFCURVE",
"364 282 CURVE",
"364 287 OFFCURVE",
"360 290 OFFCURVE",
"356 290 CURVE",
"352 290 OFFCURVE",
"337 278 OFFCURVE",
"334 275 CURVE",
"280 233 OFFCURVE",
"237 215 OFFCURVE",
"192 215 CURVE",
"135 215 OFFCURVE",
"84 242 OFFCURVE",
"84 272 CURVE",
"84 299 OFFCURVE",
"115 323 OFFCURVE",
"151 323 CURVE",
"154 323 OFFCURVE",
"159 323 OFFCURVE",
"165 322 CURVE",
"173 322 OFFCURVE",
"179 321 OFFCURVE",
"182 320 CURVE",
"211 313 LINE",
"220 311 OFFCURVE",
"224 309 OFFCURVE",
"225 309 CURVE",
"227 309 OFFCURVE",
"231 309 OFFCURVE",
"236 308 CURVE",
"237 308 LINE",
"254 308 OFFCURVE",
"264 318 OFFCURVE",
"264 333 CURVE",
"264 365 OFFCURVE",
"228 395 OFFCURVE",
"192 395 CURVE",
"110 395 OFFCURVE",
"11 274 OFFCURVE",
"11 197 CURVE",
"11 143 OFFCURVE",
"58 105 OFFCURVE",
"132 102 CURVE"
);
}
);
};
layerId = "6E34CE51-C086-4FF0-804E-D019E96D60E0";
paths = (
{
closed = 1;
nodes = (
"141 87 OFFCURVE",
"167 79 OFFCURVE",
"190 92 CURVE SMOOTH",
"220 109 OFFCURVE",
"262 131 OFFCURVE",
"273 137 CURVE SMOOTH",
"342 174 LINE",
"377 259 LINE",
"362 272 LINE",
"326 246 OFFCURVE",
"257 212 OFFCURVE",
"219 212 CURVE SMOOTH",
"181 212 OFFCURVE",
"139 230 OFFCURVE",
"119 272 CURVE",
"119 240 LINE",
"172 304 OFFCURVE",
"201 333 OFFCURVE",
"232 333 CURVE SMOOTH",
"263 333 OFFCURVE",
"284 318 OFFCURVE",
"287 314 CURVE",
"307 344 LINE",
"291 373 OFFCURVE",
"262 401 OFFCURVE",
"223 401 CURVE SMOOTH",
"180 401 OFFCURVE",
"150 361 OFFCURVE",
"134 338 CURVE SMOOTH",
"122 321 OFFCURVE",
"88 270 OFFCURVE",
"71 244 CURVE SMOOTH",
"56 220 OFFCURVE",
"41 184 OFFCURVE",
"41 160 CURVE SMOOTH",
"41 127 OFFCURVE",
"77 98 OFFCURVE",
"119 91 CURVE SMOOTH"
);
},
{
closed = 1;
nodes = (
"3 -53 OFFCURVE",
"73 -6 OFFCURVE",
"126 38 CURVE SMOOTH",
"146 54 OFFCURVE",
"174 82 OFFCURVE",
"190 92 CURVE",
"172 129 LINE",
"114 85 OFFCURVE",
"46 38 OFFCURVE",
"-19 38 CURVE SMOOTH",
"-61 38 OFFCURVE",
"-75 64 OFFCURVE",
"-91 64 CURVE SMOOTH",
"-121 64 OFFCURVE",
"-129 19 OFFCURVE",
"-129 2 CURVE SMOOTH",
"-129 -31 OFFCURVE",
"-107 -53 OFFCURVE",
"-66 -53 CURVE SMOOTH"
);
}
);
width = 380;
}
);
note = AINi6;
},
{
color = 1;
glyphname = AINi7;
lastChange = "2020-11-16 20:04:07 +0000";
layers = (
{
anchors = (
{
name = bottom;
position = "{188, -229}";
},
{
name = exit;
position = "{0, 0}";
},
{
name = top;
position = "{225, 491}";
}
);
background = {
paths = (
{
closed = 1;
nodes = (
"111 80 OFFCURVE",
"109 79 OFFCURVE",
"101 71 CURVE",
"89 58 LINE",
"83 53 OFFCURVE",
"80 50 OFFCURVE",
"79 49 CURVE",
"78 48 OFFCURVE",
"76 46 OFFCURVE",
"74 45 CURVE",
"73 44 OFFCURVE",
"72 43 OFFCURVE",
"71 43 CURVE",
"70 42 OFFCURVE",
"68 42 OFFCURVE",
"66 42 CURVE",
"63 42 OFFCURVE",
"55 43 OFFCURVE",
"46 46 CURVE",
"26 51 OFFCURVE",
"9 54 OFFCURVE",
"0 54 CURVE",
"-36 54 OFFCURVE",
"-97 -23 OFFCURVE",
"-97 -49 CURVE",
"-97 -60 OFFCURVE",
"-90 -69 OFFCURVE",
"-79 -72 CURVE",
"-75 -74 OFFCURVE",
"-70 -75 OFFCURVE",
"-52 -77 CURVE",
"-42 -79 OFFCURVE",
"-36 -79 OFFCURVE",
"-31 -79 CURVE",
"-20 -79 OFFCURVE",
"-9 -77 OFFCURVE",
"-2 -72 CURVE",
"0 -72 OFFCURVE",
"3 -70 OFFCURVE",
"7 -67 CURVE",
"14 -62 OFFCURVE",
"18 -59 OFFCURVE",
"19 -59 CURVE",
"20 -58 OFFCURVE",
"24 -55 OFFCURVE",
"31 -49 CURVE",
"96 8 LINE",
"101 12 OFFCURVE",
"110 20 OFFCURVE",
"120 28 CURVE",
"127 33 OFFCURVE",
"131 36 OFFCURVE",
"132 37 CURVE",
"139 43 OFFCURVE",
"143 46 OFFCURVE",
"144 47 CURVE",
"150 50 OFFCURVE",
"157 55 OFFCURVE",
"162 59 CURVE",
"177 68 OFFCURVE",
"196 80 OFFCURVE",
"213 86 CURVE",
"233 96 LINE",
"236 97 OFFCURVE",
"240 99 OFFCURVE",
"246 102 CURVE",
"260 109 LINE",
"277 117 OFFCURVE",
"289 125 OFFCURVE",
"297 133 CURVE",
"311 147 LINE",
"314 149 OFFCURVE",
"317 153 OFFCURVE",
"321 158 CURVE",
"324 162 OFFCURVE",
"327 165 OFFCURVE",
"328 166 CURVE",
"331 171 OFFCURVE",
"333 173 OFFCURVE",
"345 190 CURVE",
"349 195 OFFCURVE",
"352 199 OFFCURVE",
"353 202 CURVE",
"363 216 LINE",
"375 233 OFFCURVE",
"377 238 OFFCURVE",
"377 241 CURVE",
"377 245 OFFCURVE",
"374 248 OFFCURVE",
"371 248 CURVE",
"369 248 OFFCURVE",
"367 248 OFFCURVE",
"365 246 CURVE",
"354 239 LINE",
"316 213 OFFCURVE",
"266 193 OFFCURVE",
"219 193 CURVE",
"151 193 OFFCURVE",
"89 226 OFFCURVE",
"89 262 CURVE",
"89 288 OFFCURVE",
"124 309 OFFCURVE",
"164 309 CURVE",
"176 309 OFFCURVE",
"187 309 OFFCURVE",
"198 307 CURVE",
"199 306 OFFCURVE",
"204 305 OFFCURVE",
"213 304 CURVE",
"230 300 OFFCURVE",
"241 298 OFFCURVE",
"245 298 CURVE",
"262 298 OFFCURVE",
"274 309 OFFCURVE",
"274 324 CURVE",
"274 356 OFFCURVE",
"241 384 OFFCURVE",
"202 384 CURVE",
"123 384 OFFCURVE",
"8 262 OFFCURVE",
"8 182 CURVE",
"8 138 OFFCURVE",
"40 109 OFFCURVE",
"109 88 CURVE",
"111 87 OFFCURVE",
"114 86 OFFCURVE",
"118 85 CURVE"
);
}
);
};
layerId = "6E34CE51-C086-4FF0-804E-D019E96D60E0";
paths = (
{
closed = 1;
nodes = (
"143 77 OFFCURVE",
"169 69 OFFCURVE",
"192 82 CURVE SMOOTH",
"222 99 OFFCURVE",
"264 121 OFFCURVE",
"275 127 CURVE SMOOTH",
"344 164 LINE",
"379 249 LINE",
"364 262 LINE",
"328 236 OFFCURVE",
"259 202 OFFCURVE",
"221 202 CURVE SMOOTH",
"183 202 OFFCURVE",
"141 220 OFFCURVE",
"121 262 CURVE",
"121 230 LINE",
"174 294 OFFCURVE",
"203 323 OFFCURVE",
"234 323 CURVE SMOOTH",
"265 323 OFFCURVE",
"286 308 OFFCURVE",
"289 304 CURVE",
"309 334 LINE",
"293 363 OFFCURVE",
"264 391 OFFCURVE",
"225 391 CURVE SMOOTH",
"182 391 OFFCURVE",
"152 351 OFFCURVE",
"136 328 CURVE SMOOTH",
"124 311 OFFCURVE",
"90 260 OFFCURVE",
"73 234 CURVE SMOOTH",
"58 210 OFFCURVE",
"43 174 OFFCURVE",
"43 150 CURVE SMOOTH",
"43 117 OFFCURVE",
"79 88 OFFCURVE",
"121 81 CURVE SMOOTH"
);
},
{
closed = 1;
nodes = (
"6 -79 OFFCURVE",
"47 -34 OFFCURVE",
"95 7 CURVE SMOOTH",
"124 31 OFFCURVE",
"161 63 OFFCURVE",
"192 82 CURVE",
"152 109 LINE",
"97 77 OFFCURVE",
"79 41 OFFCURVE",
"68 42 CURVE SMOOTH",
"55 43 OFFCURVE",
"19 54 OFFCURVE",
"0 54 CURVE SMOOTH",
"-18 54 OFFCURVE",
"-39 37 OFFCURVE",
"-58 17 CURVE SMOOTH",
"-80 -7 OFFCURVE",
"-97 -36 OFFCURVE",
"-97 -49 CURVE SMOOTH",
"-97 -70 OFFCURVE",
"-75 -79 OFFCURVE",
"-26 -79 CURVE SMOOTH"
);
}
);
width = 380;
}
);
note = AINi7;
},
{
glyphname = ASTERISK;
lastChange = "2020-08-02 12:29:42 +0000";
layers = (
{
anchors = (
{
name = bottom;
position = "{0, 0}";
},
{
name = top;
position = "{0, 0}";
}
);
layerId = "6E34CE51-C086-4FF0-804E-D019E96D60E0";
paths = (
{
closed = 1;
nodes = (
"286 382 OFFCURVE",
"284 380 OFFCURVE",
"280 377 CURVE",
"268 367 LINE",
"242 345 OFFCURVE",
"224 302 OFFCURVE",
"224 264 CURVE",
"224 253 OFFCURVE",
"225 234 OFFCURVE",
"227 224 CURVE",
"231 203 LINE",
"234 190 OFFCURVE",
"235 177 OFFCURVE",
"235 168 CURVE",
"235 163 OFFCURVE",
"235 160 OFFCURVE",
"234 153 CURVE",
"236 153 LINE",
"241 167 OFFCURVE",
"245 174 OFFCURVE",
"256 188 CURVE",
"285 228 OFFCURVE",
"290 236 OFFCURVE",
"299 256 CURVE",
"306 275 OFFCURVE",
"310 293 OFFCURVE",
"310 313 CURVE",
"310 324 OFFCURVE",
"306 343 OFFCURVE",
"301 356 CURVE",
"295 372 LINE",
"293 377 OFFCURVE",
"292 380 OFFCURVE",
"290 388 CURVE"
);
},
{
closed = 1;
nodes = (
"46 306 LINE",
"53 308 OFFCURVE",
"56 309 OFFCURVE",
"60 310 CURVE",
"62 310 OFFCURVE",
"66 311 OFFCURVE",
"71 311 CURVE",
"76 312 OFFCURVE",
"80 312 OFFCURVE",
"81 312 CURVE",
"93 312 LINE",
"167 312 OFFCURVE",
"214 328 OFFCURVE",
"252 393 CURVE",
"256 400 LINE",
"259 405 OFFCURVE",
"260 406 OFFCURVE",
"263 410 CURVE",
"258 410 LINE",
"252 411 LINE",
"250 411 OFFCURVE",
"247 411 OFFCURVE",
"242 412 CURVE",
"228 414 OFFCURVE",
"221 415 OFFCURVE",
"211 415 CURVE",
"162 415 OFFCURVE",
"126 394 OFFCURVE",
"80 339 CURVE",
"67 323 OFFCURVE",
"64 320 OFFCURVE",
"50 311 CURVE",
"49 310 OFFCURVE",
"48 309 OFFCURVE",
"46 308 CURVE"
);
},
{
closed = 1;
nodes = (
"263 444 LINE",
"260 448 OFFCURVE",
"259 449 OFFCURVE",
"256 454 CURVE",
"255 456 OFFCURVE",
"253 459 OFFCURVE",
"250 465 CURVE",
"245 473 OFFCURVE",
"242 478 OFFCURVE",
"240 481 CURVE",
"237 485 OFFCURVE",
"234 490 OFFCURVE",
"230 494 CURVE",
"196 532 OFFCURVE",
"151 542 OFFCURVE",
"101 543 CURVE",
"84 544 LINE",
"69 544 OFFCURVE",
"60 546 OFFCURVE",
"48 551 CURVE",
"47 549 LINE",
"60 539 OFFCURVE",
"70 530 OFFCURVE",
"82 515 CURVE",
"91 505 OFFCURVE",
"96 499 OFFCURVE",
"97 498 CURVE",
"123 463 OFFCURVE",
"169 439 OFFCURVE",
"213 439 CURVE",
"218 439 OFFCURVE",
"224 440 OFFCURVE",
"229 440 CURVE",
"245 443 LINE",
"257 444 LINE"
);
},
{
closed = 1;
nodes = (
"292 475 OFFCURVE",
"294 478 OFFCURVE",
"300 496 CURVE",
"309 519 OFFCURVE",
"311 526 OFFCURVE",
"311 541 CURVE",
"311 578 OFFCURVE",
"298 614 OFFCURVE",
"273 646 CURVE",
"261 661 LINE",
"259 663 OFFCURVE",
"256 668 OFFCURVE",
"253 674 CURVE",
"249 680 OFFCURVE",
"247 684 OFFCURVE",
"245 687 CURVE",
"244 690 OFFCURVE",
"243 693 OFFCURVE",
"240 701 CURVE",
"237 701 LINE",
"238 694 OFFCURVE",
"239 691 OFFCURVE",
"239 686 CURVE",
"239 680 OFFCURVE",
"237 668 OFFCURVE",
"235 661 CURVE",
"231 643 LINE",
"231 639 OFFCURVE",
"229 633 OFFCURVE",
"228 625 CURVE",
"227 616 OFFCURVE",
"226 609 OFFCURVE",
"226 603 CURVE",
"225 599 OFFCURVE",
"225 595 OFFCURVE",
"225 591 CURVE",
"225 551 OFFCURVE",
"242 512 OFFCURVE",
"271 486 CURVE",
"281 478 LINE",
"282 477 OFFCURVE",
"284 474 OFFCURVE",
"287 471 CURVE",
"287 470 OFFCURVE",
"289 468 OFFCURVE",
"291 466 CURVE"
);
},
{
closed = 1;
nodes = (
"325 459 LINE",
"327 459 LINE",
"328 460 OFFCURVE",
"328 460 OFFCURVE",
"329 460 CURVE",
"335 463 OFFCURVE",
"338 463 OFFCURVE",
"347 466 CURVE",
"412 485 OFFCURVE",
"440 529 OFFCURVE",
"456 592 CURVE",
"463 620 OFFCURVE",
"467 631 OFFCURVE",
"476 645 CURVE",
"474 646 LINE",
"461 633 OFFCURVE",
"459 631 OFFCURVE",
"445 625 CURVE",
"386 595 OFFCURVE",
"330 557 OFFCURVE",
"327 484 CURVE",
"327 475 LINE",
"326 466 OFFCURVE",
"326 463 OFFCURVE",
"324 458 CURVE"
);
},
{
closed = 1;
nodes = (
"338 427 LINE",
"342 426 OFFCURVE",
"343 425 OFFCURVE",
"346 423 CURVE",
"369 408 LINE",
"391 394 OFFCURVE",
"416 387 OFFCURVE",
"446 387 CURVE",
"456 387 OFFCURVE",
"466 388 OFFCURVE",
"479 392 CURVE",
"497 396 OFFCURVE",
"510 401 OFFCURVE",
"526 409 CURVE",
"543 416 OFFCURVE",
"557 421 OFFCURVE",
"565 423 CURVE",
"568 424 OFFCURVE",
"571 424 OFFCURVE",
"577 425 CURVE",
"580 425 LINE",
"579 428 LINE",
"569 428 OFFCURVE",
"559 430 OFFCURVE",
"549 435 CURVE",
"493 458 LINE",
"482 463 OFFCURVE",
"459 466 OFFCURVE",
"443 466 CURVE",
"413 466 OFFCURVE",
"389 459 OFFCURVE",
"365 443 CURVE",
"358 438 OFFCURVE",
"354 436 OFFCURVE",
"352 435 CURVE"
);
},
{
closed = 1;
nodes = (
"325 390 OFFCURVE",
"326 388 OFFCURVE",
"326 384 CURVE",
"326 376 LINE",
"328 314 OFFCURVE",
"356 275 OFFCURVE",
"423 239 CURVE",
"442 229 LINE",
"456 222 OFFCURVE",
"465 215 OFFCURVE",
"472 206 CURVE",
"474 207 LINE",
"467 219 OFFCURVE",
"466 222 OFFCURVE",
"461 240 CURVE",
"456 258 LINE",
"448 288 OFFCURVE",
"446 294 OFFCURVE",
"440 306 CURVE",
"424 343 OFFCURVE",
"394 373 OFFCURVE",
"356 385 CURVE",
"341 389 LINE",
"337 391 OFFCURVE",
"334 392 OFFCURVE",
"323 397 CURVE"
);
}
);
width = 602;
}
);
note = ASTERISK;
},
{
color = 1;
glyphname = BEi1;
lastChange = "2020-11-16 20:04:07 +0000";
layers = (
{
anchors = (
{
name = bottom;
position = "{46, -193}";
},
{
name = exit;
position = "{0, 0}";
},
{
name = top;
position = "{69, 439}";
}
);
background = {
paths = (
{
closed = 1;
nodes = (
"-105 -44 OFFCURVE",
"-90 -51 OFFCURVE",
"-70 -51 CURVE",
"7 -51 OFFCURVE",
"90 41 OFFCURVE",
"115 109 CURVE",
"122 129 OFFCURVE",
"126 157 OFFCURVE",
"126 186 CURVE",
"126 254 LINE",
"127 292 LINE",
"127 306 OFFCURVE",
"128 312 OFFCURVE",
"128 318 CURVE",
"130 326 LINE",
"130 330 OFFCURVE",
"131 333 OFFCURVE",
"131 334 CURVE",
"133 340 LINE",
"133 343 LINE",
"133 345 OFFCURVE",
"132 346 OFFCURVE",
"130 346 CURVE",
"127 346 OFFCURVE",
"124 344 OFFCURVE",
"119 339 CURVE",
"118 337 OFFCURVE",
"114 333 OFFCURVE",
"108 326 CURVE",
"58 275 OFFCURVE",
"49 253 OFFCURVE",
"49 187 CURVE",
"49 177 LINE",
"51 142 LINE",
"51 116 LINE",
"52 96 LINE",
"52 76 OFFCURVE",
"50 66 OFFCURVE",
"44 60 CURVE",
"35 50 OFFCURVE",
"12 39 OFFCURVE",
"-18 30 CURVE",
"-57 19 LINE",
"-72 12 LINE",
"-75 11 OFFCURVE",
"-83 6 OFFCURVE",
"-89 2 CURVE",
"-94 -2 OFFCURVE",
"-97 -4 OFFCURVE",
"-99 -6 CURVE",
"-103 -11 LINE",
"-110 -18 OFFCURVE",
"-113 -23 OFFCURVE",
"-116 -30 CURVE"
);
}
);
};
layerId = "6E34CE51-C086-4FF0-804E-D019E96D60E0";
paths = (
{
closed = 1;
nodes = (
"-18 -51 OFFCURVE",
"31 -8 OFFCURVE",
"46 7 CURVE SMOOTH",
"64 25 OFFCURVE",
"84 48 OFFCURVE",
"102 82 CURVE SMOOTH",
"117 108 OFFCURVE",
"124 142 OFFCURVE",
"124 216 CURVE SMOOTH",
"124 265 OFFCURVE",
"123 292 OFFCURVE",
"136 333 CURVE",
"119 339 LINE",
"77 293 OFFCURVE",
"59 268 OFFCURVE",
"51 233 CURVE",
"53 121 OFFCURVE",
"56 83 OFFCURVE",
"40 42 CURVE",
"64 83 LINE",
"47 63 OFFCURVE",
"37 44 OFFCURVE",
"-26 28 CURVE SMOOTH",
"-69 17 OFFCURVE",
"-98 4 OFFCURVE",
"-116 -30 CURVE",
"-110 -38 OFFCURVE",
"-97 -51 OFFCURVE",
"-69 -51 CURVE SMOOTH"
);
}
);
width = 176;
}
);
note = BEi1;
},
{
color = 1;
glyphname = BEi2;
lastChange = "2020-11-16 20:04:07 +0000";
layers = (
{
anchors = (
{
name = bottom;
position = "{37, -230}";
},
{
name = exit;
position = "{7, 4}";
},
{
name = top;
position = "{77, 244}";
}
);
background = {
paths = (
{
closed = 1;
nodes = (
"-109 -41 OFFCURVE",
"-93 -50 OFFCURVE",
"-66 -50 CURVE",
"-2 -50 OFFCURVE",
"46 6 OFFCURVE",
"69 61 CURVE",
"75 73 OFFCURVE",
"77 78 OFFCURVE",
"81 87 CURVE",
"89 109 OFFCURVE",
"93 121 OFFCURVE",
"93 129 CURVE",
"93 138 OFFCURVE",
"89 143 OFFCURVE",
"82 143 CURVE",
"75 143 OFFCURVE",
"73 139 OFFCURVE",
"70 134 CURVE",
"69 132 OFFCURVE",
"67 129 OFFCURVE",
"65 123 CURVE",
"52 95 OFFCURVE",
"37 72 OFFCURVE",
"20 56 CURVE",
"11 46 OFFCURVE",
"-3 37 OFFCURVE",
"-23 30 CURVE",
"-75 10 LINE",
"-99 0 OFFCURVE",
"-112 -9 OFFCURVE",
"-117 -22 CURVE"
);
}
);
};
layerId = "6E34CE51-C086-4FF0-804E-D019E96D60E0";
paths = (
{
closed = 1;
nodes = (
"-1 -50 OFFCURVE",
"44 9 OFFCURVE",
"59 40 CURVE SMOOTH",
"69 60 OFFCURVE",
"86 94 OFFCURVE",
"94 140 CURVE",
"77 144 LINE",
"27 50 OFFCURVE",
"19 47 OFFCURVE",
"-33 26 CURVE SMOOTH",
"-67 12 OFFCURVE",
"-108 2 OFFCURVE",
"-117 -22 CURVE",
"-112 -34 OFFCURVE",
"-102 -50 OFFCURVE",
"-65 -50 CURVE SMOOTH"
);
}
);
width = 125;
}
);
note = BEi2;
},
{
color = 1;
glyphname = BEi3;
lastChange = "2020-11-16 20:04:07 +0000";
layers = (
{
anchors = (
{
name = bottom;
position = "{62, -275}";
},
{
name = exit;
position = "{-1, 1}";
},
{
name = top;
position = "{134, 253}";
}
);
background = {
paths = (
{
closed = 1;
nodes = (
"123 55 LINE",
"135 82 LINE",
"151 128 LINE",
"152 136 LINE",
"153 140 OFFCURVE",
"153 142 OFFCURVE",
"153 145 CURVE",
"153 153 OFFCURVE",
"149 158 OFFCURVE",
"143 158 CURVE",
"140 158 OFFCURVE",
"136 156 OFFCURVE",
"134 153 CURVE",
"132 150 OFFCURVE",
"130 146 OFFCURVE",
"126 139 CURVE",
"119 126 LINE",
"96 81 OFFCURVE",
"66 58 OFFCURVE",
"33 58 CURVE",
"27 58 OFFCURVE",
"25 59 OFFCURVE",
"17 60 CURVE",
"7 62 OFFCURVE",
"-1 63 OFFCURVE",
"-6 63 CURVE",
"-44 63 OFFCURVE",
"-73 31 OFFCURVE",
"-73 -11 CURVE",
"-73 -50 OFFCURVE",
"-47 -77 OFFCURVE",
"-9 -77 CURVE",
"23 -77 OFFCURVE",
"57 -54 OFFCURVE",
"84 -13 CURVE",
"99 8 LINE"
);
}
);
};
layerId = "6E34CE51-C086-4FF0-804E-D019E96D60E0";
paths = (
{
closed = 1;
nodes = (
"34 -77 OFFCURVE",
"74 -39 OFFCURVE",
"110 30 CURVE SMOOTH",
"128 64 OFFCURVE",
"145 99 OFFCURVE",
"154 149 CURVE",
"134 153 LINE",
"105 97 OFFCURVE",
"81 58 OFFCURVE",
"33 58 CURVE SMOOTH",
"22 58 OFFCURVE",
"11 63 OFFCURVE",
"-6 63 CURVE SMOOTH",
"-44 63 OFFCURVE",
"-73 31 OFFCURVE",
"-73 -11 CURVE SMOOTH",
"-73 -50 OFFCURVE",
"-47 -77 OFFCURVE",
"-9 -77 CURVE SMOOTH"
);
}
);
width = 188;
}
);
note = BEi3;
},
{
color = 1;
glyphname = BEi4;
lastChange = "2020-11-16 20:04:07 +0000";
layers = (
{
anchors = (
{
name = bottom;
position = "{85, -230}";
},
{
name = exit;
position = "{0, 0}";
},
{
name = top;
position = "{73, 232}";
}
);
background = {
paths = (
{
closed = 1;
nodes = (
"-223 -161 LINE",
"-212 -150 OFFCURVE",
"-195 -133 OFFCURVE",
"-182 -121 CURVE",
"-149 -93 OFFCURVE",
"-105 -75 OFFCURVE",
"-64 -61 CURVE",
"-35 -50 LINE",
"-16 -42 OFFCURVE",
"4 -35 OFFCURVE",
"24 -29 CURVE",
"58 -18 LINE",
"61 -16 OFFCURVE",
"72 -12 OFFCURVE",
"89 -6 CURVE",
"101 -1 OFFCURVE",
"108 1 OFFCURVE",
"111 3 CURVE",
"117 5 OFFCURVE",
"123 8 OFFCURVE",
"129 11 CURVE",
"170 36 OFFCURVE",
"204 86 OFFCURVE",
"219 130 CURVE",
"220 133 LINE",
"221 135 OFFCURVE",
"221 135 OFFCURVE",
"221 136 CURVE",
"221 139 OFFCURVE",
"219 142 OFFCURVE",
"216 142 CURVE",
"215 142 OFFCURVE",
"214 141 OFFCURVE",
"212 139 CURVE",
"201 127 OFFCURVE",
"195 122 OFFCURVE",
"183 116 CURVE",
"153 99 OFFCURVE",
"120 87 OFFCURVE",
"87 76 CURVE",
"50 64 LINE",
"-44 33 OFFCURVE",
"-115 -3 OFFCURVE",
"-153 -40 CURVE",
"-183 -68 OFFCURVE",
"-205 -106 OFFCURVE",
"-221 -155 CURVE"
);
}
);
};
layerId = "6E34CE51-C086-4FF0-804E-D019E96D60E0";
paths = (
{
closed = 1;
nodes = (
"-174 -102 OFFCURVE",
"-123 -82 OFFCURVE",
"-68 -62 CURVE SMOOTH",
"-9 -41 OFFCURVE",
"72 -12 OFFCURVE",
"93 -4 CURVE SMOOTH",
"173 28 OFFCURVE",
"204 86 OFFCURVE",
"227 148 CURVE",
"212 155 LINE",
"182 103 OFFCURVE",
"27 59 OFFCURVE",
"-25 36 CURVE SMOOTH",
"-142 -15 OFFCURVE",
"-191 -57 OFFCURVE",
"-223 -162 CURVE"
);
}
);
width = 244;
}
);
note = BEi4;
},
{
color = 1;
glyphname = BEi5;
lastChange = "2020-11-16 20:04:07 +0000";
layers = (
{
anchors = (
{
name = bottom;
position = "{84, -287}";
},
{
name = exit;
position = "{0, 0}";
},
{
name = top;
position = "{-30, 374}";
}
);
background = {
paths = (
{
closed = 1;
nodes = (
"-44 -84 LINE",
"-21 -74 OFFCURVE",
"-8 -51 OFFCURVE",
"3 -30 CURVE",
"4 -27 OFFCURVE",
"7 -21 OFFCURVE",
"11 -12 CURVE",
"14 -4 OFFCURVE",
"17 2 OFFCURVE",
"18 5 CURVE",
"19 8 OFFCURVE",
"22 15 OFFCURVE",
"26 27 CURVE",
"34 50 LINE",
"41 70 OFFCURVE",
"44 86 OFFCURVE",
"44 108 CURVE",
"44 134 OFFCURVE",
"32 176 OFFCURVE",
"16 209 CURVE",
"-17 274 LINE",
"-18 276 OFFCURVE",
"-20 278 OFFCURVE",
"-21 278 CURVE",
"-33 278 OFFCURVE",
"-74 199 OFFCURVE",
"-80 180 CURVE",
"-83 173 OFFCURVE",
"-85 168 OFFCURVE",
"-85 166 CURVE",
"-85 165 LINE",
"-80 155 LINE",
"-72 143 LINE",
"-51 111 OFFCURVE",
"-19 62 OFFCURVE",
"-19 24 CURVE",
"-19 12 OFFCURVE",
"-21 1 OFFCURVE",
"-25 -9 CURVE",
"-30 -19 LINE",
"-39 -41 OFFCURVE",
"-44 -62 OFFCURVE",
"-44 -77 CURVE"
);
}
);
};
layerId = "6E34CE51-C086-4FF0-804E-D019E96D60E0";
paths = (
{
closed = 1;
nodes = (
"-18 -74 OFFCURVE",
"3 -37 OFFCURVE",
"21 12 CURVE SMOOTH",
"34 48 OFFCURVE",
"44 73 OFFCURVE",
"44 110 CURVE SMOOTH",
"44 132 OFFCURVE",
"39 171 OFFCURVE",
"-17 273 CURVE",
"-30 274 LINE",
"-78 183 LINE",
"-78 168 LINE",
"-64 151 OFFCURVE",
"-17 87 OFFCURVE",
"-11 0 CURVE",
"3 73 LINE",
"-11 69 LINE",
"-11 50 OFFCURVE",
"-15 25 OFFCURVE",
"-20 7 CURVE SMOOTH",
"-25 -11 OFFCURVE",
"-32 -20 OFFCURVE",
"-37 -37 CURVE SMOOTH",
"-42 -54 OFFCURVE",
"-44 -65 OFFCURVE",
"-44 -84 CURVE"
);
}
);
width = 200;
}
);
note = BEi5;
},
{
color = 1;
glyphname = BEi6;
lastChange = "2020-11-16 20:04:07 +0000";
layers = (
{
anchors = (
{
name = bottom;
position = "{187, -199}";
},
{
name = exit;
position = "{0, 0}";
},
{
name = top;
position = "{200, 288}";
}
);
background = {
paths = (
{
closed = 1;
nodes = (
"-103 -44 OFFCURVE",
"-87 -51 OFFCURVE",
"-67 -51 CURVE",
"-33 -51 OFFCURVE",
"9 -29 OFFCURVE",
"44 8 CURVE",
"55 19 LINE",
"69 33 OFFCURVE",
"83 42 OFFCURVE",
"102 49 CURVE",
"106 50 OFFCURVE",
"111 52 OFFCURVE",
"119 54 CURVE",
"134 59 OFFCURVE",
"149 63 OFFCURVE",
"164 66 CURVE",
"199 74 LINE",
"217 77 LINE",
"243 82 OFFCURVE",
"259 87 OFFCURVE",
"268 93 CURVE",
"274 97 OFFCURVE",
"280 104 OFFCURVE",
"287 113 CURVE",
"294 121 OFFCURVE",
"295 122 OFFCURVE",
"308 142 CURVE",
"320 159 LINE",
"325 166 OFFCURVE",
"330 173 OFFCURVE",
"339 187 CURVE",
"346 199 LINE",
"352 207 OFFCURVE",
"353 209 OFFCURVE",
"353 211 CURVE",
"353 213 OFFCURVE",
"352 214 OFFCURVE",
"348 214 CURVE",
"342 214 LINE",
"299 208 LINE",
"294 207 OFFCURVE",
"287 206 OFFCURVE",
"275 204 CURVE",
"264 202 OFFCURVE",
"255 201 OFFCURVE",
"251 200 CURVE",
"177 183 OFFCURVE",
"141 171 OFFCURVE",
"89 119 CURVE",
"82 111 OFFCURVE",
"77 105 OFFCURVE",
"74 102 CURVE",
"60 85 LINE",
"47 69 OFFCURVE",
"38 60 OFFCURVE",
"28 52 CURVE",
"19 46 OFFCURVE",
"10 42 OFFCURVE",
"-2 37 CURVE",
"-6 35 OFFCURVE",
"-13 33 OFFCURVE",
"-23 30 CURVE",
"-43 23 LINE",
"-74 12 OFFCURVE",
"-86 5 OFFCURVE",
"-100 -9 CURVE",
"-106 -16 OFFCURVE",
"-109 -20 OFFCURVE",
"-115 -29 CURVE"
);
}
);
};
layerId = "6E34CE51-C086-4FF0-804E-D019E96D60E0";
paths = (
{
closed = 1;
nodes = (
"-75 -76 OFFCURVE",
"-8 -35 OFFCURVE",
"10 -22 CURVE SMOOTH",
"46 4 OFFCURVE",
"59 32 OFFCURVE",
"90 44 CURVE SMOOTH",
"171 75 OFFCURVE",
"222 76 OFFCURVE",
"259 87 CURVE",
"280 104 OFFCURVE",
"328 169 OFFCURVE",
"345 200 CURVE",
"333 212 LINE",
"238 196 OFFCURVE",
"150 186 OFFCURVE",
"84 113 CURVE SMOOTH",
"66 93 OFFCURVE",
"51 71 OFFCURVE",
"30 54 CURVE SMOOTH",
"18 44 OFFCURVE",
"3 38 OFFCURVE",
"-16 32 CURVE SMOOTH",
"-24 29 OFFCURVE",
"-57 20 OFFCURVE",
"-74 10 CURVE SMOOTH",
"-88 2 OFFCURVE",
"-100 -4 OFFCURVE",
"-115 -29 CURVE"
);
}
);
width = 379;
}
);
note = BEi6;
},
{
color = 1;
glyphname = BEi7;
lastChange = "2020-11-16 20:04:07 +0000";
layers = (
{
anchors = (
{
name = bottom;
position = "{92, -261}";
},
{
name = exit;
position = "{0, 0}";
},
{
name = top;
position = "{104, 250}";
}
);
background = {
paths = (
{
closed = 1;
nodes = (
"-47 -81 LINE",
"-44 -78 OFFCURVE",
"-42 -76 OFFCURVE",
"-41 -75 CURVE",
"-40 -73 OFFCURVE",
"-37 -70 OFFCURVE",
"-32 -64 CURVE",
"-30 -62 OFFCURVE",
"-27 -58 OFFCURVE",
"-23 -53 CURVE",
"-18 -47 OFFCURVE",
"-14 -42 OFFCURVE",
"-12 -40 CURVE",
"1 -24 OFFCURVE",
"10 -15 OFFCURVE",
"22 -6 CURVE",
"24 -4 OFFCURVE",
"28 -1 OFFCURVE",
"34 3 CURVE",
"41 7 OFFCURVE",
"45 10 OFFCURVE",
"47 11 CURVE",
"90 38 LINE",
"99 44 OFFCURVE",
"104 48 OFFCURVE",
"105 48 CURVE",
"107 49 OFFCURVE",
"112 53 OFFCURVE",
"120 59 CURVE",
"135 70 OFFCURVE",
"137 71 OFFCURVE",
"142 75 CURVE",
"148 80 OFFCURVE",
"151 84 OFFCURVE",
"156 94 CURVE",
"160 100 OFFCURVE",
"162 104 OFFCURVE",
"163 107 CURVE",
"164 108 OFFCURVE",
"166 113 OFFCURVE",
"170 123 CURVE",
"184 157 LINE",
"192 181 LINE",
"194 185 OFFCURVE",
"195 188 OFFCURVE",
"195 190 CURVE",
"195 192 OFFCURVE",
"194 192 OFFCURVE",
"193 192 CURVE",
"192 192 OFFCURVE",
"190 191 OFFCURVE",
"185 187 CURVE",
"104 130 LINE",
"39 83 OFFCURVE",
"-36 17 OFFCURVE",
"-45 -68 CURVE"
);
}
);
};
layerId = "6E34CE51-C086-4FF0-804E-D019E96D60E0";
paths = (
{
closed = 1;
nodes = (
"-18 -50 OFFCURVE",
"1 -18 OFFCURVE",
"34 3 CURVE SMOOTH",
"67 24 OFFCURVE",
"118 56 OFFCURVE",
"152 76 CURVE",
"193 181 LINE",
"182 185 LINE",
"168 175 OFFCURVE",
"66 107 OFFCURVE",
"9 46 CURVE SMOOTH",
"-20 15 OFFCURVE",
"-42 -30 OFFCURVE",
"-47 -81 CURVE"
);
}
);
width = 221;
}
);
note = BEi7;
},
{
color = 1;
glyphname = BEi8;
lastChange = "2020-11-16 20:04:07 +0000";
layers = (
{
anchors = (
{
name = bottom;
position = "{124, -208}";
},
{
name = exit;
position = "{0, 0}";
},
{
name = top;
position = "{139, 278}";
}
);
background = {
paths = (
{
closed = 1;
nodes = (
"-44 -82 LINE",
"-27 -64 LINE",
"-25 -62 OFFCURVE",
"-23 -59 OFFCURVE",
"-19 -55 CURVE",
"-9 -44 LINE",
"1 -32 OFFCURVE",
"3 -30 OFFCURVE",
"10 -23 CURVE",
"21 -14 OFFCURVE",
"29 -7 OFFCURVE",
"41 0 CURVE",
"48 5 OFFCURVE",
"62 13 OFFCURVE",
"78 22 CURVE",
"91 29 OFFCURVE",
"97 32 OFFCURVE",
"113 40 CURVE",
"129 47 LINE",
"154 59 OFFCURVE",
"175 70 OFFCURVE",
"183 76 CURVE",
"195 85 OFFCURVE",
"201 93 OFFCURVE",
"217 121 CURVE",
"251 183 LINE",
"258 198 LINE",
"259 200 OFFCURVE",
"259 202 OFFCURVE",
"259 203 CURVE",
"259 206 OFFCURVE",
"256 209 OFFCURVE",
"253 209 CURVE",
"252 209 OFFCURVE",
"250 208 OFFCURVE",
"247 206 CURVE",
"242 203 LINE",
"232 197 OFFCURVE",
"207 183 OFFCURVE",
"186 172 CURVE",
"159 158 LINE",
"129 142 OFFCURVE",
"115 134 OFFCURVE",
"103 126 CURVE",
"88 117 OFFCURVE",
"64 101 OFFCURVE",
"55 93 CURVE",
"14 61 OFFCURVE",
"-45 -22 OFFCURVE",
"-45 -75 CURVE",
"-45 -77 OFFCURVE",
"-45 -79 OFFCURVE",
"-44 -81 CURVE"
);
}
);
};
layerId = "6E34CE51-C086-4FF0-804E-D019E96D60E0";
paths = (
{
closed = 1;
nodes = (
"-25 -63 OFFCURVE",
"-10 -42 OFFCURVE",
"12 -22 CURVE SMOOTH",
"22 -12 OFFCURVE",
"34 -5 OFFCURVE",
"47 4 CURVE SMOOTH",
"78 24 OFFCURVE",
"117 45 OFFCURVE",
"186 78 CURVE",
"201 93 OFFCURVE",
"245 167 OFFCURVE",
"258 198 CURVE",
"247 206 LINE",
"108 129 LINE SMOOTH",
"-13 62 OFFCURVE",
"-53 -60 OFFCURVE",
"-44 -82 CURVE"
);
}
);
width = 282;
}
);
note = BEi8;
},
{
color = 1;
glyphname = BEi9;
lastChange = "2020-11-16 20:04:07 +0000";
layers = (
{
anchors = (
{
name = bottom;
position = "{51, -257}";
},
{
name = exit;
position = "{0, 0}";
},
{
name = top;
position = "{94, 238}";
}
);
background = {
paths = (
{
closed = 1;
nodes = (
"-275 -112 LINE",
"-230 -91 LINE",
"-195 -76 OFFCURVE",
"-169 -70 OFFCURVE",
"-131 -70 CURVE",
"-111 -70 OFFCURVE",
"-90 -71 OFFCURVE",
"-75 -74 CURVE",
"-51 -78 LINE",
"-41 -80 OFFCURVE",
"-30 -81 OFFCURVE",
"-20 -81 CURVE",
"0 -81 OFFCURVE",
"9 -77 OFFCURVE",
"31 -60 CURVE",
"53 -41 OFFCURVE",
"73 -21 OFFCURVE",
"91 1 CURVE",
"126 47 OFFCURVE",
"153 100 OFFCURVE",
"153 125 CURVE",
"153 132 OFFCURVE",
"151 135 OFFCURVE",
"145 135 CURVE",
"140 135 OFFCURVE",
"138 133 OFFCURVE",
"134 128 CURVE",
"128 117 LINE",
"103 76 OFFCURVE",
"69 46 OFFCURVE",
"47 46 CURVE",
"43 46 OFFCURVE",
"37 47 OFFCURVE",
"32 48 CURVE",
"24 50 LINE",
"4 56 OFFCURVE",
"-27 60 OFFCURVE",
"-46 60 CURVE",
"-123 60 OFFCURVE",
"-196 15 OFFCURVE",
"-247 -64 CURVE",
"-259 -83 LINE",
"-263 -89 OFFCURVE",
"-265 -94 OFFCURVE",
"-267 -96 CURVE"
);
}
);
};
layerId = "6E34CE51-C086-4FF0-804E-D019E96D60E0";
paths = (
{
closed = 1;
nodes = (
"-210 -79 OFFCURVE",
"-179 -70 OFFCURVE",
"-127 -70 CURVE SMOOTH",
"-74 -70 OFFCURVE",
"-53 -81 OFFCURVE",
"-15 -81 CURVE SMOOTH",
"10 -81 OFFCURVE",
"37 -58 OFFCURVE",
"63 -30 CURVE SMOOTH",
"101 11 OFFCURVE",
"130 50 OFFCURVE",
"152 113 CURVE",
"129 119 LINE",
"117 95 OFFCURVE",
"76 46 OFFCURVE",
"47 46 CURVE SMOOTH",
"29 46 OFFCURVE",
"0 60 OFFCURVE",
"-49 60 CURVE SMOOTH",
"-131 60 OFFCURVE",
"-218 4 OFFCURVE",
"-275 -112 CURVE"
);
}
);
width = 184;
}
);
note = BEi9;
},
{
glyphname = BULLET;
lastChange = "2020-08-02 12:29:42 +0000";
layers = (
{
anchors = (
{
name = bottom;
position = "{0, 0}";
},
{
name = top;
position = "{0, 0}";
}
);
layerId = "6E34CE51-C086-4FF0-804E-D019E96D60E0";
paths = (
{
closed = 1;
nodes = (
"250 736 OFFCURVE",
"76 562 OFFCURVE",
"76 347 CURVE",
"76 135 OFFCURVE",
"248 -37 OFFCURVE",
"460 -37 CURVE",
"674 -37 OFFCURVE",
"848 138 OFFCURVE",
"848 354 CURVE",
"848 558 OFFCURVE",
"679 727 OFFCURVE",
"464 736 CURVE"
);
}
);
width = 925;
}
);
note = BULLET;
},
{
glyphname = CLOSE_BRACKET;
lastChange = "2020-08-02 12:29:42 +0000";
layers = (
{
anchors = (
{
name = bottom;
position = "{0, 0}";
},
{
name = top;
position = "{0, 0}";
}
);
layerId = "6E34CE51-C086-4FF0-804E-D019E96D60E0";
paths = (
{
closed = 1;
nodes = (
"267 735 LINE",
"127 622 OFFCURVE",
"42 449 OFFCURVE",
"42 280 CURVE",
"42 112 OFFCURVE",
"123 -53 OFFCURVE",
"265 -170 CURVE",
"287 -189 LINE",
"299 -198 OFFCURVE",
"305 -202 OFFCURVE",
"308 -202 CURVE",
"312 -202 OFFCURVE",
"314 -200 OFFCURVE",
"314 -197 CURVE",
"314 -194 OFFCURVE",
"313 -191 OFFCURVE",
"309 -187 CURVE",
"188 -48 OFFCURVE",
"133 103 OFFCURVE",
"133 287 CURVE",
"133 433 OFFCURVE",
"176 579 OFFCURVE",
"265 696 CURVE",
"268 701 OFFCURVE",
"275 710 OFFCURVE",
"286 722 CURVE",
"303 744 LINE",
"306 748 OFFCURVE",
"308 750 OFFCURVE",
"309 751 CURVE",
"309 752 OFFCURVE",
"309 752 OFFCURVE",
"310 753 CURVE",
"312 755 OFFCURVE",
"312 756 OFFCURVE",
"312 757 CURVE",
"312 761 OFFCURVE",
"310 764 OFFCURVE",
"307 764 CURVE",
"303 764 OFFCURVE",
"298 761 OFFCURVE",
"288 752 CURVE"
);
}
);
width = 329;
}
);
note = CLOSE_BRACKET;
},
{
glyphname = CLOSE_DOUBLE_QUOTE;
layers = (
{
layerId = "6E34CE51-C086-4FF0-804E-D019E96D60E0";
paths = (
{
closed = 1;
nodes = (
"129 591 OFFCURVE",
"121 604 OFFCURVE",
"121 624 CURVE",
"121 664 OFFCURVE",
"149 704 OFFCURVE",
"203 742 CURVE",
"212 748 OFFCURVE",
"212 748 OFFCURVE",
"212 752 CURVE",
"212 756 OFFCURVE",
"210 759 OFFCURVE",
"206 759 CURVE",
"201 759 OFFCURVE",
"189 753 OFFCURVE",
"175 744 CURVE",
"172 743 OFFCURVE",
"168 740 OFFCURVE",
"162 736 CURVE",
"155 731 OFFCURVE",
"150 728 OFFCURVE",
"147 726 CURVE",
"101 689 OFFCURVE",
"66 653 OFFCURVE",
"66 590 CURVE",
"66 533 OFFCURVE",
"104 491 OFFCURVE",
"157 491 CURVE",
"193 491 OFFCURVE",
"218 512 OFFCURVE",
"218 542 CURVE",
"218 569 OFFCURVE",
"201 587 OFFCURVE",
"174 587 CURVE",
"166 587 OFFCURVE",
"158 585 OFFCURVE",
"147 582 CURVE"
);
},
{
closed = 1;
nodes = (
"321 591 OFFCURVE",
"313 604 OFFCURVE",
"313 624 CURVE",
"313 664 OFFCURVE",
"341 704 OFFCURVE",
"395 742 CURVE",
"404 748 OFFCURVE",
"405 748 OFFCURVE",
"405 752 CURVE",
"405 756 OFFCURVE",
"402 759 OFFCURVE",
"398 759 CURVE",
"393 759 OFFCURVE",
"381 753 OFFCURVE",
"367 744 CURVE",
"365 743 OFFCURVE",
"360 740 OFFCURVE",
"354 736 CURVE",
"347 731 OFFCURVE",
"342 728 OFFCURVE",
"339 726 CURVE",
"294 690 OFFCURVE",
"258 652 OFFCURVE",
"258 590 CURVE",
"258 533 OFFCURVE",
"296 491 OFFCURVE",
"349 491 CURVE",
"385 491 OFFCURVE",
"411 512 OFFCURVE",
"411 542 CURVE",
"411 569 OFFCURVE",
"393 587 OFFCURVE",
"366 587 CURVE",
"358 587 OFFCURVE",
"350 585 OFFCURVE",
"339 582 CURVE"
);
}
);
width = 485;
}
);
note = CLOSE_DOUBLE_QUOTE;
},
{
glyphname = CLOSE_FAN_BR;
lastChange = "2020-08-02 12:29:42 +0000";
layers = (
{
anchors = (
{
name = bottom;
position = "{0, 0}";
},
{
name = top;
position = "{0, 0}";
}
);
layerId = "6E34CE51-C086-4FF0-804E-D019E96D60E0";
paths = (
{
closed = 1;
nodes = (
"368 134 OFFCURVE",
"367 135 OFFCURVE",
"364 135 CURVE",
"348 139 LINE",
"339 140 LINE",
"306 144 OFFCURVE",
"280 159 OFFCURVE",
"271 179 CURVE",
"269 179 OFFCURVE",
"268 176 OFFCURVE",
"268 174 CURVE",
"268 171 OFFCURVE",
"270 167 OFFCURVE",
"274 160 CURVE",
"281 151 OFFCURVE",
"285 145 OFFCURVE",
"294 139 CURVE",
"306 129 OFFCURVE",
"316 125 OFFCURVE",
"342 119 CURVE",
"367 113 OFFCURVE",
"379 109 OFFCURVE",
"383 105 CURVE",
"390 98 LINE",
"391 95 LINE",
"392 95 OFFCURVE",
"392 94 OFFCURVE",
"393 94 CURVE",
"396 94 OFFCURVE",
"397 98 OFFCURVE",
"398 105 CURVE",
"398 114 LINE",
"399 118 LINE",
"397 134 LINE",
"395 150 OFFCURVE",
"379 189 OFFCURVE",
"358 189 CURVE",
"357 189 OFFCURVE",
"356 189 OFFCURVE",
"353 188 CURVE",
"354 187 OFFCURVE",
"354 187 OFFCURVE",
"355 186 CURVE",
"355 185 OFFCURVE",
"356 184 OFFCURVE",
"358 182 CURVE",
"367 174 OFFCURVE",
"373 158 OFFCURVE",
"373 146 CURVE",
"373 142 OFFCURVE",
"373 139 OFFCURVE",
"371 133 CURVE"
);
},
{
closed = 1;
nodes = (
"461 275 OFFCURVE",
"458 273 OFFCURVE",
"454 270 CURVE",
"430 246 LINE",
"406 219 OFFCURVE",
"370 203 OFFCURVE",
"337 203 CURVE",
"333 203 OFFCURVE",
"328 203 OFFCURVE",
"322 204 CURVE",
"318 205 OFFCURVE",
"316 205 OFFCURVE",
"314 206 CURVE",
"312 207 OFFCURVE",
"312 207 OFFCURVE",
"311 207 CURVE",
"309 207 OFFCURVE",
"308 205 OFFCURVE",
"308 203 CURVE",
"308 198 OFFCURVE",
"324 194 OFFCURVE",
"344 194 CURVE",
"399 194 OFFCURVE",
"425 212 OFFCURVE",
"464 248 CURVE",
"479 261 OFFCURVE",
"485 265 OFFCURVE",
"490 269 CURVE",
"493 271 OFFCURVE",
"497 273 OFFCURVE",
"501 276 CURVE",
"503 277 OFFCURVE",
"505 278 OFFCURVE",
"506 279 CURVE",
"515 282 LINE",
"517 282 LINE",
"517 286 LINE",
"516 286 OFFCURVE",
"516 286 OFFCURVE",
"515 287 CURVE",
"513 287 LINE",
"512 288 OFFCURVE",
"511 288 OFFCURVE",
"509 288 CURVE",
"470 299 LINE",
"457 303 OFFCURVE",
"445 305 OFFCURVE",
"433 305 CURVE",
"420 305 OFFCURVE",
"406 302 OFFCURVE",
"393 295 CURVE",
"384 291 OFFCURVE",
"379 287 OFFCURVE",
"379 285 CURVE",
"379 284 OFFCURVE",
"379 284 OFFCURVE",
"380 283 CURVE",
"381 282 LINE",
"382 282 OFFCURVE",
"382 282 OFFCURVE",
"383 283 CURVE",
"385 283 OFFCURVE",
"385 283 OFFCURVE",
"386 284 CURVE",
"393 286 LINE",
"399 288 OFFCURVE",
"408 289 OFFCURVE",
"418 289 CURVE",
"436 289 OFFCURVE",
"455 284 OFFCURVE",
"466 277 CURVE"
);
},
{
closed = 1;
nodes = (
"367 287 LINE",
"368 287 OFFCURVE",
"369 287 OFFCURVE",
"369 288 CURVE",
"397 305 OFFCURVE",
"411 326 OFFCURVE",
"421 356 CURVE",
"424 366 OFFCURVE",
"433 387 OFFCURVE",
"441 393 CURVE",
"448 401 LINE",
"451 404 OFFCURVE",
"453 406 OFFCURVE",
"454 406 CURVE",
"457 408 OFFCURVE",
"458 409 OFFCURVE",
"458 410 CURVE",
"458 412 OFFCURVE",
"457 413 OFFCURVE",
"456 413 CURVE",
"455 413 OFFCURVE",
"455 413 OFFCURVE",
"452 412 CURVE",
"449 411 OFFCURVE",
"447 410 OFFCURVE",
"434 410 CURVE",
"422 409 OFFCURVE",
"418 409 OFFCURVE",
"412 408 CURVE",
"386 408 OFFCURVE",
"363 400 OFFCURVE",
"345 384 CURVE",
"335 376 LINE",
"332 373 OFFCURVE",
"332 372 OFFCURVE",
"332 370 CURVE",
"333 368 OFFCURVE",
"333 368 OFFCURVE",
"334 368 CURVE",
"335 368 OFFCURVE",
"335 368 OFFCURVE",
"336 369 CURVE",
"346 374 LINE",
"347 375 OFFCURVE",
"351 376 OFFCURVE",
"356 378 CURVE",
"369 383 LINE",
"371 384 OFFCURVE",
"375 385 OFFCURVE",
"382 386 CURVE",
"385 386 OFFCURVE",
"389 387 OFFCURVE",
"392 387 CURVE",
"394 388 OFFCURVE",
"396 388 OFFCURVE",
"398 388 CURVE",
"402 388 OFFCURVE",
"404 387 OFFCURVE",
"409 386 CURVE",
"406 383 OFFCURVE",
"404 379 OFFCURVE",
"400 360 CURVE",
"395 341 OFFCURVE",
"392 330 OFFCURVE",
"389 322 CURVE",
"385 313 OFFCURVE",
"378 302 OFFCURVE",
"375 299 CURVE",
"369 294 LINE",
"367 292 OFFCURVE",
"367 290 OFFCURVE",
"367 289 CURVE"
);
},
{
closed = 1;
nodes = (
"321 373 OFFCURVE",
"321 373 OFFCURVE",
"322 373 CURVE",
"332 373 OFFCURVE",
"343 410 OFFCURVE",
"343 418 CURVE",
"343 432 OFFCURVE",
"336 447 OFFCURVE",
"321 465 CURVE",
"311 477 OFFCURVE",
"306 488 OFFCURVE",
"306 498 CURVE",
"306 503 LINE",
"306 505 OFFCURVE",
"305 505 OFFCURVE",
"304 505 CURVE",
"303 505 OFFCURVE",
"302 505 OFFCURVE",
"301 502 CURVE",
"294 489 OFFCURVE",
"288 482 OFFCURVE",
"274 473 CURVE",
"262 465 OFFCURVE",
"255 460 OFFCURVE",
"254 459 CURVE",
"247 454 OFFCURVE",
"241 448 OFFCURVE",
"237 442 CURVE",
"233 435 OFFCURVE",
"230 424 OFFCURVE",
"230 417 CURVE",
"230 412 OFFCURVE",
"231 405 OFFCURVE",
"234 399 CURVE",
"235 396 OFFCURVE",
"236 395 OFFCURVE",
"236 394 CURVE",
"237 393 LINE",
"240 393 LINE",
"240 397 LINE",
"240 421 OFFCURVE",
"250 434 OFFCURVE",
"282 450 CURVE",
"291 455 OFFCURVE",
"292 455 OFFCURVE",
"294 458 CURVE",
"295 457 OFFCURVE",
"295 457 OFFCURVE",
"295 456 CURVE",
"296 456 OFFCURVE",
"297 455 OFFCURVE",
"298 453 CURVE",
"312 438 LINE",
"324 426 OFFCURVE",
"329 415 OFFCURVE",
"329 402 CURVE",
"329 393 OFFCURVE",
"326 385 OFFCURVE",
"320 375 CURVE"
);
},
{
closed = 1;
nodes = (
"160 402 LINE",
"192 402 OFFCURVE",
"222 391 OFFCURVE",
"233 375 CURVE",
"236 371 LINE",
"237 369 OFFCURVE",
"238 369 OFFCURVE",
"239 369 CURVE",
"240 369 OFFCURVE",
"241 370 OFFCURVE",
"241 371 CURVE",
"241 373 LINE",
"238 379 LINE",
"228 403 OFFCURVE",
"204 416 OFFCURVE",
"157 423 CURVE",
"146 425 OFFCURVE",
"139 426 OFFCURVE",
"137 426 CURVE",
"114 430 LINE",
"112 430 LINE",
"111 430 OFFCURVE",
"110 429 OFFCURVE",
"110 428 CURVE",
"117 422 LINE",
"125 415 OFFCURVE",
"132 401 OFFCURVE",
"134 386 CURVE",
"135 371 LINE",
"139 337 OFFCURVE",
"152 312 OFFCURVE",
"165 312 CURVE",
"167 313 OFFCURVE",
"167 313 OFFCURVE",
"167 314 CURVE",
"165 316 OFFCURVE",
"165 317 OFFCURVE",
"164 320 CURVE",
"160 329 LINE",
"158 333 OFFCURVE",
"157 345 OFFCURVE",
"157 357 CURVE",
"157 365 LINE",
"158 378 LINE",
"158 382 LINE",
"158 391 OFFCURVE",
"157 398 OFFCURVE",
"155 402 CURVE"
);
},
{
closed = 1;
nodes = (
"73 293 LINE",
"85 298 LINE",
"92 301 OFFCURVE",
"108 304 OFFCURVE",
"120 304 CURVE",
"138 304 OFFCURVE",
"162 297 OFFCURVE",
"172 289 CURVE",
"176 287 OFFCURVE",
"178 285 OFFCURVE",
"179 285 CURVE",
"181 285 LINE",
"183 287 LINE",
"183 288 LINE",
"183 291 OFFCURVE",
"174 299 OFFCURVE",
"160 306 CURVE",
"144 316 OFFCURVE",
"125 321 OFFCURVE",
"108 321 CURVE",
"86 321 OFFCURVE",
"61 314 OFFCURVE",
"31 301 CURVE",
"25 299 OFFCURVE",
"21 297 OFFCURVE",
"18 296 CURVE",
"16 296 OFFCURVE",
"15 295 OFFCURVE",
"15 294 CURVE",
"15 292 OFFCURVE",
"16 291 OFFCURVE",
"19 291 CURVE",
"36 289 OFFCURVE",
"56 279 OFFCURVE",
"77 261 CURVE",
"93 246 LINE",
"129 215 OFFCURVE",
"155 202 OFFCURVE",
"192 198 CURVE",
"185 196 OFFCURVE",
"180 193 OFFCURVE",
"174 188 CURVE",
"170 185 OFFCURVE",
"165 179 OFFCURVE",
"153 163 CURVE",
"139 144 OFFCURVE",
"130 138 OFFCURVE",
"119 138 CURVE",
"116 138 OFFCURVE",
"112 139 OFFCURVE",
"110 140 CURVE",
"108 141 LINE",
"107 141 OFFCURVE",
"106 140 OFFCURVE",
"106 138 CURVE",
"106 136 OFFCURVE",
"108 134 OFFCURVE",
"112 131 CURVE",
"130 119 OFFCURVE",
"150 113 OFFCURVE",
"172 113 CURVE",
"201 113 OFFCURVE",
"230 125 OFFCURVE",
"249 144 CURVE",
"256 152 OFFCURVE",
"261 160 OFFCURVE",
"261 165 CURVE",
"261 167 OFFCURVE",
"260 168 OFFCURVE",
"257 171 CURVE",
"249 150 OFFCURVE",
"216 134 OFFCURVE",
"181 134 CURVE",
"171 134 OFFCURVE",
"165 135 OFFCURVE",
"155 138 CURVE",
"160 140 OFFCURVE",
"161 141 OFFCURVE",
"164 146 CURVE",
"169 151 LINE",
"169 152 OFFCURVE",
"171 155 OFFCURVE",
"173 160 CURVE",
"185 181 OFFCURVE",
"198 193 OFFCURVE",
"217 200 CURVE",
"221 202 LINE",
"222 202 OFFCURVE",
"222 202 OFFCURVE",
"222 203 CURVE",
"222 204 LINE",
"221 205 OFFCURVE",
"221 206 OFFCURVE",
"220 206 CURVE",
"218 206 LINE",
"217 206 OFFCURVE",
"216 206 OFFCURVE",
"214 205 CURVE",
"211 205 OFFCURVE",
"208 204 OFFCURVE",
"205 204 CURVE",
"183 204 OFFCURVE",
"154 219 OFFCURVE",
"132 241 CURVE",
"101 272 LINE",
"91 282 OFFCURVE",
"84 288 OFFCURVE",
"75 292 CURVE"
);
},
{
closed = 1;
nodes = (
"290 220 LINE",
"290 219 OFFCURVE",
"291 217 OFFCURVE",
"292 217 CURVE",
"293 216 OFFCURVE",
"293 216 OFFCURVE",
"294 216 CURVE",
"298 216 OFFCURVE",
"306 220 OFFCURVE",
"312 226 CURVE",
"329 241 OFFCURVE",
"339 264 OFFCURVE",
"339 288 CURVE",
"339 324 OFFCURVE",
"311 354 OFFCURVE",
"276 354 CURVE",
"238 354 OFFCURVE",
"207 321 OFFCURVE",
"207 281 CURVE",
"207 247 OFFCURVE",
"233 214 OFFCURVE",
"260 214 CURVE",
"265 214 OFFCURVE",
"267 215 OFFCURVE",
"268 219 CURVE",
"244 221 OFFCURVE",
"226 246 OFFCURVE",
"226 276 CURVE",
"226 310 OFFCURVE",
"248 335 OFFCURVE",
"278 335 CURVE",
"305 335 OFFCURVE",
"325 313 OFFCURVE",
"325 282 CURVE",
"325 256 OFFCURVE",
"311 232 OFFCURVE",
"290 221 CURVE"
);
},
{
closed = 1;
nodes = (
"589 -245 LINE",
"460 -177 OFFCURVE",
"373 -54 OFFCURVE",
"348 89 CURVE",
"346 102 OFFCURVE",
"340 109 OFFCURVE",
"331 109 CURVE",
"330 109 OFFCURVE",
"330 108 OFFCURVE",
"330 104 CURVE",
"330 101 OFFCURVE",
"331 95 OFFCURVE",
"333 86 CURVE",
"346 31 LINE",
"371 -74 OFFCURVE",
"439 -161 OFFCURVE",
"526 -222 CURVE",
"525 -223 LINE",
"366 -177 OFFCURVE",
"254 -61 OFFCURVE",
"234 105 CURVE",
"233 108 OFFCURVE",
"233 110 OFFCURVE",
"233 112 CURVE",
"233 114 OFFCURVE",
"233 114 OFFCURVE",
"232 114 CURVE",
"226 114 OFFCURVE",
"220 102 OFFCURVE",
"220 96 CURVE",
"220 93 OFFCURVE",
"220 86 OFFCURVE",
"221 81 CURVE",
"231 9 OFFCURVE",
"263 -58 OFFCURVE",
"311 -113 CURVE",
"381 -194 OFFCURVE",
"473 -238 OFFCURVE",
"588 -246 CURVE"
);
},
{
closed = 1;
nodes = (
"519 743 LINE",
"515 740 OFFCURVE",
"512 737 OFFCURVE",
"509 736 CURVE",
"489 720 OFFCURVE",
"477 711 OFFCURVE",
"473 707 CURVE",
"466 702 OFFCURVE",
"459 694 OFFCURVE",
"450 686 CURVE",
"419 650 OFFCURVE",
"390 616 OFFCURVE",
"370 572 CURVE",
"356 540 OFFCURVE",
"342 492 OFFCURVE",
"342 471 CURVE",
"342 466 OFFCURVE",
"343 461 OFFCURVE",
"345 459 CURVE",
"348 454 LINE",
"350 451 OFFCURVE",
"350 449 OFFCURVE",
"351 449 CURVE",
"352 449 OFFCURVE",
"352 449 OFFCURVE",
"352 450 CURVE",
"352 452 LINE",
"365 505 LINE",
"391 619 OFFCURVE",
"482 710 OFFCURVE",
"581 766 CURVE",
"581 767 LINE",
"408 752 OFFCURVE",
"250 640 OFFCURVE",
"222 463 CURVE",
"222 460 OFFCURVE",
"221 458 OFFCURVE",
"221 456 CURVE",
"221 454 OFFCURVE",
"222 452 OFFCURVE",
"223 452 CURVE",
"230 452 OFFCURVE",
"237 465 OFFCURVE",
"242 486 CURVE",
"253 536 OFFCURVE",
"293 602 OFFCURVE",
"336 644 CURVE",
"390 694 OFFCURVE",
"451 722 OFFCURVE",
"519 744 CURVE"
);
}
);
width = 612;
}
);
note = CLOSE_FAN_BR;
},
{
glyphname = CLOSE_QUOTE;
lastChange = "2020-08-02 12:29:42 +0000";
layers = (
{
anchors = (
{
name = bottom;
position = "{0, 0}";
},
{
name = top;
position = "{0, 0}";
}
);
layerId = "6E34CE51-C086-4FF0-804E-D019E96D60E0";
paths = (
{
closed = 1;
nodes = (
"133 590 OFFCURVE",
"123 606 OFFCURVE",
"123 626 CURVE",
"123 658 OFFCURVE",
"153 704 OFFCURVE",
"195 735 CURVE",
"211 747 LINE",
"216 750 OFFCURVE",
"216 751 OFFCURVE",
"216 754 CURVE",
"216 758 OFFCURVE",
"215 759 OFFCURVE",
"212 759 CURVE",
"202 759 OFFCURVE",
"174 743 OFFCURVE",
"145 721 CURVE",
"92 680 OFFCURVE",
"67 638 OFFCURVE",
"67 589 CURVE",
"67 531 OFFCURVE",
"105 489 OFFCURVE",
"158 489 CURVE",
"195 489 OFFCURVE",
"225 514 OFFCURVE",
"225 547 CURVE",
"225 572 OFFCURVE",
"205 589 OFFCURVE",
"177 589 CURVE",
"170 589 OFFCURVE",
"163 588 OFFCURVE",
"150 584 CURVE"
);
}
);
width = 299;
}
);
note = CLOSE_QUOTE;
},
{
glyphname = COLON;
lastChange = "2020-08-02 12:29:42 +0000";
layers = (
{
anchors = (
{
name = bottom;
position = "{0, 0}";
},
{
name = top;
position = "{0, 0}";
}
);
layerId = "6E34CE51-C086-4FF0-804E-D019E96D60E0";
paths = (
{
closed = 1;
nodes = (
"120 388 OFFCURVE",
"95 362 OFFCURVE",
"95 332 CURVE",
"95 301 OFFCURVE",
"120 276 OFFCURVE",
"150 276 CURVE",
"181 276 OFFCURVE",
"206 301 OFFCURVE",
"206 332 CURVE",
"206 363 OFFCURVE",
"181 388 OFFCURVE",
"150 388 CURVE"
);
},
{
closed = 1;
nodes = (
"120 111 OFFCURVE",
"95 86 OFFCURVE",
"95 56 CURVE",
"95 25 OFFCURVE",
"120 0 OFFCURVE",
"150 0 CURVE",
"181 0 OFFCURVE",
"206 25 OFFCURVE",
"206 56 CURVE",
"206 87 OFFCURVE",
"181 111 OFFCURVE",
"150 111 CURVE"
);
}
);
width = 299;
}
);
note = COLON;
},
{
glyphname = COMMA;
lastChange = "2020-08-02 12:29:42 +0000";
layers = (
{
anchors = (
{
name = bottom;
position = "{0, 0}";
},
{
name = top;
position = "{0, 0}";
}
);
layerId = "6E34CE51-C086-4FF0-804E-D019E96D60E0";
paths = (
{
closed = 1;
nodes = (
"129 116 OFFCURVE",
"124 127 OFFCURVE",
"124 145 CURVE",
"124 190 OFFCURVE",
"173 250 OFFCURVE",
"212 270 CURVE",
"218 275 LINE",
"222 278 OFFCURVE",
"223 280 OFFCURVE",
"223 282 CURVE",
"223 286 OFFCURVE",
"220 288 OFFCURVE",
"216 288 CURVE",
"200 288 OFFCURVE",
"145 249 OFFCURVE",
"132 238 CURVE",
"86 199 OFFCURVE",
"59 148 OFFCURVE",
"59 101 CURVE",
"59 43 OFFCURVE",
"98 1 OFFCURVE",
"153 1 CURVE",
"195 1 OFFCURVE",
"226 28 OFFCURVE",
"226 64 CURVE",
"226 94 OFFCURVE",
"205 114 OFFCURVE",
"173 114 CURVE",
"164 114 OFFCURVE",
"153 112 OFFCURVE",
"140 108 CURVE"
);
}
);
width = 299;
}
);
note = COMMA;
},
{
glyphname = DECIMAL_PT;
lastChange = "2020-08-02 12:29:42 +0000";
layers = (
{
anchors = (
{
name = bottom;
position = "{0, 0}";
},
{
name = top;
position = "{0, 0}";
}
);
layerId = "6E34CE51-C086-4FF0-804E-D019E96D60E0";
paths = (
{
closed = 1;
nodes = (
"160 36 OFFCURVE",
"169 21 OFFCURVE",
"169 0 CURVE",
"169 -33 OFFCURVE",
"142 -75 OFFCURVE",
"102 -104 CURVE",
"87 -115 LINE",
"80 -120 OFFCURVE",
"76 -124 OFFCURVE",
"76 -127 CURVE",
"76 -130 OFFCURVE",
"79 -134 OFFCURVE",
"82 -134 CURVE",
"102 -134 OFFCURVE",
"165 -84 OFFCURVE",
"179 -69 CURVE",
"212 -35 OFFCURVE",
"227 -1 OFFCURVE",
"227 37 CURVE",
"227 95 OFFCURVE",
"188 138 OFFCURVE",
"136 138 CURVE",
"98 138 OFFCURVE",
"68 113 OFFCURVE",
"68 81 CURVE",
"68 54 OFFCURVE",
"86 39 OFFCURVE",
"117 39 CURVE",
"126 39 OFFCURVE",
"133 40 OFFCURVE",
"143 42 CURVE"
);
}
);
width = 300;
}
);
note = DECIMAL_PT;
},
{
glyphname = DEGREE;
lastChange = "2020-08-02 12:29:42 +0000";
layers = (
{
anchors = (
{
name = bottom;
position = "{0, 0}";
},
{
name = top;
position = "{0, 0}";
}
);
layerId = "6E34CE51-C086-4FF0-804E-D019E96D60E0";
paths = (
{
closed = 1;
nodes = (
"97 670 OFFCURVE",
"52 623 OFFCURVE",
"52 565 CURVE",
"52 510 OFFCURVE",
"99 463 OFFCURVE",
"153 463 CURVE",
"211 463 OFFCURVE",
"257 510 OFFCURVE",
"257 568 CURVE",
"257 624 OFFCURVE",
"211 670 OFFCURVE",
"154 670 CURVE"
);
},
{
closed = 1;
nodes = (
"191 633 OFFCURVE",
"221 603 OFFCURVE",
"221 567 CURVE",
"221 530 OFFCURVE",
"191 500 OFFCURVE",
"155 500 CURVE",
"118 500 OFFCURVE",
"88 530 OFFCURVE",
"88 567 CURVE",
"88 603 OFFCURVE",
"118 633 OFFCURVE",
"155 633 CURVE"
);
}
);
width = 311;
}
);
note = DEGREE;
},
{
glyphname = DIVIDE;
lastChange = "2020-08-02 12:29:42 +0000";
layers = (
{
anchors = (
{
name = bottom;
position = "{0, 0}";
},
{
name = top;
position = "{0, 0}";
}
);
layerId = "6E34CE51-C086-4FF0-804E-D019E96D60E0";
paths = (
{
closed = 1;
nodes = (
"36 296 LINE",
"36 256 LINE",
"462 256 LINE",
"462 296 LINE"
);
},
{
closed = 1;
nodes = (
"223 466 OFFCURVE",
"201 445 OFFCURVE",
"201 419 CURVE",
"201 392 OFFCURVE",
"223 371 OFFCURVE",
"250 371 CURVE",
"276 371 OFFCURVE",
"297 392 OFFCURVE",
"297 419 CURVE",
"297 445 OFFCURVE",
"275 466 OFFCURVE",
"249 466 CURVE"
);
},
{
closed = 1;
nodes = (
"223 181 OFFCURVE",
"202 160 OFFCURVE",
"202 134 CURVE",
"202 108 OFFCURVE",
"223 86 OFFCURVE",
"250 86 CURVE",
"276 86 OFFCURVE",
"297 107 OFFCURVE",
"297 134 CURVE",
"297 160 OFFCURVE",
"276 181 OFFCURVE",
"249 181 CURVE"
);
}
);
width = 499;
}
);
note = DIVIDE;
},
{
glyphname = DOLLAR;
lastChange = "2020-08-02 12:29:42 +0000";
layers = (
{
anchors = (
{
name = bottom;
position = "{0, 0}";
},
{
name = top;
position = "{0, 0}";
}
);
layerId = "6E34CE51-C086-4FF0-804E-D019E96D60E0";
paths = (
{
closed = 1;
nodes = (
"133 288 OFFCURVE",
"139 284 OFFCURVE",
"145 282 CURVE",
"148 280 OFFCURVE",
"156 277 OFFCURVE",
"170 272 CURVE",
"203 259 LINE",
"203 82 LINE",
"199 82 LINE",
"179 82 OFFCURVE",
"141 88 OFFCURVE",
"120 94 CURVE",
"93 103 OFFCURVE",
"81 114 OFFCURVE",
"76 138 CURVE",
"76 139 OFFCURVE",
"76 139 OFFCURVE",
"75 141 CURVE",
"70 141 LINE",
"69 132 OFFCURVE",
"69 129 OFFCURVE",
"67 121 CURVE",
"65 109 OFFCURVE",
"64 102 OFFCURVE",
"64 100 CURVE",
"63 94 OFFCURVE",
"62 87 OFFCURVE",
"62 81 CURVE",
"61 74 OFFCURVE",
"61 69 OFFCURVE",
"61 63 CURVE",
"61 36 OFFCURVE",
"66 26 OFFCURVE",
"84 19 CURVE",
"102 12 OFFCURVE",
"123 9 OFFCURVE",
"148 9 CURVE",
"170 9 OFFCURVE",
"187 10 OFFCURVE",
"203 13 CURVE",
"203 -69 LINE",
"233 -69 LINE",
"233 20 LINE",
"317 44 OFFCURVE",
"385 134 OFFCURVE",
"385 219 CURVE",
"385 291 OFFCURVE",
"349 331 OFFCURVE",
"257 362 CURVE",
"245 366 OFFCURVE",
"239 368 OFFCURVE",
"238 369 CURVE",
"237 369 OFFCURVE",
"236 370 OFFCURVE",
"233 371 CURVE",
"233 523 LINE",
"294 520 OFFCURVE",
"331 505 OFFCURVE",
"344 478 CURVE",
"348 478 LINE",
"350 504 OFFCURVE",
"351 525 OFFCURVE",
"351 542 CURVE",
"351 570 OFFCURVE",
"350 575 OFFCURVE",
"337 580 CURVE",
"323 586 OFFCURVE",
"298 590 OFFCURVE",
"275 590 CURVE",
"262 590 OFFCURVE",
"242 589 OFFCURVE",
"233 588 CURVE",
"233 657 LINE",
"203 657 LINE",
"203 583 LINE",
"122 561 OFFCURVE",
"61 486 OFFCURVE",
"61 407 CURVE",
"61 353 OFFCURVE",
"81 319 OFFCURVE",
"126 292 CURVE"
);
},
{
closed = 1;
nodes = (
"233 250 LINE",
"275 236 OFFCURVE",
"324 216 OFFCURVE",
"324 164 CURVE",
"324 120 OFFCURVE",
"289 89 OFFCURVE",
"233 84 CURVE"
);
},
{
closed = 1;
nodes = (
"203 523 LINE",
"203 377 LINE",
"142 397 OFFCURVE",
"115 422 OFFCURVE",
"115 459 CURVE",
"115 493 OFFCURVE",
"149 520 OFFCURVE",
"198 523 CURVE"
);
}
);
width = 430;
}
);
note = DOLLAR;
},
{
color = 9;
glyphname = EIGHT;
lastChange = "2020-11-16 20:04:07 +0000";
layers = (
{
anchors = (
{
name = bottom;
position = "{0, 0}";
},
{
name = top;
position = "{0, 0}";
}
);
backgroundImage = {
crop = "{{0, 0}, {120.48, 145.44}}";
imagePath = "../../../../_01_Calligraphic Models (Amir)/_numbers/08.tif";
locked = "1";
transform = "{3.5, 0, 0, 3.5, 51, 38}";
};
layerId = "6E34CE51-C086-4FF0-804E-D019E96D60E0";
paths = (
{
closed = 1;
nodes = (
"227 340 LINE",
"208 340 LINE",
"331 129 LINE",
"357 129 LINE",
"388 219 LINE SMOOTH",
"397 246 OFFCURVE",
"402 274 OFFCURVE",
"375 317 CURVE SMOOTH",
"257 502 LINE",
"233 502 LINE",
"93 192 LINE SMOOTH",
"85 174 OFFCURVE",
"71 140 OFFCURVE",
"78 78 CURVE",
"103 68 LINE"
);
}
);
width = 500;
}
);
note = EIGHT;
},
{
glyphname = EN_RULE;
lastChange = "2020-08-02 12:29:42 +0000";
layers = (
{
anchors = (
{
name = bottom;
position = "{0, 0}";
},
{
name = top;
position = "{0, 0}";
}
);
layerId = "6E34CE51-C086-4FF0-804E-D019E96D60E0";
paths = (
{
closed = 1;
nodes = (
"66 258 LINE",
"66 210 LINE",
"900 210 LINE",
"900 258 LINE"
);
}
);
width = 969;
}
);
note = EN_RULE;
},
{
glyphname = EQUALS;
lastChange = "2020-08-02 12:29:42 +0000";
layers = (
{
anchors = (
{
name = bottom;
position = "{0, 0}";
},
{
name = top;
position = "{0, 0}";
}
);
layerId = "6E34CE51-C086-4FF0-804E-D019E96D60E0";
paths = (
{
closed = 1;
nodes = (
"37 355 LINE",
"37 315 LINE",
"463 315 LINE",
"463 355 LINE"
);
},
{
closed = 1;
nodes = (
"463 195 LINE",
"463 235 LINE",
"37 235 LINE",
"37 195 LINE"
);
}
);
width = 499;
}
);
note = EQUALS;
},
{
glyphname = EXCLAMATION;
lastChange = "2020-08-02 12:29:42 +0000";
layers = (
{
anchors = (
{
name = bottom;
position = "{0, 0}";
},
{
name = top;
position = "{0, 0}";
}
);
layerId = "6E34CE51-C086-4FF0-804E-D019E96D60E0";
paths = (
{
closed = 1;
nodes = (
"214 586 OFFCURVE",
"192 604 OFFCURVE",
"172 604 CURVE",
"135 604 OFFCURVE",
"112 565 OFFCURVE",
"112 504 CURVE",
"112 430 OFFCURVE",
"128 335 OFFCURVE",
"141 261 CURVE",
"148 218 OFFCURVE",
"153 188 OFFCURVE",
"155 183 CURVE",
"156 180 OFFCURVE",
"157 179 OFFCURVE",
"159 179 CURVE",
"163 179 OFFCURVE",
"165 182 OFFCURVE",
"166 189 CURVE",
"185 362 LINE",
"185 367 OFFCURVE",
"186 379 OFFCURVE",
"189 398 CURVE",
"189 431 OFFCURVE",
"202 531 OFFCURVE",
"226 559 CURVE"
);
},
{
closed = 1;
nodes = (
"133 109 OFFCURVE",
"109 85 OFFCURVE",
"109 55 CURVE",
"109 25 OFFCURVE",
"133 0 OFFCURVE",
"163 0 CURVE",
"193 0 OFFCURVE",
"217 25 OFFCURVE",
"217 55 CURVE",
"217 85 OFFCURVE",
"193 109 OFFCURVE",
"162 109 CURVE"
);
}
);
width = 323;
}
);
note = EXCLAMATION;
},
{
glyphname = FATHA_TANWIN;
lastChange = "2020-08-02 12:29:42 +0000";
layers = (
{
anchors = (
{
name = bottom;
position = "{0, 0}";
},
{
name = top;
position = "{0, 0}";
}
);
layerId = "6E34CE51-C086-4FF0-804E-D019E96D60E0";
paths = (
{
closed = 1;
nodes = (
"7 140 LINE",
"18 152 OFFCURVE",
"28 160 OFFCURVE",
"41 168 CURVE",
"49 173 OFFCURVE",
"61 180 OFFCURVE",
"86 194 CURVE",
"95 199 OFFCURVE",
"103 203 OFFCURVE",
"109 207 CURVE",
"134 219 LINE",
"139 222 OFFCURVE",
"147 226 OFFCURVE",
"158 232 CURVE",
"166 237 OFFCURVE",
"173 241 OFFCURVE",
"179 244 CURVE",
"231 272 OFFCURVE",
"243 280 OFFCURVE",
"260 338 CURVE",
"257 340 LINE",
"253 336 OFFCURVE",
"246 332 OFFCURVE",
"237 325 CURVE",
"224 316 OFFCURVE",
"215 311 OFFCURVE",
"191 299 CURVE",
"176 291 OFFCURVE",
"164 285 OFFCURVE",
"157 281 CURVE",
"130 268 LINE",
"126 266 OFFCURVE",
"119 262 OFFCURVE",
"108 256 CURVE",
"90 246 LINE",
"59 230 OFFCURVE",
"39 216 OFFCURVE",
"33 210 CURVE",
"30 207 OFFCURVE",
"28 203 OFFCURVE",
"25 196 CURVE",
"18 182 OFFCURVE",
"10 161 OFFCURVE",
"4 141 CURVE"
);
},
{
closed = 1;
nodes = (
"6 232 LINE",
"8 234 LINE",
"20 246 OFFCURVE",
"32 255 OFFCURVE",
"43 262 CURVE",
"88 289 LINE",
"141 317 LINE",
"146 320 OFFCURVE",
"155 324 OFFCURVE",
"169 331 CURVE",
"206 351 OFFCURVE",
"228 364 OFFCURVE",
"233 371 CURVE",
"239 378 OFFCURVE",
"244 390 OFFCURVE",
"253 410 CURVE",
"261 430 LINE",
"258 432 LINE",
"245 419 OFFCURVE",
"231 411 OFFCURVE",
"179 385 CURVE",
"153 371 LINE",
"131 360 OFFCURVE",
"47 318 OFFCURVE",
"32 300 CURVE",
"24 290 OFFCURVE",
"14 266 OFFCURVE",
"4 233 CURVE"
);
}
);
width = 266;
}
);
note = FATHA_TANWIN;
},
{
color = 1;
glyphname = FEi1;
lastChange = "2020-11-16 20:04:07 +0000";
layers = (
{
anchors = (
{
name = bottom;
position = "{53, -173}";
},
{
name = exit;
position = "{0, 0}";
},
{
name = top;
position = "{111, 478}";
}
);
background = {
paths = (
{
closed = 1;
nodes = (
"180 159 OFFCURVE",
"183 185 OFFCURVE",
"183 220 CURVE SMOOTH",
"183 284 OFFCURVE",
"165 378 OFFCURVE",
"111 378 CURVE SMOOTH",
"73 378 OFFCURVE",
"62 352 OFFCURVE",
"53 327 CURVE SMOOTH",
"17 225 LINE",
"11 176 OFFCURVE",
"45 147 OFFCURVE",
"85 147 CURVE SMOOTH",
"108 147 OFFCURVE",
"132 156 OFFCURVE",
"148 176 CURVE",
"162 181 LINE",
"177 143 LINE"
);
}
);
};
layerId = "6E34CE51-C086-4FF0-804E-D019E96D60E0";
paths = (
{
closed = 1;
nodes = (
"-50 -50 OFFCURVE",
"23 -34 OFFCURVE",
"91 21 CURVE SMOOTH",
"161 78 OFFCURVE",
"183 145 OFFCURVE",
"183 221 CURVE SMOOTH",
"183 280 OFFCURVE",
"166 378 OFFCURVE",
"111 378 CURVE SMOOTH",
"81 378 OFFCURVE",
"66 363 OFFCURVE",
"53 327 CURVE SMOOTH",
"17 225 LINE",
"11 173 OFFCURVE",
"48 147 OFFCURVE",
"84 147 CURVE SMOOTH",
"106 147 OFFCURVE",
"130 154 OFFCURVE",
"148 176 CURVE",
"112 177 LINE",
"149 135 LINE",
"141 162 LINE",
"149 92 OFFCURVE",
"-3 33 OFFCURVE",
"-52 20 CURVE SMOOTH",
"-77 14 OFFCURVE",
"-101 -8 OFFCURVE",
"-115 -27 CURVE",
"-108 -46 OFFCURVE",
"-89 -50 OFFCURVE",
"-71 -50 CURVE SMOOTH"
);
}
);
width = 216;
}
);
note = FEi1;
},
{
color = 1;
glyphname = FEi2;
lastChange = "2020-11-16 20:04:07 +0000";
layers = (
{
anchors = (
{
name = bottom;
position = "{60, -201}";
},
{
name = exit;
position = "{0, 0}";
},
{
name = top;
position = "{119, 462}";
}
);
background = {
paths = (
{
closed = 1;
nodes = (
"159 141 OFFCURVE",
"163 135 OFFCURVE",
"163 124 CURVE",
"163 108 OFFCURVE",
"144 88 OFFCURVE",
"115 74 CURVE",
"93 62 OFFCURVE",
"69 57 OFFCURVE",
"45 57 CURVE",
"38 57 OFFCURVE",
"29 57 OFFCURVE",
"22 59 CURVE",
"9 61 LINE",
"4 62 OFFCURVE",
"-1 63 OFFCURVE",
"-6 63 CURVE",
"-45 63 OFFCURVE",
"-72 32 OFFCURVE",
"-72 -12 CURVE",
"-72 -49 OFFCURVE",
"-45 -76 OFFCURVE",
"-9 -76 CURVE",
"114 -76 OFFCURVE",
"209 89 OFFCURVE",
"209 199 CURVE",
"209 289 OFFCURVE",
"166 362 OFFCURVE",
"114 362 CURVE",
"98 362 OFFCURVE",
"83 355 OFFCURVE",
"73 344 CURVE",
"68 337 OFFCURVE",
"64 329 OFFCURVE",
"59 312 CURVE",
"58 308 OFFCURVE",
"56 301 OFFCURVE",
"53 292 CURVE",
"45 263 OFFCURVE",
"41 251 OFFCURVE",
"32 222 CURVE",
"26 203 OFFCURVE",
"24 194 OFFCURVE",
"24 184 CURVE",
"24 155 OFFCURVE",
"51 132 OFFCURVE",
"84 132 CURVE",
"110 132 OFFCURVE",
"126 142 OFFCURVE",
"147 155 CURVE"
);
}
);
};
layerId = "6E34CE51-C086-4FF0-804E-D019E96D60E0";
paths = (
{
closed = 1;
nodes = (
"44 -76 OFFCURVE",
"97 -42 OFFCURVE",
"135 5 CURVE SMOOTH",
"181 63 OFFCURVE",
"205 134 OFFCURVE",
"205 202 CURVE SMOOTH",
"205 259 OFFCURVE",
"181 362 OFFCURVE",
"119 362 CURVE SMOOTH",
"81 362 OFFCURVE",
"70 336 OFFCURVE",
"61 311 CURVE SMOOTH",
"25 209 LINE",
"19 160 OFFCURVE",
"53 131 OFFCURVE",
"93 131 CURVE SMOOTH",
"118 131 OFFCURVE",
"143 141 OFFCURVE",
"160 164 CURVE",
"137 166 LINE",
"181 99 LINE",
"178 145 LINE",
"167 120 OFFCURVE",
"134 57 OFFCURVE",
"46 57 CURVE SMOOTH",
"26 57 OFFCURVE",
"8 63 OFFCURVE",
"-9 63 CURVE SMOOTH",
"-27 63 OFFCURVE",
"-72 47 OFFCURVE",
"-72 -9 CURVE SMOOTH",
"-72 -66 OFFCURVE",
"-27 -76 OFFCURVE",
"-11 -76 CURVE SMOOTH"
);
}
);
width = 240;
}
);
note = FEi2;
},
{
color = 1;
glyphname = FEi3;
lastChange = "2020-11-16 20:04:07 +0000";
layers = (
{
anchors = (
{
name = bottom;
position = "{35, -281}";
},
{
name = exit;
position = "{0, 0}";
},
{
name = top;
position = "{-8, 403}";
}
);
background = {
paths = (
{
closed = 1;
nodes = (
"5 76 OFFCURVE",
"8 68 OFFCURVE",
"8 59 CURVE",
"8 51 OFFCURVE",
"4 41 OFFCURVE",
"-15 7 CURVE",
"-36 -30 OFFCURVE",
"-45 -52 OFFCURVE",
"-45 -73 CURVE",
"-45 -75 OFFCURVE",
"-44 -76 OFFCURVE",
"-43 -80 CURVE",
"-31 -73 OFFCURVE",
"-18 -59 OFFCURVE",
"-6 -39 CURVE",
"5 -21 LINE",
"7 -18 OFFCURVE",
"12 -11 OFFCURVE",
"18 -2 CURVE",
"27 11 OFFCURVE",
"33 20 OFFCURVE",
"45 40 CURVE",
"68 76 OFFCURVE",
"79 109 OFFCURVE",
"79 152 CURVE",
"79 236 OFFCURVE",
"39 301 OFFCURVE",
"-13 301 CURVE",
"-52 301 OFFCURVE",
"-62 279 OFFCURVE",
"-72 245 CURVE",
"-73 239 OFFCURVE",
"-76 230 OFFCURVE",
"-80 216 CURVE",
"-96 161 LINE",
"-102 143 OFFCURVE",
"-104 134 OFFCURVE",
"-104 127 CURVE",
"-104 95 OFFCURVE",
"-77 72 OFFCURVE",
"-41 72 CURVE",
"-27 72 OFFCURVE",
"-19 74 OFFCURVE",
"-1 81 CURVE"
);
}
);
};
layerId = "6E34CE51-C086-4FF0-804E-D019E96D60E0";
paths = (
{
closed = 1;
nodes = (
"-20 -67 OFFCURVE",
"-2 -32 OFFCURVE",
"24 7 CURVE SMOOTH",
"49 44 OFFCURVE",
"74 92 OFFCURVE",
"74 145 CURVE SMOOTH",
"74 209 OFFCURVE",
"54 303 OFFCURVE",
"-8 303 CURVE SMOOTH",
"-46 303 OFFCURVE",
"-57 277 OFFCURVE",
"-66 252 CURVE SMOOTH",
"-102 150 LINE",
"-108 101 OFFCURVE",
"-74 72 OFFCURVE",
"-34 72 CURVE SMOOTH",
"-12 72 OFFCURVE",
"10 79 OFFCURVE",
"27 98 CURVE",
"-6 98 LINE",
"35 66 LINE",
"35 93 LINE",
"-8 20 OFFCURVE",
"-54 -50 OFFCURVE",
"-43 -80 CURVE"
);
}
);
width = 200;
}
);
note = FEi3;
},
{
color = 1;
glyphname = FEi4;
lastChange = "2020-11-16 20:04:07 +0000";
layers = (
{
anchors = (
{
name = bottom;
position = "{12, -188}";
},
{
name = exit;
position = "{0, 0}";
},
{
name = top;
position = "{29, 425}";
}
);
background = {
paths = (
{
closed = 1;
nodes = (
"64 102 OFFCURVE",
"68 95 OFFCURVE",
"68 87 CURVE",
"68 74 OFFCURVE",
"61 67 OFFCURVE",
"40 58 CURVE",
"14 48 LINE",
"-32 27 LINE",
"-55 17 OFFCURVE",
"-86 1 OFFCURVE",
"-103 -11 CURVE",
"-142 -34 OFFCURVE",
"-188 -93 OFFCURVE",
"-205 -134 CURVE",
"-201 -132 OFFCURVE",
"-199 -130 OFFCURVE",
"-197 -129 CURVE",
"-167 -105 OFFCURVE",
"-120 -79 OFFCURVE",
"-79 -63 CURVE",
"-50 -51 LINE",
"-7 -34 OFFCURVE",
"17 -23 OFFCURVE",
"30 -15 CURVE",
"82 17 OFFCURVE",
"119 97 OFFCURVE",
"119 156 CURVE",
"119 244 OFFCURVE",
"73 322 OFFCURVE",
"22 322 CURVE",
"7 322 OFFCURVE",
"-11 315 OFFCURVE",
"-19 305 CURVE",
"-25 299 OFFCURVE",
"-29 289 OFFCURVE",
"-38 262 CURVE",
"-48 229 LINE",
"-62 186 OFFCURVE",
"-64 180 OFFCURVE",
"-66 166 CURVE",
"-68 160 OFFCURVE",
"-68 154 OFFCURVE",
"-68 148 CURVE",
"-68 118 OFFCURVE",
"-40 96 OFFCURVE",
"-3 96 CURVE",
"15 96 OFFCURVE",
"33 102 OFFCURVE",
"52 116 CURVE"
);
}
);
};
layerId = "6E34CE51-C086-4FF0-804E-D019E96D60E0";
paths = (
{
closed = 1;
nodes = (
"-182 -117 OFFCURVE",
"-141 -88 OFFCURVE",
"-74 -61 CURVE SMOOTH",
"-29 -43 OFFCURVE",
"16 -28 OFFCURVE",
"50 1 CURVE SMOOTH",
"86 31 OFFCURVE",
"111 97 OFFCURVE",
"111 149 CURVE SMOOTH",
"111 225 OFFCURVE",
"91 325 OFFCURVE",
"29 325 CURVE SMOOTH",
"-9 325 OFFCURVE",
"-20 299 OFFCURVE",
"-29 274 CURVE SMOOTH",
"-65 172 LINE",
"-71 123 OFFCURVE",
"-37 94 OFFCURVE",
"3 94 CURVE SMOOTH",
"25 94 OFFCURVE",
"48 103 OFFCURVE",
"64 121 CURVE",
"44 127 LINE",
"77 80 LINE",
"74 107 LINE",
"74 61 OFFCURVE",
"-9 41 OFFCURVE",
"-50 19 CURVE SMOOTH",
"-93 -4 OFFCURVE",
"-152 -29 OFFCURVE",
"-205 -134 CURVE"
);
}
);
width = 146;
}
);
note = FEi4;
},
{
color = 1;
glyphname = FEi5;
lastChange = "2020-11-16 20:04:07 +0000";
layers = (
{
anchors = (
{
name = bottom;
position = "{41, -167}";
},
{
name = exit;
position = "{0, 0}";
},
{
name = top;
position = "{65, 462}";
}
);
background = {
paths = (
{
closed = 1;
nodes = (
"100 140 OFFCURVE",
"103 133 OFFCURVE",
"103 124 CURVE",
"103 87 OFFCURVE",
"19 38 OFFCURVE",
"-19 38 CURVE",
"-36 38 OFFCURVE",
"-50 42 OFFCURVE",
"-70 54 CURVE",
"-81 61 OFFCURVE",
"-84 62 OFFCURVE",
"-91 62 CURVE",
"-113 62 OFFCURVE",
"-129 37 OFFCURVE",
"-129 2 CURVE",
"-129 -32 OFFCURVE",
"-107 -52 OFFCURVE",
"-69 -52 CURVE",
"-25 -52 OFFCURVE",
"31 -25 OFFCURVE",
"72 15 CURVE",
"121 63 OFFCURVE",
"150 130 OFFCURVE",
"150 195 CURVE",
"150 287 OFFCURVE",
"109 364 OFFCURVE",
"58 364 CURVE",
"44 364 OFFCURVE",
"28 358 OFFCURVE",
"21 350 CURVE",
"15 344 OFFCURVE",
"6 325 OFFCURVE",
"1 308 CURVE",
"-24 230 LINE",
"-32 207 OFFCURVE",
"-35 189 OFFCURVE",
"-35 178 CURVE",
"-35 149 OFFCURVE",
"-9 130 OFFCURVE",
"30 130 CURVE",
"51 130 OFFCURVE",
"69 136 OFFCURVE",
"91 149 CURVE"
);
}
);
};
layerId = "6E34CE51-C086-4FF0-804E-D019E96D60E0";
paths = (
{
closed = 1;
nodes = (
"-41 -52 OFFCURVE",
"16 -38 OFFCURVE",
"68 11 CURVE SMOOTH",
"124 63 OFFCURVE",
"145 131 OFFCURVE",
"145 192 CURVE SMOOTH",
"145 260 OFFCURVE",
"124 362 OFFCURVE",
"65 362 CURVE SMOOTH",
"27 362 OFFCURVE",
"16 336 OFFCURVE",
"7 311 CURVE SMOOTH",
"-29 209 LINE",
"-35 160 OFFCURVE",
"-1 131 OFFCURVE",
"39 131 CURVE SMOOTH",
"61 131 OFFCURVE",
"86 140 OFFCURVE",
"101 158 CURVE",
"83 160 LINE",
"116 117 LINE",
"117 146 LINE",
"100 83 OFFCURVE",
"24 38 OFFCURVE",
"-19 38 CURVE SMOOTH",
"-56 38 OFFCURVE",
"-74 62 OFFCURVE",
"-91 62 CURVE SMOOTH",
"-120 62 OFFCURVE",
"-129 21 OFFCURVE",
"-129 2 CURVE SMOOTH",
"-129 -46 OFFCURVE",
"-86 -52 OFFCURVE",
"-68 -52 CURVE SMOOTH"
);
}
);
width = 216;
}
);
note = FEi5;
},
{
color = 1;
glyphname = FEi6;
lastChange = "2020-11-16 20:04:07 +0000";
layers = (
{
anchors = (
{
name = bottom;
position = "{66, -181}";
},
{
name = exit;
position = "{-6, 1}";
},
{
name = top;
position = "{85, 462}";
}
);
background = {
paths = (
{
closed = 1;
nodes = (
"122 144 OFFCURVE",
"125 137 OFFCURVE",
"125 132 CURVE",
"125 117 OFFCURVE",
"99 89 OFFCURVE",
"70 71 CURVE",
"34 50 OFFCURVE",
"3 38 OFFCURVE",
"-21 38 CURVE",
"-39 38 OFFCURVE",
"-51 42 OFFCURVE",
"-70 55 CURVE",
"-80 62 OFFCURVE",
"-86 64 OFFCURVE",
"-93 64 CURVE",
"-113 64 OFFCURVE",
"-129 38 OFFCURVE",
"-129 5 CURVE",
"-129 -31 OFFCURVE",
"-107 -51 OFFCURVE",
"-68 -51 CURVE",
"-21 -51 OFFCURVE",
"44 -21 OFFCURVE",
"91 23 CURVE",
"144 73 OFFCURVE",
"171 135 OFFCURVE",
"171 209 CURVE",
"171 306 OFFCURVE",
"136 370 OFFCURVE",
"84 370 CURVE",
"70 370 OFFCURVE",
"58 366 OFFCURVE",
"51 359 CURVE",
"45 352 OFFCURVE",
"41 344 OFFCURVE",
"26 305 CURVE",
"-5 228 LINE",
"-13 206 OFFCURVE",
"-15 200 OFFCURVE",
"-15 191 CURVE",
"-15 161 OFFCURVE",
"12 138 OFFCURVE",
"47 138 CURVE",
"67 138 OFFCURVE",
"85 143 OFFCURVE",
"106 154 CURVE",
"107 155 OFFCURVE",
"110 156 OFFCURVE",
"113 157 CURVE"
);
}
);
};
layerId = "6E34CE51-C086-4FF0-804E-D019E96D60E0";
paths = (
{
closed = 1;
nodes = (
"-41 -51 OFFCURVE",
"25 -37 OFFCURVE",
"86 19 CURVE SMOOTH",
"144 72 OFFCURVE",
"163 131 OFFCURVE",
"163 204 CURVE SMOOTH",
"163 268 OFFCURVE",
"144 362 OFFCURVE",
"85 362 CURVE SMOOTH",
"47 362 OFFCURVE",
"36 336 OFFCURVE",
"27 311 CURVE SMOOTH",
"-9 209 LINE",
"-15 160 OFFCURVE",
"19 131 OFFCURVE",
"59 131 CURVE SMOOTH",
"81 131 OFFCURVE",
"106 140 OFFCURVE",
"121 158 CURVE",
"100 163 LINE",
"140 117 LINE",
"129 143 LINE",
"131 101 OFFCURVE",
"34 38 OFFCURVE",
"-24 38 CURVE SMOOTH",
"-55 38 OFFCURVE",
"-76 64 OFFCURVE",
"-91 64 CURVE SMOOTH",
"-122 64 OFFCURVE",
"-129 24 OFFCURVE",
"-129 6 CURVE SMOOTH",
"-129 -45 OFFCURVE",
"-89 -51 OFFCURVE",
"-68 -51 CURVE SMOOTH"
);
}
);
width = 213;
}
);
note = FEi6;
},
{
color = 1;
glyphname = FEi7;
lastChange = "2020-11-16 20:04:07 +0000";
layers = (
{
anchors = (
{
name = bottom;
position = "{70, -210}";
},
{
name = exit;
position = "{0, 5}";
},
{
name = top;
position = "{42, 435}";
}
);
background = {
paths = (
{
closed = 1;
nodes = (
"-96 -45 OFFCURVE",
"-84 -50 OFFCURVE",
"-67 -50 CURVE",
"-26 -50 OFFCURVE",
"40 -10 OFFCURVE",
"79 39 CURVE",
"110 76 OFFCURVE",
"124 115 OFFCURVE",
"124 159 CURVE",
"124 253 OFFCURVE",
"83 330 OFFCURVE",
"32 330 CURVE",
"4 330 OFFCURVE",
"-10 318 OFFCURVE",
"-20 284 CURVE",
"-44 209 LINE",
"-51 192 OFFCURVE",
"-55 175 OFFCURVE",
"-55 166 CURVE",
"-55 137 OFFCURVE",
"-29 112 OFFCURVE",
"2 112 CURVE",
"18 112 OFFCURVE",
"42 119 OFFCURVE",
"60 130 CURVE",
"70 121 OFFCURVE",
"77 110 OFFCURVE",
"77 102 CURVE",
"77 78 OFFCURVE",
"39 49 OFFCURVE",
"-16 29 CURVE",
"-42 20 OFFCURVE",
"-46 19 OFFCURVE",
"-59 12 CURVE",
"-82 1 OFFCURVE",
"-95 -11 OFFCURVE",
"-107 -33 CURVE"
);
}
);
};
layerId = "6E34CE51-C086-4FF0-804E-D019E96D60E0";
paths = (
{
closed = 1;
nodes = (
"-44 -50 OFFCURVE",
"18 -32 OFFCURVE",
"70 28 CURVE SMOOTH",
"111 75 OFFCURVE",
"119 117 OFFCURVE",
"119 173 CURVE SMOOTH",
"119 239 OFFCURVE",
"100 335 OFFCURVE",
"42 335 CURVE SMOOTH",
"4 335 OFFCURVE",
"-7 309 OFFCURVE",
"-16 284 CURVE SMOOTH",
"-52 182 LINE",
"-58 133 OFFCURVE",
"-24 104 OFFCURVE",
"16 104 CURVE SMOOTH",
"38 104 OFFCURVE",
"63 113 OFFCURVE",
"78 131 CURVE",
"57 136 LINE",
"97 98 LINE",
"89 125 LINE",
"76 59 OFFCURVE",
"5 37 OFFCURVE",
"-42 20 CURVE SMOOTH",
"-72 9 OFFCURVE",
"-97 -11 OFFCURVE",
"-107 -33 CURVE",
"-94 -47 OFFCURVE",
"-83 -50 OFFCURVE",
"-66 -50 CURVE SMOOTH"
);
}
);
width = 216;
}
);
note = FEi7;
},
{
color = 1;
glyphname = FEi8;
lastChange = "2020-11-16 20:04:07 +0000";
layers = (
{
anchors = (
{
name = bottom;
position = "{74, -236}";
},
{
name = exit;
position = "{0, 0}";
},
{
name = top;
position = "{119, 462}";
}
);
background = {
paths = (
{
closed = 1;
nodes = (
"160 136 OFFCURVE",
"164 130 OFFCURVE",
"164 121 CURVE",
"164 88 OFFCURVE",
"107 56 OFFCURVE",
"48 56 CURVE",
"38 56 OFFCURVE",
"28 56 OFFCURVE",
"23 58 CURVE",
"11 60 LINE",
"5 62 OFFCURVE",
"0 62 OFFCURVE",
"-4 62 CURVE",
"-44 62 OFFCURVE",
"-72 31 OFFCURVE",
"-72 -13 CURVE",
"-72 -53 OFFCURVE",
"-47 -76 OFFCURVE",
"-3 -76 CURVE",
"41 -76 OFFCURVE",
"92 -47 OFFCURVE",
"136 4 CURVE",
"181 55 OFFCURVE",
"209 128 OFFCURVE",
"209 190 CURVE",
"209 277 OFFCURVE",
"166 350 OFFCURVE",
"116 350 CURVE",
"77 350 OFFCURVE",
"67 326 OFFCURVE",
"57 294 CURVE",
"48 264 LINE",
"46 258 OFFCURVE",
"43 249 OFFCURVE",
"38 235 CURVE",
"28 204 OFFCURVE",
"25 192 OFFCURVE",
"25 181 CURVE",
"25 149 OFFCURVE",
"49 127 OFFCURVE",
"84 127 CURVE",
"105 127 OFFCURVE",
"126 135 OFFCURVE",
"148 150 CURVE"
);
}
);
};
layerId = "6E34CE51-C086-4FF0-804E-D019E96D60E0";
paths = (
{
closed = 1;
nodes = (
"46 -76 OFFCURVE",
"92 -47 OFFCURVE",
"136 5 CURVE SMOOTH",
"184 62 OFFCURVE",
"205 134 OFFCURVE",
"205 202 CURVE SMOOTH",
"205 259 OFFCURVE",
"181 362 OFFCURVE",
"119 362 CURVE SMOOTH",
"81 362 OFFCURVE",
"70 336 OFFCURVE",
"61 311 CURVE SMOOTH",
"25 209 LINE",
"19 160 OFFCURVE",
"53 131 OFFCURVE",
"93 131 CURVE SMOOTH",
"118 131 OFFCURVE",
"143 141 OFFCURVE",
"160 164 CURVE",
"137 166 LINE",
"181 99 LINE",
"178 145 LINE",
"167 120 OFFCURVE",
"134 56 OFFCURVE",
"46 56 CURVE SMOOTH",
"26 56 OFFCURVE",
"8 62 OFFCURVE",
"-9 62 CURVE SMOOTH",
"-27 62 OFFCURVE",
"-72 45 OFFCURVE",
"-72 -13 CURVE SMOOTH",
"-72 -67 OFFCURVE",
"-26 -76 OFFCURVE",
"-9 -76 CURVE SMOOTH"
);
}
);
width = 240;
}
);
note = FEi8;
},
{
color = 1;
glyphname = FEi9;
lastChange = "2020-11-16 20:04:07 +0000";
layers = (
{
anchors = (
{
name = bottom;
position = "{47, -214}";
},
{
name = exit;
position = "{0, 0}";
},
{
name = top;
position = "{82, 442}";
}
);
background = {
anchors = (
{
name = bottom;
position = "{114, -285}";
},
{
name = exit;
position = "{0, 0}";
},
{
name = top;
position = "{51, 459}";
}
);
paths = (
{
closed = 1;
nodes = (
"117 125 OFFCURVE",
"121 118 OFFCURVE",
"121 111 CURVE",
"121 84 OFFCURVE",
"74 47 OFFCURVE",
"48 47 CURVE",
"43 47 OFFCURVE",
"35 48 OFFCURVE",
"26 50 CURVE",
"13 53 LINE",
"-4 56 OFFCURVE",
"-32 60 OFFCURVE",
"-44 60 CURVE",
"-128 60 OFFCURVE",
"-202 10 OFFCURVE",
"-260 -84 CURVE",
"-271 -102 LINE",
"-273 -106 OFFCURVE",
"-275 -112 OFFCURVE",
"-274 -112 CURVE",
"-271 -111 OFFCURVE",
"-271 -111 OFFCURVE",
"-267 -108 CURVE",
"-266 -107 OFFCURVE",
"-262 -105 OFFCURVE",
"-255 -102 CURVE",
"-238 -94 LINE",
"-206 -79 OFFCURVE",
"-166 -70 OFFCURVE",
"-128 -70 CURVE",
"-123 -70 OFFCURVE",
"-119 -70 OFFCURVE",
"-110 -71 CURVE",
"-102 -71 OFFCURVE",
"-97 -71 OFFCURVE",
"-93 -72 CURVE",
"-83 -72 OFFCURVE",
"-72 -74 OFFCURVE",
"-55 -76 CURVE",
"-43 -78 OFFCURVE",
"-37 -79 OFFCURVE",
"-31 -79 CURVE",
"6 -79 OFFCURVE",
"49 -42 OFFCURVE",
"75 -16 CURVE",
"84 -8 OFFCURVE",
"90 -2 OFFCURVE",
"94 3 CURVE",
"148 59 OFFCURVE",
"174 123 OFFCURVE",
"174 198 CURVE",
"174 286 OFFCURVE",
"139 348 OFFCURVE",
"89 348 CURVE",
"50 348 OFFCURVE",
"37 310 OFFCURVE",
"26 279 CURVE",
"2 216 LINE",
"-9 189 OFFCURVE",
"-13 177 OFFCURVE",
"-13 167 CURVE",
"-13 139 OFFCURVE",
"14 118 OFFCURVE",
"51 118 CURVE",
"60 118 OFFCURVE",
"73 120 OFFCURVE",
"82 123 CURVE",
"89 124 OFFCURVE",
"94 126 OFFCURVE",
"108 132 CURVE"
);
}
);
};
layerId = "6E34CE51-C086-4FF0-804E-D019E96D60E0";
paths = (
{
closed = 1;
nodes = (
"-166 -45 OFFCURVE",
"-49 -79 OFFCURVE",
"-31 -79 CURVE SMOOTH",
"6 -79 OFFCURVE",
"46 -45 OFFCURVE",
"89 -2 CURVE SMOOTH",
"145 56 OFFCURVE",
"159 95 OFFCURVE",
"159 184 CURVE SMOOTH",
"159 248 OFFCURVE",
"140 342 OFFCURVE",
"82 342 CURVE SMOOTH",
"44 342 OFFCURVE",
"33 316 OFFCURVE",
"24 291 CURVE SMOOTH",
"-12 189 LINE",
"-18 140 OFFCURVE",
"16 111 OFFCURVE",
"56 111 CURVE SMOOTH",
"78 111 OFFCURVE",
"103 120 OFFCURVE",
"118 138 CURVE",
"97 143 LINE",
"137 97 LINE",
"125 128 LINE",
"123 80 OFFCURVE",
"77 47 OFFCURVE",
"48 47 CURVE SMOOTH",
"25 47 OFFCURVE",
"1 60 OFFCURVE",
"-49 60 CURVE SMOOTH",
"-172 60 OFFCURVE",
"-260 -71 OFFCURVE",
"-274 -112 CURVE"
);
}
);
width = 216;
}
);
note = FEi9;
},
{
color = 9;
glyphname = FIVE;
lastChange = "2020-11-16 20:04:07 +0000";
layers = (
{
anchors = (
{
name = bottom;
position = "{0, 0}";
},
{
name = top;
position = "{0, 0}";
}
);
backgroundImage = {
crop = "{{0, 0}, {121.2, 142.32}}";
imagePath = "../../../../_01_Calligraphic Models (Amir)/_numbers/05.tif";
locked = "1";
transform = "{3.5, 0, 0, 3.5, -6, 71}";
};
layerId = "6E34CE51-C086-4FF0-804E-D019E96D60E0";
paths = (
{
closed = 1;
nodes = (
"174 91 OFFCURVE",
"207 127 OFFCURVE",
"214 162 CURVE",
"199 166 LINE",
"207 140 OFFCURVE",
"239 112 OFFCURVE",
"270 112 CURVE SMOOTH",
"308 112 OFFCURVE",
"330 155 OFFCURVE",
"353 202 CURVE SMOOTH",
"374 245 OFFCURVE",
"387 285 OFFCURVE",
"387 321 CURVE SMOOTH",
"387 394 OFFCURVE",
"305 481 OFFCURVE",
"227 529 CURVE",
"199 528 LINE",
"89 257 LINE SMOOTH",
"72 216 OFFCURVE",
"67 188 OFFCURVE",
"67 164 CURVE SMOOTH",
"67 118 OFFCURVE",
"94 91 OFFCURVE",
"131 91 CURVE SMOOTH"
);
},
{
closed = 1;
nodes = (
"130 181 OFFCURVE",
"112 199 OFFCURVE",
"123 228 CURVE SMOOTH",
"189 404 LINE",
"166 393 LINE",
"259 332 LINE SMOOTH",
"285 315 OFFCURVE",
"313 294 OFFCURVE",
"313 253 CURVE SMOOTH",
"313 231 OFFCURVE",
"302 199 OFFCURVE",
"269 199 CURVE SMOOTH",
"243 199 OFFCURVE",
"232 213 OFFCURVE",
"230 236 CURVE",
"203 234 LINE",
"199 204 OFFCURVE",
"177 181 OFFCURVE",
"151 181 CURVE SMOOTH"
);
}
);
width = 500;
}
);
note = FIVE;
},
{
color = 9;
glyphname = FOUR;
lastChange = "2020-11-16 20:04:07 +0000";
layers = (
{
anchors = (
{
name = bottom;
position = "{0, 0}";
},
{
name = top;
position = "{0, 0}";
}
);
backgroundImage = {
crop = "{{0, 0}, {122.16, 218.16}}";
imagePath = "../../../../_01_Calligraphic Models (Amir)/_numbers/04.tif";
transform = "{3.49987, -0.03054, 0.03054, 3.49987, 34, -40}";
};
layerId = "6E34CE51-C086-4FF0-804E-D019E96D60E0";
paths = (
{
closed = 1;
nodes = (
"116 1 LINE",
"141 115 LINE SMOOTH",
"150 155 OFFCURVE",
"146 175 OFFCURVE",
"142 201 CURVE SMOOTH",
"112 379 LINE",
"104 341 LINE",
"125 382 OFFCURVE",
"207 432 OFFCURVE",
"233 355 CURVE SMOOTH",
"240 334 OFFCURVE",
"245 299 OFFCURVE",
"249 243 CURVE",
"279 243 LINE",
"319 471 OFFCURVE",
"389 529 OFFCURVE",
"424 568 CURVE",
"424 681 LINE",
"393 681 LINE",
"369 649 OFFCURVE",
"317 568 OFFCURVE",
"282 446 CURVE",
"300 458 LINE",
"292 529 OFFCURVE",
"256 566 OFFCURVE",
"217 566 CURVE SMOOTH",
"178 566 OFFCURVE",
"142 529 OFFCURVE",
"116 489 CURVE SMOOTH",
"95 457 OFFCURVE",
"59 351 OFFCURVE",
"65 263 CURVE SMOOTH",
"83 1 LINE"
);
}
);
width = 500;
}
);
note = FOUR;
},
{
color = 1;
glyphname = GAFi1;
lastChange = "2020-11-16 20:04:07 +0000";
layers = (
{
anchors = (
{
name = bottom;
position = "{70, -244}";
},
{
name = exit;
position = "{0, 0}";
},
{
name = top;
position = "{209, 907}";
}
);
components = (
{
name = KAFi1;
}
);
layerId = "6E34CE51-C086-4FF0-804E-D019E96D60E0";
paths = (
{
closed = 1;
nodes = (
"176 741 OFFCURVE",
"188 748 OFFCURVE",
"210 763 CURVE SMOOTH",
"402 894 LINE SMOOTH",
"423 909 OFFCURVE",
"434 920 OFFCURVE",
"446 941 CURVE SMOOTH",
"464 972 LINE",
"450 981 LINE",
"223 827 LINE SMOOTH",
"173 793 OFFCURVE",
"154 756 OFFCURVE",
"145 726 CURVE",
"163 719 LINE"
);
}
);
width = 181;
}
);
note = GAFi1;
},
{
color = 1;
glyphname = GAFi10;
lastChange = "2020-11-16 17:25:11 +0000";
layers = (
{
anchors = (
{
name = bottom;
position = "{137, -274}";
},
{
name = exit;
position = "{0, 0}";
},
{
name = top;
position = "{279, 905}";
}
);
background = {
paths = (
{
closed = 1;
nodes = (
"-72 -51 OFFCURVE",
"-47 -75 OFFCURVE",
"-9 -75 CURVE",
"80 -75 OFFCURVE",
"175 90 OFFCURVE",
"186 176 CURVE",
"188 192 OFFCURVE",
"189 206 OFFCURVE",
"189 253 CURVE",
"189 324 LINE",
"188 361 LINE",
"189 396 LINE",
"189 425 LINE",
"189 466 OFFCURVE",
"198 484 OFFCURVE",
"226 507 CURVE",
"254 530 OFFCURVE",
"283 546 OFFCURVE",
"339 573 CURVE",
"374 590 LINE",
"381 593 OFFCURVE",
"392 599 OFFCURVE",
"408 606 CURVE",
"438 621 LINE",
"496 650 OFFCURVE",
"519 668 OFFCURVE",
"549 709 CURVE",
"569 738 OFFCURVE",
"587 771 OFFCURVE",
"587 781 CURVE",
"587 783 OFFCURVE",
"586 784 OFFCURVE",
"584 784 CURVE",
"583 784 OFFCURVE",
"581 782 OFFCURVE",
"579 780 CURVE",
"557 749 OFFCURVE",
"469 713 OFFCURVE",
"427 697 CURVE",
"408 689 OFFCURVE",
"392 683 OFFCURVE",
"379 677 CURVE",
"340 661 LINE",
"308 647 OFFCURVE",
"301 644 OFFCURVE",
"275 630 CURVE",
"203 592 OFFCURVE",
"189 553 OFFCURVE",
"161 476 CURVE",
"148 438 LINE",
"127 380 OFFCURVE",
"125 368 OFFCURVE",
"125 311 CURVE",
"125 242 LINE",
"126 195 LINE",
"126 183 LINE",
"126 143 OFFCURVE",
"126 121 OFFCURVE",
"125 110 CURVE",
"124 101 OFFCURVE",
"121 94 OFFCURVE",
"117 87 CURVE",
"104 69 OFFCURVE",
"74 55 OFFCURVE",
"45 55 CURVE",
"37 55 OFFCURVE",
"30 56 OFFCURVE",
"24 57 CURVE",
"9 61 LINE",
"5 62 OFFCURVE",
"0 62 OFFCURVE",
"-6 62 CURVE",
"-43 62 OFFCURVE",
"-72 30 OFFCURVE",
"-72 -12 CURVE"
);
},
{
closed = 1;
nodes = (
"353 714 OFFCURVE",
"355 715 OFFCURVE",
"357 716 CURVE",
"367 722 LINE",
"373 726 OFFCURVE",
"382 731 OFFCURVE",
"390 734 CURVE",
"409 743 LINE",
"419 748 OFFCURVE",
"426 751 OFFCURVE",
"429 752 CURVE",
"450 760 LINE",
"458 763 OFFCURVE",
"475 770 OFFCURVE",
"494 779 CURVE",
"502 782 OFFCURVE",
"508 785 OFFCURVE",
"513 787 CURVE",
"538 800 OFFCURVE",
"567 830 OFFCURVE",
"580 856 CURVE",
"583 860 OFFCURVE",
"585 863 OFFCURVE",
"586 865 CURVE",
"588 867 OFFCURVE",
"589 870 OFFCURVE",
"589 871 CURVE",
"589 873 OFFCURVE",
"589 873 OFFCURVE",
"588 873 CURVE",
"586 873 OFFCURVE",
"583 872 OFFCURVE",
"580 869 CURVE",
"569 860 OFFCURVE",
"538 844 OFFCURVE",
"501 829 CURVE",
"416 791 LINE",
"395 782 OFFCURVE",
"376 762 OFFCURVE",
"361 735 CURVE",
"354 721 LINE",
"352 717 OFFCURVE",
"351 714 OFFCURVE",
"352 714 CURVE"
);
}
);
};
components = (
{
name = KAFi10;
}
);
layerId = "6E34CE51-C086-4FF0-804E-D019E96D60E0";
paths = (
{
closed = 1;
nodes = (
"245 741 OFFCURVE",
"257 748 OFFCURVE",
"279 763 CURVE SMOOTH",
"471 894 LINE SMOOTH",
"492 909 OFFCURVE",
"503 920 OFFCURVE",
"515 941 CURVE SMOOTH",
"533 972 LINE",
"519 981 LINE",
"292 827 LINE SMOOTH",
"242 793 OFFCURVE",
"223 756 OFFCURVE",
"214 726 CURVE",
"232 719 LINE"
);
}
);
width = 181;
}
);
note = GAFi10;
},
{
color = 1;
glyphname = GAFi11;
lastChange = "2020-11-16 17:25:14 +0000";
layers = (
{
anchors = (
{
name = bottom;
position = "{118, -300}";
},
{
name = exit;
position = "{0, 0}";
},
{
name = top;
position = "{63, 631}";
}
);
background = {
paths = (
{
closed = 1;
nodes = (
"80 315 LINE",
"176 366 LINE",
"183 369 OFFCURVE",
"195 376 OFFCURVE",
"210 384 CURVE",
"224 392 OFFCURVE",
"234 398 OFFCURVE",
"240 401 CURVE",
"248 406 OFFCURVE",
"258 413 OFFCURVE",
"269 420 CURVE",
"331 461 OFFCURVE",
"351 476 OFFCURVE",
"380 548 CURVE",
"381 551 OFFCURVE",
"382 553 OFFCURVE",
"383 554 CURVE",
"383 558 LINE",
"383 560 OFFCURVE",
"383 561 OFFCURVE",
"381 561 CURVE",
"379 560 OFFCURVE",
"379 560 OFFCURVE",
"378 559 CURVE",
"373 552 LINE",
"342 515 OFFCURVE",
"279 484 OFFCURVE",
"237 464 CURVE",
"203 446 LINE",
"101 395 OFFCURVE",
"56 368 OFFCURVE",
"30 343 CURVE",
"2 314 OFFCURVE",
"-40 251 OFFCURVE",
"-59 209 CURVE",
"-64 196 OFFCURVE",
"-67 189 OFFCURVE",
"-68 188 CURVE",
"-70 184 OFFCURVE",
"-72 179 OFFCURVE",
"-72 176 CURVE",
"-72 175 OFFCURVE",
"-71 173 OFFCURVE",
"-70 173 CURVE",
"-69 173 OFFCURVE",
"-66 175 OFFCURVE",
"-63 177 CURVE",
"-44 193 OFFCURVE",
"-13 203 OFFCURVE",
"17 203 CURVE",
"75 203 OFFCURVE",
"124 168 OFFCURVE",
"124 126 CURVE",
"124 87 OFFCURVE",
"59 64 OFFCURVE",
"27 64 CURVE",
"-3 64 OFFCURVE",
"-19 72 OFFCURVE",
"-37 96 CURVE",
"-45 108 OFFCURVE",
"-50 111 OFFCURVE",
"-59 111 CURVE",
"-81 111 OFFCURVE",
"-100 76 OFFCURVE",
"-100 35 CURVE",
"-100 -28 OFFCURVE",
"-62 -76 OFFCURVE",
"-12 -76 CURVE",
"40 -76 OFFCURVE",
"84 -33 OFFCURVE",
"132 62 CURVE",
"166 130 OFFCURVE",
"181 177 OFFCURVE",
"181 210 CURVE",
"181 266 OFFCURVE",
"142 304 OFFCURVE",
"83 304 CURVE",
"74 304 OFFCURVE",
"68 303 OFFCURVE",
"56 301 CURVE"
);
},
{
closed = 1;
nodes = (
"76 459 OFFCURVE",
"88 456 OFFCURVE",
"103 456 CURVE",
"162 456 OFFCURVE",
"298 541 OFFCURVE",
"321 602 CURVE",
"326 612 LINE",
"327 613 OFFCURVE",
"327 613 OFFCURVE",
"327 614 CURVE",
"327 616 OFFCURVE",
"326 616 OFFCURVE",
"325 616 CURVE",
"323 616 LINE",
"308 602 LINE",
"298 593 OFFCURVE",
"271 575 OFFCURVE",
"243 560 CURVE",
"194 532 LINE",
"166 517 OFFCURVE",
"150 508 OFFCURVE",
"146 506 CURVE",
"135 500 OFFCURVE",
"122 494 OFFCURVE",
"107 487 CURVE",
"89 479 OFFCURVE",
"78 473 OFFCURVE",
"72 470 CURVE",
"70 469 OFFCURVE",
"67 468 OFFCURVE",
"62 465 CURVE"
);
}
);
};
components = (
{
name = KAFi11;
}
);
layerId = "6E34CE51-C086-4FF0-804E-D019E96D60E0";
paths = (
{
closed = 1;
nodes = (
"60 483 OFFCURVE",
"66 493 OFFCURVE",
"80 509 CURVE SMOOTH",
"159 602 LINE SMOOTH",
"184 631 OFFCURVE",
"194 665 OFFCURVE",
"199 687 CURVE",
"187 693 LINE",
"159 657 OFFCURVE",
"111 602 OFFCURVE",
"103 592 CURVE SMOOTH",
"90 576 OFFCURVE",
"44 532 OFFCURVE",
"33 461 CURVE",
"53 458 LINE"
);
}
);
width = 332;
}
);
note = GAFi11;
},
{
color = 1;
glyphname = GAFi12;
lastChange = "2020-11-16 20:04:07 +0000";
layers = (
{
anchors = (
{
name = bottom;
position = "{96, -411}";
},
{
name = exit;
position = "{0, 0}";
},
{
name = top;
position = "{94, 602}";
}
);
background = {
paths = (
{
closed = 1;
nodes = (
"-92 -46 OFFCURVE",
"-83 -50 OFFCURVE",
"-66 -50 CURVE",
"17 -50 OFFCURVE",
"103 89 OFFCURVE",
"103 164 CURVE",
"103 224 OFFCURVE",
"76 267 OFFCURVE",
"-2 328 CURVE",
"5 331 OFFCURVE",
"9 334 OFFCURVE",
"12 335 CURVE",
"17 338 OFFCURVE",
"26 342 OFFCURVE",
"41 349 CURVE",
"75 364 LINE",
"80 367 OFFCURVE",
"92 371 OFFCURVE",
"109 379 CURVE",
"199 416 OFFCURVE",
"250 444 OFFCURVE",
"271 466 CURVE",
"282 476 OFFCURVE",
"296 496 OFFCURVE",
"307 518 CURVE",
"313 528 OFFCURVE",
"316 536 OFFCURVE",
"319 543 CURVE",
"322 551 LINE",
"322 554 LINE",
"322 555 OFFCURVE",
"322 556 OFFCURVE",
"321 556 CURVE",
"320 556 OFFCURVE",
"318 555 OFFCURVE",
"317 553 CURVE",
"315 552 OFFCURVE",
"315 552 OFFCURVE",
"312 548 CURVE",
"305 541 LINE",
"291 529 OFFCURVE",
"268 514 OFFCURVE",
"239 502 CURVE",
"234 500 OFFCURVE",
"225 496 OFFCURVE",
"213 491 CURVE",
"200 485 OFFCURVE",
"191 481 OFFCURVE",
"185 479 CURVE",
"179 476 OFFCURVE",
"160 469 OFFCURVE",
"127 457 CURVE",
"86 441 OFFCURVE",
"54 426 OFFCURVE",
"32 413 CURVE",
"-8 387 OFFCURVE",
"-65 287 OFFCURVE",
"-65 241 CURVE",
"-65 224 OFFCURVE",
"-58 218 OFFCURVE",
"-37 216 CURVE",
"11 180 OFFCURVE",
"40 135 OFFCURVE",
"40 95 CURVE",
"40 64 OFFCURVE",
"18 42 OFFCURVE",
"-37 21 CURVE",
"-69 9 OFFCURVE",
"-90 -3 OFFCURVE",
"-106 -34 CURVE"
);
},
{
closed = 1;
nodes = (
"87 482 LINE",
"98 487 OFFCURVE",
"117 495 OFFCURVE",
"149 507 CURVE",
"168 515 LINE",
"202 528 OFFCURVE",
"225 538 OFFCURVE",
"238 547 CURVE",
"250 555 OFFCURVE",
"266 573 OFFCURVE",
"275 587 CURVE",
"283 602 LINE",
"284 603 OFFCURVE",
"284 604 OFFCURVE",
"284 605 CURVE",
"281 605 OFFCURVE",
"281 605 OFFCURVE",
"280 604 CURVE",
"263 589 OFFCURVE",
"237 576 OFFCURVE",
"176 554 CURVE",
"150 545 OFFCURVE",
"138 540 OFFCURVE",
"126 535 CURVE",
"124 534 OFFCURVE",
"119 532 OFFCURVE",
"112 528 CURVE",
"80 512 OFFCURVE",
"69 505 OFFCURVE",
"50 472 CURVE",
"48 469 OFFCURVE",
"46 467 OFFCURVE",
"46 466 CURVE",
"43 461 LINE",
"42 460 OFFCURVE",
"42 460 OFFCURVE",
"42 459 CURVE",
"42 458 OFFCURVE",
"42 458 OFFCURVE",
"43 458 CURVE",
"44 458 OFFCURVE",
"44 458 OFFCURVE",
"45 459 CURVE",
"46 460 OFFCURVE",
"46 460 OFFCURVE",
"48 461 CURVE",
"49 461 OFFCURVE",
"51 462 OFFCURVE",
"54 464 CURVE",
"58 466 OFFCURVE",
"61 468 OFFCURVE",
"63 470 CURVE",
"64 470 OFFCURVE",
"67 471 OFFCURVE",
"72 474 CURVE"
);
}
);
};
components = (
{
name = KAFi12;
}
);
layerId = "6E34CE51-C086-4FF0-804E-D019E96D60E0";
paths = (
{
closed = 1;
nodes = (
"62 462 OFFCURVE",
"82 480 OFFCURVE",
"99 491 CURVE SMOOTH",
"187 547 LINE SMOOTH",
"202 557 OFFCURVE",
"208 567 OFFCURVE",
"214 576 CURVE SMOOTH",
"235 609 LINE",
"225 617 LINE",
"90 529 LINE SMOOTH",
"63 511 OFFCURVE",
"38 462 OFFCURVE",
"36 450 CURVE",
"49 443 LINE"
);
}
);
width = 140;
}
);
note = GAFi12;
},
{
color = 1;
glyphname = GAFi2;
lastChange = "2020-11-16 20:04:07 +0000";
layers = (
{
anchors = (
{
name = bottom;
position = "{144, -262}";
},
{
name = exit;
position = "{0, 0}";
},
{
name = top;
position = "{81, 668}";
}
);
background = {
paths = (
{
closed = 1;
nodes = (
"69 -76 OFFCURVE",
"104 15 OFFCURVE",
"112 39 CURVE SMOOTH",
"127 82 OFFCURVE",
"148 176 OFFCURVE",
"148 245 CURVE SMOOTH",
"148 314 OFFCURVE",
"90 325 OFFCURVE",
"76 325 CURVE SMOOTH",
"62 325 OFFCURVE",
"34 322 OFFCURVE",
"3 309 CURVE",
"9 299 LINE",
"214 528 LINE SMOOTH",
"228 543 OFFCURVE",
"249 569 OFFCURVE",
"266 618 CURVE SMOOTH",
"282 663 LINE",
"267 671 LINE",
"-9 339 LINE SMOOTH",
"-36 307 OFFCURVE",
"-50 280 OFFCURVE",
"-62 254 CURVE SMOOTH",
"-70 236 OFFCURVE",
"-82 178 OFFCURVE",
"-84 151 CURVE",
"-73 147 LINE",
"27 208 OFFCURVE",
"90 198 OFFCURVE",
"121 138 CURVE",
"118 181 LINE",
"104 70 OFFCURVE",
"62 62 OFFCURVE",
"27 62 CURVE SMOOTH",
"-19 62 OFFCURVE",
"-41 103 OFFCURVE",
"-67 102 CURVE SMOOTH",
"-94 101 OFFCURVE",
"-100 58 OFFCURVE",
"-100 40 CURVE SMOOTH",
"-100 -10 OFFCURVE",
"-73 -76 OFFCURVE",
"0 -76 CURVE SMOOTH"
);
}
);
};
backgroundImage = {
crop = "{{0, 0}, {128.64, 255.6}}";
imagePath = "../../../../_01_Calligraphic Models (Amir)/_Kaf/Kaf_02.tif";
locked = "1";
transform = "{3.5, 0, 0, 3.5, -135, -105}";
};
components = (
{
name = KAFi2;
}
);
layerId = "6E34CE51-C086-4FF0-804E-D019E96D60E0";
paths = (
{
closed = 1;
nodes = (
"60 483 OFFCURVE",
"66 493 OFFCURVE",
"80 509 CURVE SMOOTH",
"159 602 LINE SMOOTH",
"184 631 OFFCURVE",
"194 665 OFFCURVE",
"199 687 CURVE",
"187 693 LINE",
"159 657 OFFCURVE",
"111 602 OFFCURVE",
"103 592 CURVE SMOOTH",
"90 576 OFFCURVE",
"44 532 OFFCURVE",
"33 461 CURVE",
"53 458 LINE"
);
}
);
width = 332;
}
);
note = GAFi2;
},
{
color = 1;
glyphname = GAFi3;
lastChange = "2020-11-16 20:04:07 +0000";
layers = (
{
anchors = (
{
name = bottom;
position = "{70, -244}";
},
{
name = exit;
position = "{0, 0}";
},
{
name = top;
position = "{230, 904}";
}
);
background = {
paths = (
{
closed = 1;
nodes = (
"-104 -44 OFFCURVE",
"-90 -51 OFFCURVE",
"-71 -51 CURVE",
"29 -51 OFFCURVE",
"110 79 OFFCURVE",
"110 172 CURVE",
"110 296 LINE",
"109 312 LINE",
"109 362 OFFCURVE",
"110 369 OFFCURVE",
"120 379 CURVE",
"130 391 OFFCURVE",
"155 407 OFFCURVE",
"169 413 CURVE",
"171 414 OFFCURVE",
"182 420 OFFCURVE",
"203 430 CURVE",
"239 447 LINE",
"258 456 OFFCURVE",
"270 462 OFFCURVE",
"275 465 CURVE",
"299 478 LINE",
"353 506 OFFCURVE",
"371 525 OFFCURVE",
"397 578 CURVE",
"402 589 LINE",
"404 596 OFFCURVE",
"405 598 OFFCURVE",
"405 600 CURVE",
"405 601 OFFCURVE",
"405 601 OFFCURVE",
"404 601 CURVE",
"402 601 OFFCURVE",
"399 599 OFFCURVE",
"395 595 CURVE",
"389 588 OFFCURVE",
"376 579 OFFCURVE",
"360 571 CURVE",
"326 553 OFFCURVE",
"290 539 OFFCURVE",
"254 525 CURVE",
"223 512 LINE",
"147 484 OFFCURVE",
"128 466 OFFCURVE",
"91 395 CURVE",
"60 332 OFFCURVE",
"48 304 OFFCURVE",
"48 234 CURVE",
"48 225 OFFCURVE",
"48 216 OFFCURVE",
"49 205 CURVE",
"50 157 LINE",
"50 128 LINE",
"50 74 OFFCURVE",
"46 56 OFFCURVE",
"-6 37 CURVE",
"-34 26 LINE",
"-84 7 OFFCURVE",
"-104 -7 OFFCURVE",
"-115 -29 CURVE"
);
},
{
closed = 1;
nodes = (
"265 608 LINE",
"221 591 OFFCURVE",
"208 585 OFFCURVE",
"193 576 CURVE",
"170 563 OFFCURVE",
"159 548 OFFCURVE",
"144 527 CURVE",
"137 516 OFFCURVE",
"132 507 OFFCURVE",
"134 507 CURVE",
"136 507 OFFCURVE",
"136 507 OFFCURVE",
"146 515 CURVE",
"159 524 OFFCURVE",
"180 536 OFFCURVE",
"208 547 CURVE",
"280 577 LINE",
"324 596 OFFCURVE",
"335 603 OFFCURVE",
"363 640 CURVE",
"369 651 LINE",
"372 654 OFFCURVE",
"373 657 OFFCURVE",
"373 658 CURVE",
"373 659 OFFCURVE",
"373 659 OFFCURVE",
"372 660 CURVE",
"371 660 OFFCURVE",
"370 659 OFFCURVE",
"368 658 CURVE",
"364 654 OFFCURVE",
"362 653 OFFCURVE",
"361 652 CURVE",
"347 643 OFFCURVE",
"332 636 OFFCURVE",
"317 629 CURVE",
"304 624 OFFCURVE",
"297 621 OFFCURVE",
"294 620 CURVE"
);
}
);
};
components = (
{
name = KAFi3;
}
);
layerId = "6E34CE51-C086-4FF0-804E-D019E96D60E0";
paths = (
{
closed = 1;
nodes = (
"176 741 OFFCURVE",
"188 748 OFFCURVE",
"210 763 CURVE SMOOTH",
"402 894 LINE SMOOTH",
"423 909 OFFCURVE",
"434 920 OFFCURVE",
"446 941 CURVE SMOOTH",
"464 972 LINE",
"450 981 LINE",
"223 827 LINE SMOOTH",
"173 793 OFFCURVE",
"154 756 OFFCURVE",
"145 726 CURVE",
"163 719 LINE"
);
}
);
width = 181;
}
);
note = GAFi3;
},
{
color = 1;
glyphname = GAFi4;
lastChange = "2020-11-16 17:25:34 +0000";
layers = (
{
anchors = (
{
name = bottom;
position = "{70, -244}";
},
{
name = exit;
position = "{0, 0}";
},
{
name = top;
position = "{239, 909}";
}
);
components = (
{
name = KAFi4;
}
);
layerId = "6E34CE51-C086-4FF0-804E-D019E96D60E0";
paths = (
{
closed = 1;
nodes = (
"176 741 OFFCURVE",
"188 748 OFFCURVE",
"210 763 CURVE SMOOTH",
"402 894 LINE SMOOTH",
"423 909 OFFCURVE",
"434 920 OFFCURVE",
"446 941 CURVE SMOOTH",
"464 972 LINE",
"450 981 LINE",
"223 827 LINE SMOOTH",
"173 793 OFFCURVE",
"154 756 OFFCURVE",
"145 726 CURVE",
"163 719 LINE"
);
}
);
width = 181;
}
);
note = GAFi4;
},
{
color = 1;
glyphname = GAFi5;
lastChange = "2020-11-16 20:04:07 +0000";
layers = (
{
anchors = (
{
name = bottom;
position = "{70, -296}";
},
{
name = exit;
position = "{0, 0}";
},
{
name = top;
position = "{234, 918}";
}
);
background = {
paths = (
{
closed = 1;
nodes = (
"-96 -45 OFFCURVE",
"-83 -51 OFFCURVE",
"-66 -51 CURVE",
"11 -51 OFFCURVE",
"77 52 OFFCURVE",
"97 120 CURVE",
"105 147 OFFCURVE",
"107 168 OFFCURVE",
"107 234 CURVE",
"107 316 LINE",
"106 353 LINE",
"106 393 LINE",
"106 443 OFFCURVE",
"113 461 OFFCURVE",
"152 492 CURVE",
"155 494 OFFCURVE",
"161 498 OFFCURVE",
"169 504 CURVE",
"181 511 OFFCURVE",
"189 516 OFFCURVE",
"194 519 CURVE",
"239 543 LINE",
"372 606 LINE",
"375 608 OFFCURVE",
"381 611 OFFCURVE",
"390 616 CURVE",
"403 623 OFFCURVE",
"415 630 OFFCURVE",
"427 639 CURVE",
"455 664 OFFCURVE",
"479 699 OFFCURVE",
"496 732 CURVE",
"503 747 LINE",
"506 753 OFFCURVE",
"507 753 OFFCURVE",
"507 755 CURVE",
"507 757 OFFCURVE",
"506 758 OFFCURVE",
"503 758 CURVE",
"501 757 OFFCURVE",
"501 757 OFFCURVE",
"500 756 CURVE",
"481 731 OFFCURVE",
"414 702 OFFCURVE",
"385 690 CURVE",
"363 681 OFFCURVE",
"347 675 OFFCURVE",
"337 671 CURVE",
"283 650 LINE",
"179 610 OFFCURVE",
"122 587 OFFCURVE",
"86 477 CURVE",
"82 466 OFFCURVE",
"80 460 OFFCURVE",
"80 459 CURVE",
"72 451 OFFCURVE",
"46 362 OFFCURVE",
"44 348 CURVE",
"41 329 OFFCURVE",
"40 315 OFFCURVE",
"40 273 CURVE",
"40 245 OFFCURVE",
"41 218 OFFCURVE",
"41 200 CURVE",
"42 179 OFFCURVE",
"42 165 OFFCURVE",
"42 160 CURVE",
"41 124 LINE",
"41 108 LINE",
"41 97 OFFCURVE",
"38 84 OFFCURVE",
"34 74 CURVE",
"32 67 OFFCURVE",
"26 59 OFFCURVE",
"20 53 CURVE",
"8 43 OFFCURVE",
"-13 31 OFFCURVE",
"-39 20 CURVE",
"-58 13 OFFCURVE",
"-74 4 OFFCURVE",
"-88 -10 CURVE",
"-97 -20 OFFCURVE",
"-102 -26 OFFCURVE",
"-105 -33 CURVE"
);
},
{
closed = 1;
nodes = (
"448 819 LINE",
"449 820 OFFCURVE",
"449 820 OFFCURVE",
"449 821 CURVE",
"449 822 OFFCURVE",
"449 823 OFFCURVE",
"448 823 CURVE",
"447 823 LINE",
"446 823 OFFCURVE",
"445 823 OFFCURVE",
"444 822 CURVE",
"436 816 LINE",
"423 806 OFFCURVE",
"405 797 OFFCURVE",
"371 784 CURVE",
"354 777 OFFCURVE",
"331 768 OFFCURVE",
"304 758 CURVE",
"270 746 OFFCURVE",
"198 718 OFFCURVE",
"175 689 CURVE",
"173 686 OFFCURVE",
"169 681 OFFCURVE",
"165 675 CURVE",
"160 668 OFFCURVE",
"157 662 OFFCURVE",
"154 657 CURVE",
"150 649 OFFCURVE",
"147 644 OFFCURVE",
"146 643 CURVE",
"144 640 OFFCURVE",
"143 637 OFFCURVE",
"143 635 CURVE",
"143 634 OFFCURVE",
"144 633 OFFCURVE",
"145 633 CURVE",
"146 633 OFFCURVE",
"147 635 OFFCURVE",
"149 637 CURVE",
"164 658 OFFCURVE",
"274 701 OFFCURVE",
"299 710 CURVE",
"318 718 OFFCURVE",
"330 722 OFFCURVE",
"332 723 CURVE",
"339 726 OFFCURVE",
"349 730 OFFCURVE",
"362 736 CURVE",
"382 745 OFFCURVE",
"390 749 OFFCURVE",
"400 756 CURVE",
"415 768 OFFCURVE",
"431 788 OFFCURVE",
"443 809 CURVE"
);
}
);
};
components = (
{
name = KAFi5;
}
);
layerId = "6E34CE51-C086-4FF0-804E-D019E96D60E0";
paths = (
{
closed = 1;
nodes = (
"176 741 OFFCURVE",
"188 748 OFFCURVE",
"210 763 CURVE SMOOTH",
"402 894 LINE SMOOTH",
"423 909 OFFCURVE",
"434 920 OFFCURVE",
"446 941 CURVE SMOOTH",
"464 972 LINE",
"450 981 LINE",
"223 827 LINE SMOOTH",
"173 793 OFFCURVE",
"154 756 OFFCURVE",
"145 726 CURVE",
"163 719 LINE"
);
}
);
width = 181;
}
);
note = GAFi5;
},
{
color = 1;
glyphname = GAFi6;
lastChange = "2020-11-16 17:25:40 +0000";
layers = (
{
anchors = (
{
name = bottom;
position = "{185, -440}";
},
{
name = exit;
position = "{0, 0}";
},
{
name = top;
position = "{172, 941}";
}
);
components = (
{
name = KAFi6;
}
);
layerId = "6E34CE51-C086-4FF0-804E-D019E96D60E0";
paths = (
{
closed = 1;
nodes = (
"127 741 OFFCURVE",
"139 748 OFFCURVE",
"161 763 CURVE SMOOTH",
"353 894 LINE SMOOTH",
"374 909 OFFCURVE",
"385 920 OFFCURVE",
"397 941 CURVE SMOOTH",
"415 972 LINE",
"401 981 LINE",
"174 827 LINE SMOOTH",
"124 793 OFFCURVE",
"105 756 OFFCURVE",
"96 726 CURVE",
"114 719 LINE"
);
}
);
width = 362;
}
);
note = GAFi6;
},
